<svg width="193" height="225" viewBox="0 0 193 225" fill="none" xmlns="http://www.w3.org/2000/svg">
<g filter="url(#filter0_bii_1931_162)">
<path d="M47.0001 24.5V135.07C47.0001 141.435 44.4715 147.54 39.9707 152.041C35.4698 156.541 29.3653 159.07 23.0001 159.07H8.1901C7.11373 159.07 6.04792 159.282 5.05361 159.694C4.0593 160.107 3.156 160.711 2.39535 161.472C1.63471 162.234 1.03165 163.138 0.620652 164.133C0.209654 165.128 -0.00121656 166.194 9.76889e-05 167.27C-0.00517166 168.349 0.20278 169.418 0.612007 170.416C1.02123 171.415 1.62367 172.322 2.38471 173.087C3.14574 173.852 4.05038 174.459 5.04665 174.873C6.04293 175.287 7.1112 175.5 8.1901 175.5H73.4201C75.1592 175.503 76.8268 176.193 78.0594 177.42C79.292 178.646 79.9895 180.311 80.0001 182.05C79.9975 183.794 79.3034 185.466 78.0699 186.7C76.8365 187.933 75.1644 188.627 73.4201 188.63H29.1901C27.018 188.63 24.9348 189.493 23.3989 191.029C21.863 192.565 21.0001 194.648 21.0001 196.82C21.0001 198.993 21.8626 201.077 23.3983 202.615C24.9339 204.152 27.0171 205.017 29.1901 205.02H36.5001C37.8777 205.019 39.242 205.289 40.5152 205.815C41.7884 206.341 42.9456 207.112 43.9206 208.085C44.8956 209.059 45.6694 210.214 46.1978 211.486C46.7262 212.759 46.9988 214.122 47.0001 215.5C47.0001 218.02 48.001 220.436 49.7826 222.218C51.5642 223.999 53.9805 225 56.5001 225H192.5V112.5V0H71.5001C65.0023 0 58.7706 2.58123 54.176 7.17587C49.5813 11.7705 47.0001 18.0022 47.0001 24.5Z" fill="#272727"/>
</g>
<defs>
<filter id="filter0_bii_1931_162" x="-48" y="-48" width="288.5" height="321" filterUnits="userSpaceOnUse" color-interpolation-filters="sRGB">
<feFlood flood-opacity="0" result="BackgroundImageFix"/>
<feGaussianBlur in="BackgroundImage" stdDeviation="24"/>
<feComposite in2="SourceAlpha" operator="in" result="effect1_backgroundBlur_1931_162"/>
<feBlend mode="normal" in="SourceGraphic" in2="effect1_backgroundBlur_1931_162" result="shape"/>
<feColorMatrix in="SourceAlpha" type="matrix" values="0 0 0 0 0 0 0 0 0 0 0 0 0 0 0 0 0 0 127 0" result="hardAlpha"/>
<feOffset dy="4"/>
<feGaussianBlur stdDeviation="2"/>
<feComposite in2="hardAlpha" operator="arithmetic" k2="-1" k3="1"/>
<feColorMatrix type="matrix" values="0 0 0 0 1 0 0 0 0 1 0 0 0 0 1 0 0 0 0.15 0"/>
<feBlend mode="normal" in2="shape" result="effect2_innerShadow_1931_162"/>
<feColorMatrix in="SourceAlpha" type="matrix" values="0 0 0 0 0 0 0 0 0 0 0 0 0 0 0 0 0 0 127 0" result="hardAlpha"/>
<feOffset/>
<feGaussianBlur stdDeviation="34"/>
<feComposite in2="hardAlpha" operator="arithmetic" k2="-1" k3="1"/>
<feColorMatrix type="matrix" values="0 0 0 0 1 0 0 0 0 1 0 0 0 0 1 0 0 0 0.05 0"/>
<feBlend mode="normal" in2="effect2_innerShadow_1931_162" result="effect3_innerShadow_1931_162"/>
</filter>
</defs>
</svg>
