<svg width="591" height="446" viewBox="0 0 591 446" fill="none" xmlns="http://www.w3.org/2000/svg">
<g style="mix-blend-mode:multiply" opacity="0.41">
<path d="M290 444.844C448.782 444.844 575 463.126 575 304.344C575 145.562 446.282 16.8442 287.5 16.8442C128.718 16.8442 0 145.562 0 304.344C0 463.126 116.5 444.844 290 444.844Z" fill="#7E7E7F"/>
</g>
<g style="mix-blend-mode:multiply" opacity="0.41">
<path d="M287.5 405.914C380.058 405.914 455.09 399.252 455.09 391.034C455.09 382.816 380.058 376.154 287.5 376.154C194.943 376.154 119.91 382.816 119.91 391.034C119.91 399.252 194.943 405.914 287.5 405.914Z" fill="#C5CAE9"/>
</g>
<path d="M541.23 192.074C538.63 195.188 535.963 198.241 533.23 201.234C530.5 204.234 527.69 207.144 524.85 210.034C522.01 212.924 519.12 215.744 516.16 218.514C513.2 221.284 510.26 224.064 507.16 226.704L502.6 230.704C501.08 232.024 499.5 233.304 497.96 234.604L493.3 238.494L488.54 242.264C485.37 244.774 482.2 247.264 478.92 249.664C475.64 252.064 472.47 254.544 469.12 256.814C465.77 259.084 462.49 261.464 459.12 263.734L448.95 270.364C445.58 272.604 442.07 274.614 438.63 276.744L433.5 279.924L428.23 282.924L417.67 288.924L406.93 294.564C405.13 295.494 403.36 296.454 401.55 297.354L396.08 299.994L385.16 305.274L385.27 304.504C386.93 305.926 388.663 307.261 390.46 308.504C392.26 309.764 394.12 310.924 396.03 312.024C397.94 313.124 399.9 314.094 401.89 315.024L404.89 316.314C405.89 316.704 406.96 317.054 407.99 317.434C409.02 317.814 410.09 318.064 411.14 318.434L412.72 318.884L414.33 319.224C416.472 319.7 418.639 320.057 420.82 320.294C421.92 320.404 423.01 320.434 424.11 320.504C424.66 320.504 425.2 320.574 425.75 320.584L427.39 320.524C428.48 320.524 429.57 320.524 430.67 320.394L433.96 319.984C436.131 319.712 438.271 319.234 440.35 318.554C442.436 317.867 444.447 316.969 446.35 315.874C450.15 313.704 453.5 310.754 457.35 308.484C459.25 307.325 461.26 306.357 463.35 305.594C464.35 305.204 465.43 304.864 466.41 304.414C467.399 303.952 468.358 303.428 469.28 302.844C472.936 300.539 476.281 297.773 479.23 294.614L466.12 287.494L464.45 286.594L466.3 287.004L482.54 290.624L482.31 290.694C485.31 287.204 488.15 283.574 491.05 279.994C493.893 276.352 496.927 272.864 500.14 269.544C503.475 266.347 507.034 263.393 510.79 260.704C512.641 259.344 514.395 257.857 516.04 256.254C516.847 255.444 517.592 254.575 518.27 253.654C518.6 253.184 518.9 252.704 519.27 252.224L520.19 250.924L505.01 247.844L504.3 247.704L505.02 247.604L521.94 245.324L521.86 245.394C522.127 244.193 522.461 243.008 522.86 241.844C523.24 240.674 523.69 239.534 524.16 238.404C525.09 236.134 526.16 233.924 527.23 231.724C529.4 227.334 531.72 223.024 533.96 218.664C536.264 214.344 538.337 209.904 540.17 205.364C540.62 204.224 541.02 203.074 541.37 201.904C541.731 200.733 542.018 199.541 542.23 198.334C542.439 197.129 542.49 195.902 542.38 194.684C542.347 193.711 541.959 192.782 541.29 192.074H541.23Z" fill="url(#paint0_linear_2002_982)"/>
<path d="M442.5 229.324C440.903 231.416 439.119 233.357 437.17 235.124C435.25 236.894 433.25 238.554 431.17 240.124C427.07 243.314 422.8 246.244 418.44 249.034L418.76 248.534L415.99 265.054L415.24 269.554L414.61 265.034L413.69 251.914L406.69 255.844C405.53 256.514 404.31 257.124 403.2 257.844C402.119 258.522 401.113 259.313 400.2 260.204C399.278 261.152 398.413 262.154 397.61 263.204L396.42 264.784L395.33 266.454C394.57 267.544 393.97 268.724 393.33 269.874C392.69 271.024 392.13 272.244 391.52 273.434C390.91 274.624 390.45 275.874 389.91 277.084L388.43 280.844C388.03 282.114 387.59 283.364 387.21 284.644C386.83 285.924 386.48 287.214 386.21 288.514C385.94 289.814 385.6 291.104 385.44 292.424C385.28 293.744 385.01 295.054 384.93 296.374C384.88 297.034 384.81 297.694 384.77 298.374V300.374C384.785 301.688 384.875 303 385.04 304.304L384.86 303.974L385.39 304.454L384.76 304.354L395.66 299.094L401.12 296.454C402.92 295.564 404.7 294.594 406.49 293.664L417.21 288.044L427.75 282.044L433.01 279.044L438.18 275.894C441.61 273.764 445.12 271.754 448.48 269.534L458.6 262.844C461.94 260.584 465.23 258.244 468.55 255.944C471.87 253.644 475.07 251.184 478.33 248.804C481.59 246.424 484.77 243.934 487.93 241.424L492.68 237.664L497.33 233.784C498.87 232.484 500.44 231.214 501.96 229.894L507.2 226.664C510.26 224.024 513.2 221.214 516.2 218.474C519.2 215.734 522.67 212.794 525.53 209.944C528.39 207.094 530.53 204.184 533.27 201.194C536.01 198.204 538.68 195.134 541.27 192.034L540.5 191.844L539.58 191.484L538.58 191.344C537.895 191.301 537.209 191.328 536.53 191.424C535.856 191.501 535.188 191.621 534.53 191.784C533.84 191.914 533.18 192.134 532.53 192.314C529.862 193.141 527.242 194.113 524.68 195.224C519.53 197.404 514.47 199.814 509.36 202.094L509.47 201.984L502.27 218.814L501.96 219.534V218.754L501.24 205.274L501.46 205.424C497.76 206.989 493.885 208.103 489.92 208.744C488.92 208.854 487.92 208.894 486.92 208.964C485.92 209.034 484.92 209.164 483.92 209.314C481.92 209.584 479.98 209.974 478.04 210.414C470.216 212.195 462.645 214.943 455.5 218.594V218.524L453.5 241.244V241.594L453.44 241.244L449.84 221.844C446.9 223.774 442.5 229.324 442.5 229.324Z" fill="url(#paint1_linear_2002_982)"/>
<path d="M532.119 201.194C532.119 201.194 530.119 203.664 526.319 207.654C522.519 211.644 516.859 217.154 509.719 223.374C502.579 229.594 493.989 236.504 484.499 243.504C475.009 250.504 464.499 257.564 453.869 264.264L445.869 269.214L437.869 273.994L429.869 278.584L422.009 282.944C416.819 285.754 411.789 288.444 407.009 290.944C402.229 293.444 397.609 295.674 393.399 297.794C389.189 299.914 385.229 301.744 381.789 303.334C378.349 304.924 375.299 306.154 372.789 307.144C367.729 309.094 364.789 309.984 364.789 309.984L366.789 315.884C366.789 315.884 369.849 314.884 375.039 312.664C377.629 311.564 380.739 310.164 384.249 308.424C387.759 306.684 391.569 304.654 395.799 302.424C400.029 300.194 404.549 297.784 409.299 295.114C414.049 292.444 419.039 289.614 424.179 286.634L431.949 282.004L439.839 277.144L447.779 272.084L455.499 266.844C466.009 259.774 476.269 252.354 485.619 245.044C494.969 237.734 503.389 230.524 510.329 224.044C517.269 217.564 522.819 211.944 526.499 207.844C530.179 203.744 532.119 201.194 532.119 201.194Z" fill="black"/>
<path d="M88.6489 115.624C90.7889 119.064 92.8589 122.554 94.8289 126.094C96.7989 129.634 98.6989 133.214 100.559 136.804C102.419 140.394 104.179 144.054 105.879 147.724C107.579 151.394 109.289 155.064 110.879 158.814L113.259 164.394C114.039 166.264 114.759 168.154 115.509 170.034L117.739 175.684L119.819 181.384C121.209 185.184 122.599 188.984 123.819 192.834C125.039 196.684 126.429 200.494 127.529 204.394C128.629 208.294 129.859 212.144 130.969 216.034L134.069 227.764C135.129 231.664 135.939 235.634 136.879 239.564L138.249 245.474L139.449 251.424L141.799 263.324L143.799 275.324C144.119 277.324 144.479 279.324 144.799 281.324L145.589 287.324L147.169 299.324L146.469 298.984C148.354 297.858 150.179 296.637 151.939 295.324C153.699 294.004 155.389 292.604 157.029 291.144C158.669 289.684 160.219 288.144 161.719 286.524L163.899 284.044C164.589 283.194 165.249 282.314 165.899 281.454C166.549 280.594 167.159 279.664 167.799 278.774L168.729 277.404L169.559 275.984C170.683 274.101 171.705 272.158 172.619 270.164C173.059 269.164 173.429 268.164 173.839 267.114C174.039 266.594 174.259 266.114 174.439 265.574L174.899 264.004C175.199 262.944 175.559 261.924 175.799 260.844L176.449 257.594C176.871 255.449 177.088 253.27 177.099 251.084C177.101 248.897 176.877 246.715 176.429 244.574C175.569 240.274 173.819 236.174 172.869 231.814C172.372 229.637 172.087 227.416 172.019 225.184C172.019 224.074 172.019 222.974 171.859 221.904C171.733 220.819 171.536 219.743 171.269 218.684C170.226 214.501 168.653 210.468 166.589 206.684V206.684L155.619 216.844L154.229 218.144L155.229 216.514L163.769 202.234V202.484C161.389 198.544 158.839 194.694 156.349 190.824C153.796 186.975 151.44 183 149.289 178.914C147.314 174.743 145.643 170.435 144.289 166.024C143.577 163.837 142.715 161.702 141.709 159.634C141.192 158.612 140.601 157.629 139.939 156.694C139.599 156.234 139.229 155.804 138.879 155.354L137.939 154.074L130.249 167.494L129.889 168.134L130.019 167.414L133.169 150.634V150.734C132.107 150.128 131.082 149.46 130.099 148.734C129.099 148.014 128.169 147.224 127.229 146.424C125.379 144.824 123.609 143.134 121.859 141.424C118.379 137.974 115.009 134.424 111.589 130.924C108.203 127.38 104.635 124.016 100.899 120.844C99.9589 120.054 98.9889 119.314 97.9789 118.604C96.9826 117.898 95.944 117.253 94.8689 116.674C93.7875 116.102 92.6385 115.669 91.4489 115.384C90.5139 115.116 89.5138 115.19 88.6289 115.594L88.6489 115.624Z" fill="url(#paint2_linear_2002_982)"/>
<path d="M92.9884 221.044C94.4707 223.217 95.7527 225.519 96.8184 227.924C97.8984 230.304 98.8184 232.724 99.7184 235.174C101.448 240.064 102.888 245.044 104.168 250.054L103.798 249.594L118.608 257.414L122.608 259.544L118.128 258.724L105.378 255.464L106.898 263.384C107.168 264.694 107.368 266.044 107.698 267.314C107.994 268.569 108.423 269.79 108.978 270.954C109.577 272.123 110.245 273.255 110.978 274.344L112.098 275.974L113.338 277.534C114.138 278.594 115.068 279.534 115.948 280.534C116.828 281.534 117.828 282.424 118.758 283.374C119.688 284.324 120.758 285.154 121.758 286.054L124.858 288.564C125.938 289.344 126.998 290.164 128.098 290.914C129.198 291.664 130.298 292.414 131.448 293.084C132.598 293.754 133.718 294.484 134.918 295.084C136.084 295.72 137.283 296.294 138.508 296.804C139.118 297.064 139.728 297.344 140.338 297.584L142.218 298.214C143.471 298.621 144.747 298.955 146.038 299.214L145.668 299.274L146.288 298.934L145.998 299.494L144.428 287.494L143.638 281.494C143.358 279.494 142.998 277.494 142.638 275.494L140.638 263.544L138.298 251.664L137.108 245.724L135.818 239.844C134.878 235.914 134.068 231.954 133.008 228.064L129.908 216.354C128.808 212.474 127.628 208.614 126.488 204.744C125.348 200.874 124.018 197.054 122.778 193.214C121.538 189.374 120.168 185.574 118.778 181.784L116.698 176.094L114.498 170.424C113.748 168.544 113.038 166.654 112.258 164.794L110.838 158.794C109.298 155.054 107.558 151.384 105.838 147.704C104.118 144.024 102.498 139.844 100.708 136.194C98.9184 132.544 96.8184 129.614 94.8284 126.094C92.8384 122.574 90.7784 119.094 88.6484 115.624L88.1784 116.234L87.5484 116.994L87.0984 117.894C86.8383 118.539 86.6472 119.209 86.5284 119.894C86.3879 120.571 86.2877 121.255 86.2284 121.944C86.1384 122.624 86.1484 123.324 86.0984 124.024C86.0537 126.814 86.1538 129.604 86.3984 132.384C86.8484 137.964 87.5484 143.524 88.1084 149.094L88.0284 148.954L101.748 161.084L102.338 161.604L101.578 161.394L88.5784 157.844L88.7884 157.684C89.112 161.688 88.9542 165.717 88.3184 169.684C88.0984 170.684 87.8284 171.634 87.5884 172.594C87.3484 173.554 87.1484 174.544 86.9884 175.534C86.6184 177.534 86.3684 179.474 86.1784 181.464C85.4308 189.43 85.676 197.458 86.9084 205.364V205.304L107.828 214.384L108.158 214.524H107.808L88.2184 211.804C89.0984 215.134 92.9884 221.044 92.9884 221.044Z" fill="url(#paint3_linear_2002_982)"/>
<path d="M94.5 127.134C94.5 127.134 96.22 129.784 98.81 134.664C101.4 139.544 104.86 146.664 108.51 155.364C112.16 164.064 116.03 174.424 119.69 185.664C123.35 196.904 126.76 209.034 129.77 221.264C130.497 224.338 131.223 227.398 131.95 230.444C132.62 233.504 133.3 236.554 133.95 239.584C134.6 242.614 135.19 245.634 135.8 248.584C136.41 251.534 136.92 254.524 137.47 257.424C138.47 263.234 139.47 268.854 140.3 274.194C141.13 279.534 141.84 284.604 142.52 289.274C143.2 293.944 143.71 298.274 144.13 302.034C144.55 305.794 144.77 309.094 144.91 311.794C145.17 317.214 145.09 320.294 145.09 320.294H151.32C151.32 320.294 151.32 317.054 150.86 311.444C150.63 308.634 150.28 305.244 149.73 301.364C149.18 297.484 148.45 293.234 147.73 288.534C147.01 283.834 146.08 278.764 145.03 273.424C143.98 268.084 142.88 262.424 141.66 256.634C141.02 253.734 140.36 250.784 139.66 247.804C138.96 244.824 138.25 241.804 137.53 238.804C136.81 235.804 136 232.734 135.22 229.674C134.44 226.614 133.58 223.574 132.75 220.514C129.35 208.314 125.53 196.234 121.53 185.064C117.53 173.894 113.32 163.644 109.37 155.014C105.42 146.384 101.76 139.374 99.01 134.574C96.26 129.774 94.5 127.134 94.5 127.134Z" fill="#FFD180"/>
<path d="M499.34 93.924C498.9 97.924 498.34 101.924 497.77 105.924C497.2 109.924 496.44 113.924 495.69 117.924C494.94 121.924 494.1 125.844 493.17 129.844C492.24 133.844 491.35 137.734 490.27 141.634L488.71 147.504C488.18 149.504 487.58 151.394 487.02 153.334L485.3 159.154L483.44 164.934C482.19 168.784 480.95 172.634 479.55 176.424C478.15 180.214 476.89 184.074 475.36 187.824C473.83 191.574 472.44 195.364 470.92 199.114L466.15 210.274C464.59 214.004 462.78 217.624 461.15 221.274L458.56 226.844L455.84 232.264L450.37 243.094L444.57 253.744C443.57 255.514 442.65 257.304 441.64 259.064L438.57 264.294L432.41 274.744L432.08 274.044C434.256 274.321 436.446 274.478 438.64 274.514C440.83 274.564 443.03 274.514 445.22 274.354C447.41 274.194 449.6 273.924 451.77 273.594L455 272.984C456.07 272.744 457.13 272.454 458.2 272.194C459.27 271.934 460.3 271.554 461.35 271.244L462.92 270.734L464.45 270.124C466.5 269.336 468.503 268.431 470.45 267.414C471.45 266.904 472.35 266.314 473.3 265.764C473.77 265.474 474.3 265.214 474.71 264.914L476.04 263.964C476.92 263.314 477.84 262.724 478.69 262.024L481.2 259.864C482.854 258.432 484.368 256.844 485.72 255.124C487.064 253.402 488.227 251.545 489.19 249.584C491.19 245.664 492.3 241.354 494.24 237.324C495.176 235.3 496.315 233.377 497.64 231.584C498.29 230.674 498.97 229.814 499.54 228.894C500.104 227.96 500.609 226.992 501.05 225.994C502.806 222.045 504.049 217.888 504.75 213.624V213.624L489.89 214.994L488 215.164L489.77 214.474L505.28 208.474L505.13 208.674C505.68 204.104 506.04 199.504 506.46 194.914C506.806 190.31 507.394 185.727 508.22 181.184C509.207 176.649 510.521 172.19 512.15 167.844C512.935 165.684 513.57 163.472 514.05 161.224C514.279 160.109 514.429 158.98 514.5 157.844C514.5 157.274 514.5 156.694 514.5 156.124V154.534L500.18 160.404L499.5 160.674L500.05 160.194L512.85 148.894V149.004C512.387 147.866 511.993 146.7 511.67 145.514C511.34 144.334 511.08 143.134 510.84 141.934C510.36 139.524 510 137.104 509.68 134.674C509.06 129.814 508.59 124.944 508.03 120.074C507.541 115.202 506.8 110.359 505.81 105.564C505.55 104.374 505.24 103.184 504.88 102.014C504.531 100.841 504.107 99.6921 503.61 98.574C503.117 97.4548 502.478 96.4057 501.71 95.454C501.142 94.6659 500.307 94.1114 499.36 93.894L499.34 93.924Z" fill="url(#paint4_linear_2002_982)"/>
<path d="M437.919 179.724C437.755 182.349 437.35 184.953 436.709 187.504C436.109 190.044 435.359 192.504 434.539 194.994C432.899 199.924 430.979 204.734 428.899 209.474V208.844L435.769 224.114L437.639 228.274L434.639 224.874L426.589 214.464L422.929 221.644C422.329 222.834 421.659 224.034 421.139 225.234C420.594 226.404 420.182 227.632 419.909 228.894C419.664 230.183 419.493 231.485 419.399 232.794L419.279 234.794V236.794C419.279 238.114 419.409 239.444 419.489 240.794C419.569 242.144 419.809 243.444 419.959 244.794C420.109 246.144 420.419 247.414 420.649 248.724L421.559 252.624C421.929 253.904 422.259 255.194 422.659 256.464C423.059 257.734 423.479 259.004 423.969 260.234C424.459 261.464 424.899 262.734 425.499 263.924C426.099 265.114 426.599 266.344 427.269 267.494C427.589 268.064 427.899 268.654 428.269 269.224L429.359 270.884C430.103 271.969 430.907 273.011 431.769 274.004L431.439 273.824L432.139 273.934L431.569 274.204L437.709 263.764L440.779 258.554C441.779 256.804 442.719 255.014 443.699 253.244L449.499 242.564L454.959 231.754L457.669 226.334L460.219 220.844C461.889 217.174 463.689 213.554 465.219 209.844L469.969 198.704C471.489 194.964 472.969 191.194 474.409 187.444C475.849 183.694 477.189 179.864 478.579 176.074C479.969 172.284 481.219 168.444 482.459 164.604L484.299 158.844L486.009 153.034C486.579 151.094 487.169 149.164 487.709 147.214L490.269 141.624C491.349 137.734 492.269 133.764 493.169 129.834C494.069 125.904 495.399 121.524 496.169 117.564C496.939 113.604 497.169 109.984 497.739 105.984C498.309 101.984 498.869 97.9839 499.309 93.9839L498.549 94.1739L497.549 94.3839L496.649 94.8139C496.057 95.1568 495.501 95.5589 494.989 96.0139C494.461 96.4568 493.964 96.9345 493.499 97.4439C492.999 97.9339 492.579 98.4439 492.119 99.0039C490.36 101.173 488.721 103.436 487.209 105.784C484.129 110.454 481.259 115.264 478.279 120.014V119.854L481.649 137.854L481.789 138.624L481.319 137.994L473.239 127.194H473.499C471.291 130.554 468.685 133.637 465.739 136.374C464.969 137.024 464.159 137.604 463.379 138.224C462.599 138.844 461.829 139.484 461.099 140.164C459.609 141.484 458.189 142.894 456.809 144.344C451.324 150.17 446.581 156.652 442.689 163.644V163.564L453.609 183.564L453.779 183.874L453.529 183.614L439.749 169.424C438.499 172.664 437.919 179.724 437.919 179.724Z" fill="url(#paint5_linear_2002_982)"/>
<path d="M496.819 106.564C496.819 106.564 496.549 109.714 495.599 115.154C494.649 120.594 492.999 128.314 490.519 137.444C488.039 146.574 484.719 157.104 480.699 168.214C476.679 179.324 471.899 190.984 466.759 202.484C465.449 205.344 464.129 208.204 462.829 211.064L458.829 219.504C457.455 222.284 456.092 225.034 454.739 227.754L450.629 235.754C447.869 240.974 445.179 246.004 442.539 250.754C439.899 255.504 437.349 259.914 435.019 264.014C432.689 268.114 430.429 271.834 428.439 275.064C426.449 278.294 424.609 281.064 423.059 283.244C419.929 287.674 417.969 290.054 417.969 290.054L422.909 293.854C422.909 293.854 424.909 291.294 427.989 286.594C429.529 284.234 431.339 281.344 433.299 277.954C435.259 274.564 437.299 270.754 439.589 266.584C441.879 262.414 444.299 257.874 446.749 253.014C449.199 248.154 451.809 243.014 454.429 237.704C455.695 235.037 456.989 232.314 458.309 229.534L462.179 221.114C463.432 218.254 464.695 215.381 465.969 212.494L469.649 203.754C474.469 192.034 478.889 180.164 482.599 168.894C486.309 157.624 489.309 146.954 491.499 137.724C493.689 128.494 495.109 120.724 495.899 115.234C496.689 109.744 496.819 106.564 496.819 106.564Z" fill="#A01E1E"/>
<path d="M4.38867 181.074C8.07867 182.754 11.7387 184.494 15.3887 186.344C19.0387 188.194 22.5587 190.114 26.1087 192.074C29.6587 194.034 33.1087 196.074 36.5887 198.204C40.0687 200.334 43.5087 202.414 46.8687 204.664L51.9487 207.984C53.6387 209.104 55.2787 210.284 56.9487 211.434L61.9487 214.884L66.8487 218.474C70.1087 220.864 73.3787 223.254 76.5387 225.774C79.6987 228.294 82.9687 230.694 86.0387 233.324C89.1087 235.954 92.2887 238.474 95.3587 241.094L104.459 249.094C107.459 251.754 110.379 254.604 113.349 257.354L117.779 261.504L122.069 265.784L130.639 274.384L138.919 283.244C140.299 284.724 141.699 286.174 143.049 287.684L147.049 292.244L155.049 301.374L154.279 301.474C155.222 299.493 156.06 297.464 156.789 295.394C157.529 293.324 158.159 291.214 158.709 289.094C159.259 286.974 159.709 284.804 160.039 282.644L160.469 279.374C160.579 278.284 160.639 277.184 160.729 276.094C160.819 275.004 160.779 273.894 160.819 272.804V271.154L160.719 269.514C160.609 267.32 160.378 265.133 160.029 262.964C159.849 261.884 159.579 260.824 159.349 259.754C159.229 259.214 159.129 258.674 158.989 258.144L158.509 256.584C158.169 255.584 157.899 254.484 157.509 253.454L156.249 250.394C155.408 248.374 154.377 246.439 153.169 244.614C151.952 242.81 150.555 241.135 148.999 239.614C145.899 236.514 142.159 234.084 138.949 230.974C137.326 229.457 135.858 227.782 134.569 225.974C133.909 225.084 133.309 224.164 132.569 223.334C131.86 222.505 131.099 221.724 130.289 220.994C127.093 218.082 123.538 215.592 119.709 213.584V213.584L116.339 228.124L115.909 229.974L115.809 228.074L114.979 211.464L115.119 211.664C110.949 209.664 106.699 207.924 102.469 206.084C98.2068 204.303 94.0411 202.301 89.9887 200.084C86.0199 197.724 82.2267 195.08 78.6387 192.174C76.8324 190.753 74.9314 189.456 72.9487 188.294C71.951 187.735 70.9151 187.247 69.8487 186.834C69.3087 186.634 68.7587 186.484 68.2187 186.304L66.7187 185.764L67.7887 201.194L67.8387 201.924L67.5487 201.254L60.8487 185.544L60.9387 185.604C59.7133 185.684 58.484 185.684 57.2587 185.604C56.0287 185.554 54.8087 185.424 53.5987 185.274C51.1587 184.974 48.7487 184.554 46.3487 184.084C41.5387 183.154 36.7587 182.084 31.9687 181.084C27.1915 180.008 22.3616 179.18 17.4987 178.604C16.292 178.477 15.072 178.397 13.8387 178.364C12.6171 178.322 11.3942 178.366 10.1787 178.494C8.95813 178.611 7.75805 178.887 6.60867 179.314C5.68451 179.61 4.89694 180.227 4.38867 181.054V181.074Z" fill="url(#paint6_linear_2002_982)"/>
<path d="M66.5493 266.334C68.9859 267.318 71.3288 268.519 73.5493 269.924C75.7593 271.304 77.8993 272.794 79.9793 274.344C84.1393 277.444 88.0993 280.784 91.9793 284.254L91.4093 284.064L108.069 282.344L112.609 281.874L108.429 283.684L96.0193 288.054L101.679 293.794C102.679 294.734 103.549 295.744 104.529 296.624C105.471 297.501 106.504 298.275 107.609 298.934C108.76 299.57 109.945 300.141 111.159 300.644L112.999 301.374L114.899 301.984C116.149 302.414 117.449 302.694 118.739 302.984C120.029 303.274 121.349 303.514 122.649 303.784C123.949 304.054 125.279 304.174 126.649 304.364L130.649 304.734C131.979 304.784 133.319 304.874 134.649 304.884C135.979 304.894 137.309 304.884 138.649 304.834C139.989 304.784 141.319 304.734 142.649 304.544C143.979 304.354 145.299 304.254 146.589 303.984C147.239 303.854 147.899 303.744 148.589 303.604L150.499 303.084C151.765 302.727 153.007 302.293 154.219 301.784L153.949 302.044L154.269 301.414L154.349 302.034L146.349 292.924L142.349 288.374C141.009 286.874 139.599 285.374 138.229 283.934L129.959 275.094L121.409 266.514L117.119 262.244L112.709 258.094C109.709 255.364 106.879 252.514 103.829 249.864L94.7593 241.864C91.6793 239.244 88.5493 236.694 85.4493 234.104C82.3493 231.514 79.1293 229.104 75.9693 226.574C72.8093 224.044 69.5593 221.674 66.2993 219.284L61.4193 215.704L56.4193 212.264C54.7593 211.114 53.1093 209.944 51.4193 208.824L46.9193 204.634C43.5693 202.394 40.0693 200.294 36.6393 198.174C33.2093 196.054 29.4493 193.454 25.9393 191.444C22.4293 189.434 19.0493 188.144 15.4393 186.314C11.8293 184.484 8.1593 182.714 4.4393 181.044L4.3793 181.814L4.2793 182.814L4.4093 183.814C4.54871 184.479 4.75301 185.129 5.01929 185.754C5.27456 186.398 5.57532 187.023 5.9193 187.624C6.2193 188.254 6.6093 188.824 6.9193 189.424C8.42648 191.776 10.0623 194.042 11.8193 196.214C15.2793 200.604 18.9493 204.844 22.5193 209.214L22.3793 209.144L40.4993 211.564L41.2793 211.674L40.5293 211.924L27.7393 216.204L27.8093 215.954C30.3088 219.101 32.4175 222.539 34.0893 226.194C34.4593 227.134 34.7593 228.084 35.0893 229.024C35.4193 229.964 35.8093 230.884 36.2193 231.794C36.9993 233.624 37.8893 235.414 38.8393 237.174C42.6446 244.215 47.3067 250.758 52.7193 256.654H52.6493L75.0893 252.584L75.4393 252.514L75.1193 252.674L57.3193 261.294C60.0293 263.574 66.5493 266.334 66.5493 266.334Z" fill="url(#paint7_linear_2002_982)"/>
<path d="M15.5996 187.434C15.5996 187.434 18.5096 188.674 23.3696 191.294C28.2296 193.914 35.0496 197.894 42.9296 203.114C50.8096 208.334 59.7796 214.794 69.0596 222.114C78.3396 229.434 87.9196 237.624 97.2196 246.114L104.13 252.534C106.39 254.704 108.64 256.874 110.88 259.014C113.12 261.154 115.26 263.364 117.42 265.494L123.72 271.914C127.8 276.174 131.72 280.304 135.39 284.294C139.06 288.284 142.45 292.094 145.61 295.604C148.77 299.114 151.61 302.414 154.03 305.314C156.45 308.214 158.49 310.824 160.11 312.994C163.33 317.354 164.98 319.994 164.98 319.994L170.13 316.504C170.13 316.504 168.32 313.814 164.83 309.404C163.08 307.194 160.91 304.564 158.3 301.644C155.69 298.724 152.72 295.644 149.49 292.094C146.26 288.544 142.69 284.894 138.85 281.034C135.01 277.174 130.97 273.094 126.72 268.944L120.19 262.684L113.41 256.364L106.41 250.054L99.2696 243.814C89.6596 235.564 79.7796 227.634 70.2696 220.574C60.7596 213.514 51.4996 207.274 43.4996 202.304C35.4996 197.334 28.4996 193.524 23.4996 191.054C18.4996 188.584 15.5996 187.434 15.5996 187.434Z" fill="#A01E1E"/>
<path d="M342.65 131.894L315.25 115.624L342.65 99.3442" stroke="#C4C4C4" stroke-width="4" stroke-linecap="round" stroke-linejoin="round"/>
<path d="M396.898 99.3442L424.288 115.624L396.898 131.894" stroke="#C4C4C4" stroke-width="4" stroke-linecap="round" stroke-linejoin="round"/>
<path d="M390.839 86.7739L348.709 144.474" stroke="#C4C4C4" stroke-width="4" stroke-linecap="round" stroke-linejoin="round"/>
<path d="M337.499 382.564C321.929 369.734 313.548 351.074 313.548 333.564H261.428C261.428 351.024 253.049 369.684 237.479 382.564H337.499Z" fill="url(#paint8_linear_2002_982)"/>
<path d="M235.99 382.564H338.99C340.359 382.564 341.671 383.108 342.639 384.075C343.606 385.043 344.15 386.355 344.15 387.724V395.494H230.83V387.724C230.83 386.355 231.374 385.043 232.341 384.075C233.309 383.108 234.622 382.564 235.99 382.564V382.564Z" fill="url(#paint9_linear_2002_982)"/>
<path d="M108.84 342.434C108.84 345.67 110.125 348.773 112.413 351.061C114.701 353.349 117.804 354.634 121.04 354.634H453.96C457.196 354.634 460.299 353.349 462.587 351.061C464.875 348.773 466.16 345.67 466.16 342.434V334.844H108.84V342.434Z" fill="black"/>
<path d="M453.96 159.714H121.04C117.804 159.714 114.701 160.999 112.413 163.287C110.125 165.575 108.84 168.678 108.84 171.914V334.844H466.16V171.914C466.16 168.678 464.875 165.575 462.587 163.287C460.299 160.999 457.196 159.714 453.96 159.714Z" fill="url(#paint10_linear_2002_982)"/>
<g style="mix-blend-mode:overlay" opacity="0.22">
<path d="M431.498 334.844H466.208V171.914C466.208 168.678 464.923 165.575 462.635 163.287C460.347 160.999 457.244 159.714 454.008 159.714H256.898C305.098 207.724 374.108 277.084 431.498 334.844Z" fill="url(#paint11_linear_2002_982)"/>
</g>
<path d="M207.71 183.914C204.343 183.914 201.114 182.577 198.733 180.198C196.352 177.818 195.012 174.591 195.01 171.224V147.684H220.41V171.224C220.407 174.591 219.068 177.818 216.686 180.198C214.305 182.577 211.076 183.914 207.71 183.914V183.914Z" fill="#C4C4C4"/>
<path d="M269.029 61.3641C269.036 50.764 266.296 40.3429 261.075 31.1176C255.854 21.8924 248.331 14.1781 239.239 8.72757C230.148 3.27699 219.799 0.276266 209.202 0.0181813C198.605 -0.239904 188.122 2.25347 178.776 7.25501C169.43 12.2565 161.54 19.5954 155.876 28.5556C150.212 37.5157 146.968 47.791 146.459 58.379C145.951 68.967 148.196 79.5059 152.975 88.9675C157.754 98.429 164.905 106.49 173.729 112.364C177.863 115.148 181.246 118.909 183.578 123.314C185.91 127.718 187.119 132.63 187.099 137.614V142.844C187.099 144.863 187.9 146.8 189.327 148.229C190.754 149.657 192.689 150.461 194.709 150.464H220.709C222.728 150.461 224.664 149.657 226.09 148.229C227.517 146.8 228.319 144.863 228.319 142.844V137.624C228.348 132.574 229.617 127.608 232.012 123.162C234.408 118.717 237.857 114.926 242.059 112.124C250.364 106.515 257.166 98.9543 261.868 90.1043C266.57 81.2543 269.029 71.3857 269.029 61.3641V61.3641Z" fill="url(#paint12_linear_2002_982)"/>
<path d="M191.789 156.314H223.629" stroke="white" stroke-width="2" stroke-linecap="round" stroke-linejoin="round"/>
<path d="M191.789 162.494H223.629" stroke="white" stroke-width="2" stroke-linecap="round" stroke-linejoin="round"/>
<path d="M191.789 168.674H223.629" stroke="white" stroke-width="2" stroke-linecap="round" stroke-linejoin="round"/>
<path d="M189.62 77.1542C205.653 77.1542 218.65 64.1571 218.65 48.1242C218.65 32.0914 205.653 19.0942 189.62 19.0942C173.587 19.0942 160.59 32.0914 160.59 48.1242C160.59 64.1571 173.587 77.1542 189.62 77.1542Z" fill="white"/>
<path d="M229.034 87.5391C232.732 83.8408 232.732 77.8447 229.034 74.1465C225.336 70.4482 219.34 70.4482 215.642 74.1465C211.943 77.8447 211.943 83.8408 215.642 87.5391C219.34 91.2373 225.336 91.2373 229.034 87.5391Z" fill="white"/>
<path d="M182.988 419.204C183.689 420.417 184.696 421.426 185.909 422.128C187.121 422.83 188.497 423.201 189.898 423.204H201.738C203.14 423.201 204.515 422.83 205.728 422.128C206.941 421.426 207.948 420.417 208.648 419.204L213.398 410.974H195.818V398.974H213.398L208.648 390.754C207.948 389.54 206.941 388.532 205.728 387.83C204.515 387.128 203.14 386.757 201.738 386.754H189.898C188.497 386.757 187.121 387.128 185.909 387.83C184.696 388.532 183.689 389.54 182.988 390.754L179.128 397.444H100.978C99.2689 393.922 96.4156 391.085 92.8848 389.395C89.3539 387.704 85.3542 387.262 81.5392 388.139C77.7242 389.016 74.3194 391.161 71.8811 394.223C69.4428 397.286 68.1152 401.084 68.1152 404.999C68.1152 408.913 69.4428 412.712 71.8811 415.775C74.3194 418.837 77.7242 420.982 81.5392 421.859C85.3542 422.736 89.3539 422.293 92.8848 420.603C96.4156 418.913 99.2689 416.075 100.978 412.554H179.128L182.988 419.204ZM76.5784 410.064V399.844L85.4284 394.734L94.2784 399.844V410.064L85.4284 415.174L76.5784 410.064Z" fill="url(#paint13_linear_2002_982)"/>
<path d="M322.569 217.764H314.449V252.874H322.569V217.764Z" fill="url(#paint14_linear_2002_982)"/>
<path d="M334.749 231.694H326.629V252.874H334.749V231.694Z" fill="url(#paint15_linear_2002_982)"/>
<path d="M346.919 225.484H338.799V252.874H346.919V225.484Z" fill="url(#paint16_linear_2002_982)"/>
<path d="M369.78 217.764H361.66V252.874H369.78V217.764Z" fill="url(#paint17_linear_2002_982)"/>
<path d="M381.95 231.694H373.83V252.874H381.95V231.694Z" fill="url(#paint18_linear_2002_982)"/>
<path d="M394.13 225.484H386.01V252.874H394.13V225.484Z" fill="url(#paint19_linear_2002_982)"/>
<path d="M396.129 179.914H346.309V182.654H396.129V179.914Z" fill="url(#paint20_linear_2002_982)"/>
<path d="M447.439 187.454H346.309V190.194H447.439V187.454Z" fill="url(#paint21_linear_2002_982)"/>
<path d="M447.439 194.984H346.309V197.724H447.439V194.984Z" fill="url(#paint22_linear_2002_982)"/>
<path d="M332.259 179.914H314.449V197.724H332.259V179.914Z" fill="url(#paint23_linear_2002_982)"/>
<path d="M318.51 187.454L322.7 191.634L339.2 175.124" stroke="white" stroke-width="3" stroke-miterlimit="10"/>
<path d="M365.499 297.444C365.503 294.091 364.844 290.77 363.56 287.673C362.277 284.575 360.394 281.762 358.019 279.394L351.529 285.894C354.498 288.859 356.208 292.855 356.305 297.05C356.402 301.244 354.878 305.315 352.049 308.414L358.559 314.924C363.021 310.198 365.505 303.944 365.499 297.444V297.444Z" fill="black"/>
<path d="M352.049 308.414C350.22 310.427 347.918 311.952 345.351 312.849C342.784 313.747 340.034 313.989 337.349 313.554C334.665 313.119 332.132 312.021 329.98 310.358C327.827 308.696 326.124 306.523 325.025 304.036C323.926 301.548 323.465 298.826 323.685 296.115C323.904 293.405 324.797 290.792 326.283 288.514C327.768 286.237 329.799 284.366 332.191 283.072C334.582 281.778 337.26 281.101 339.979 281.104V271.924C335.748 271.922 331.583 272.972 327.859 274.979C324.135 276.986 320.968 279.887 318.643 283.422C316.318 286.957 314.909 291.014 314.542 295.229C314.174 299.443 314.861 303.683 316.539 307.567C318.217 311.45 320.834 314.856 324.155 317.477C327.476 320.098 331.397 321.852 335.564 322.582C339.731 323.312 344.014 322.994 348.028 321.657C352.042 320.32 355.661 318.007 358.559 314.924L352.049 308.414Z" fill="url(#paint24_linear_2002_982)"/>
<path d="M291.699 239.644C288.656 232.426 283.551 226.266 277.022 221.938C270.493 217.61 262.832 215.306 254.999 215.314C248.789 215.314 242.169 217.314 235.319 221.314C232.925 222.727 230.615 224.276 228.399 225.954C227.303 226.78 226.394 227.827 225.73 229.028C225.066 230.228 224.663 231.555 224.546 232.922C224.429 234.289 224.601 235.665 225.051 236.961C225.501 238.257 226.219 239.444 227.159 240.444V240.444C228.81 242.196 231.052 243.275 233.452 243.475C235.851 243.674 238.24 242.979 240.159 241.524C241.76 240.313 243.429 239.194 245.159 238.174C248.929 235.964 252.329 234.804 254.989 234.804C257.658 234.8 260.301 235.323 262.768 236.343C265.234 237.363 267.475 238.86 269.362 240.747C271.249 242.635 272.745 244.877 273.763 247.344C274.782 249.811 275.304 252.455 275.299 255.124C275.303 257.793 274.78 260.437 273.759 262.903C272.738 265.37 271.239 267.609 269.349 269.494C267.463 271.38 265.225 272.877 262.761 273.898C260.297 274.919 257.656 275.444 254.989 275.444C252.329 275.444 248.929 274.274 245.159 272.074C240.95 269.516 237.039 266.497 233.499 263.074C230.324 260.063 227.32 256.878 224.499 253.534C222.389 251.044 221.139 249.354 221.129 249.344C221.029 249.204 219.489 247.134 216.959 244.144C213.661 240.232 210.145 236.51 206.429 232.994C201.817 228.551 196.722 224.64 191.239 221.334C184.389 217.334 177.769 215.334 171.569 215.334C166.337 215.334 161.156 216.364 156.322 218.367C151.489 220.369 147.097 223.303 143.397 227.003C139.698 230.702 136.763 235.094 134.761 239.928C132.759 244.761 131.729 249.942 131.729 255.174C131.729 260.406 132.759 265.586 134.761 270.42C136.763 275.254 139.698 279.646 143.397 283.345C147.097 287.045 151.489 289.979 156.322 291.981C161.156 293.983 166.337 295.014 171.569 295.014C177.769 295.014 184.389 293.014 191.239 289.014C193.636 287.608 195.947 286.058 198.159 284.374C199.261 283.549 200.177 282.5 200.846 281.296C201.514 280.093 201.921 278.761 202.039 277.389C202.157 276.017 201.984 274.636 201.53 273.335C201.077 272.035 200.354 270.845 199.409 269.844V269.844C197.754 268.096 195.513 267.019 193.115 266.82C190.716 266.621 188.329 267.313 186.409 268.764C184.811 269.984 183.142 271.106 181.409 272.124C177.639 274.324 174.239 275.494 171.579 275.494C168.91 275.495 166.267 274.971 163.801 273.95C161.335 272.929 159.095 271.432 157.209 269.544C154.358 266.705 152.415 263.082 151.625 259.137C150.836 255.192 151.237 251.101 152.777 247.383C154.316 243.666 156.925 240.489 160.272 238.257C163.62 236.024 167.555 234.837 171.579 234.844C174.239 234.844 177.639 236.004 181.409 238.214C185.616 240.769 189.524 243.788 193.059 247.214C196.232 250.222 199.237 253.404 202.059 256.744C204.169 259.244 205.429 260.924 205.439 260.944C205.539 261.084 207.069 263.154 209.609 266.144C212.9 270.055 216.412 273.774 220.129 277.284C224.735 281.733 229.83 285.644 235.319 288.944C242.169 292.944 248.789 294.944 254.999 294.944C261.574 294.942 268.046 293.313 273.839 290.202C279.632 287.092 284.565 282.596 288.199 277.116C291.833 271.636 294.054 265.341 294.664 258.795C295.275 252.248 294.256 245.652 291.699 239.594V239.644Z" fill="black"/>
<path d="M286.13 239.644C283.085 232.426 277.977 226.267 271.447 221.939C264.917 217.611 257.254 215.306 249.42 215.314C243.21 215.314 236.59 217.314 229.74 221.314C227.352 222.73 225.045 224.279 222.83 225.954C221.733 226.779 220.823 227.826 220.158 229.027C219.493 230.227 219.089 231.554 218.972 232.922C218.855 234.289 219.028 235.666 219.479 236.962C219.93 238.258 220.649 239.445 221.59 240.444C223.242 242.196 225.483 243.275 227.883 243.475C230.283 243.674 232.672 242.979 234.59 241.524C236.19 240.31 237.859 239.192 239.59 238.174C243.36 235.964 246.76 234.804 249.42 234.804C252.089 234.804 254.731 235.33 257.196 236.351C259.662 237.372 261.902 238.869 263.789 240.756C265.675 242.642 267.172 244.883 268.193 247.348C269.215 249.813 269.74 252.456 269.74 255.124C269.74 257.792 269.215 260.435 268.193 262.9C267.172 265.365 265.675 267.606 263.789 269.492C261.902 271.379 259.662 272.876 257.196 273.897C254.731 274.918 252.089 275.444 249.42 275.444C246.76 275.444 243.36 274.274 239.59 272.074C235.385 269.515 231.478 266.497 227.94 263.074C224.763 260.065 221.759 256.88 218.94 253.534C216.82 251.044 215.57 249.354 215.56 249.344C215.46 249.204 213.93 247.134 211.39 244.144C208.099 240.23 204.586 236.507 200.87 232.994C196.255 228.556 191.16 224.645 185.68 221.334C178.83 217.334 172.21 215.334 166 215.334C160.768 215.334 155.588 216.364 150.754 218.367C145.92 220.369 141.528 223.303 137.829 227.003C134.13 230.702 131.195 235.094 129.193 239.928C127.191 244.761 126.16 249.942 126.16 255.174C126.16 260.406 127.191 265.586 129.193 270.42C131.195 275.254 134.13 279.646 137.829 283.345C141.528 287.045 145.92 289.979 150.754 291.981C155.588 293.983 160.768 295.014 166 295.014C172.21 295.014 178.83 293.014 185.68 289.014C188.078 287.608 190.389 286.058 192.6 284.374C193.703 283.548 194.618 282.499 195.286 281.294C195.954 280.09 196.359 278.757 196.475 277.385C196.591 276.013 196.416 274.631 195.96 273.331C195.504 272.032 194.778 270.843 193.83 269.844V269.844C192.177 268.094 189.936 267.016 187.537 266.817C185.138 266.617 182.749 267.311 180.83 268.764C179.231 269.982 177.562 271.104 175.83 272.124C172.06 274.324 168.66 275.494 166 275.494C163.286 275.501 160.598 274.956 158.1 273.894C153.218 271.839 149.335 267.956 147.28 263.074C146.224 260.572 145.68 257.884 145.68 255.169C145.68 252.454 146.224 249.766 147.28 247.264C148.829 243.579 151.433 240.435 154.763 238.225C158.094 236.015 162.003 234.839 166 234.844C168.66 234.844 172.06 236.004 175.83 238.214C180.039 240.771 183.95 243.79 187.49 247.214C190.661 250.225 193.666 253.406 196.49 256.744C198.6 259.244 199.85 260.924 199.86 260.944C199.96 261.084 201.5 263.154 204.03 266.144C207.325 270.055 210.841 273.774 214.56 277.284C219.165 281.73 224.257 285.641 229.74 288.944C236.59 292.944 243.21 294.944 249.42 294.944C255.994 294.939 262.465 293.308 268.257 290.196C274.048 287.085 278.981 282.59 282.614 277.111C286.248 271.632 288.471 265.34 289.084 258.794C289.697 252.248 288.683 245.653 286.13 239.594V239.644Z" fill="url(#paint25_linear_2002_982)"/>
<path d="M384.789 370.944L384.469 371.284L385.709 376.144C386.009 377.253 386.369 378.345 386.789 379.414C387.119 380.294 387.329 380.884 387.329 380.884L389.009 381.264C390.009 381.474 391.309 381.744 392.699 381.924C395.439 382.314 398.069 382.474 398.069 382.474C398.069 382.474 398.239 382.814 398.479 383.324C398.609 383.584 398.749 383.884 398.899 384.204C399.049 384.524 399.279 384.834 399.479 385.154C400.259 386.454 401.049 387.744 401.049 387.744L401.539 388.554C401.839 389.034 402.319 389.624 402.769 390.234L404.579 392.664C404.579 392.664 404.309 393.304 404.009 394.234C403.709 395.164 403.279 396.434 402.909 397.734C402.159 400.324 401.569 403.094 401.569 403.094L401.869 403.414L402.699 404.184L405.249 406.504C405.719 406.914 406.159 407.354 406.629 407.714L407.909 408.714L409.159 409.654L410.779 409.064C411.779 408.694 412.979 408.234 414.229 407.644C416.749 406.494 419.059 405.194 419.059 405.194L419.869 405.694C420.451 406.064 421.055 406.398 421.679 406.694L424.409 408.004L425.269 408.414C425.893 408.715 426.538 408.973 427.199 409.184L430.039 410.234C430.039 410.234 430.179 410.894 430.399 411.894C430.619 412.894 430.979 414.124 431.399 415.414C432.169 417.994 433.189 420.624 433.189 420.624C436.454 421.327 439.766 421.791 443.099 422.014C443.099 422.014 444.809 419.794 446.269 417.564C447.009 416.474 447.699 415.294 448.189 414.394L448.999 412.914L451.999 412.764C452.694 412.735 453.386 412.654 454.069 412.524L454.999 412.384L457.999 411.924C458.739 411.794 459.469 411.564 459.999 411.434L460.919 411.194C460.919 411.194 462.769 413.104 464.859 414.934C466.949 416.764 469.149 418.274 469.149 418.274L470.619 417.734L472.129 417.174L473.789 416.384L476.899 414.884C477.375 414.67 477.836 414.422 478.279 414.144C478.279 414.144 478.499 411.324 478.509 408.624C478.509 407.274 478.509 405.944 478.439 404.964C478.439 404.474 478.379 404.054 478.359 403.754V403.294C478.359 403.294 483.239 399.694 483.129 399.564L485.379 397.564C485.901 397.103 486.389 396.605 486.839 396.074L487.469 395.374C487.469 395.374 490.049 395.964 492.789 396.374C494.169 396.594 495.469 396.684 496.509 396.774L498.219 396.884L499.159 395.624C499.885 394.724 500.553 393.779 501.159 392.794L502.949 389.844L503.529 388.844C503.61 388.724 503.68 388.597 503.739 388.464C503.739 388.464 502.389 385.964 500.939 383.684C500.209 382.534 499.459 381.434 498.939 380.634L498.249 379.634L497.969 379.264L498.969 376.424C499.229 375.714 499.489 375.004 499.679 374.424C499.869 373.844 499.919 373.514 499.919 373.514L500.679 370.574C500.874 369.918 501.028 369.25 501.139 368.574L501.279 367.644C501.279 367.644 503.749 366.734 506.279 365.584C507.954 364.838 509.586 364 511.169 363.074L511.409 358.074L511.169 353.074C509.586 352.148 507.954 351.31 506.279 350.564C503.779 349.414 501.279 348.514 501.279 348.514L501.139 347.574C501.028 346.898 500.874 346.23 500.679 345.574L499.919 342.644L499.679 341.724L498.969 339.724L497.969 336.884L498.249 336.514L498.939 335.514C499.509 334.714 500.259 333.614 500.939 332.464C502.389 330.184 503.739 327.684 503.739 327.684C503.68 327.551 503.61 327.424 503.529 327.304L502.949 326.304L501.159 323.354C500.553 322.369 499.885 321.424 499.159 320.524L498.219 319.264L496.509 319.384C495.509 319.474 494.169 319.554 492.789 319.774C490.049 320.184 487.469 320.774 487.469 320.774L486.839 320.074C486.389 319.543 485.901 319.045 485.379 318.584L483.129 316.584C483.239 316.444 478.359 312.854 478.359 312.854V312.384C478.359 312.094 478.419 311.664 478.439 311.174C478.439 310.174 478.519 308.864 478.509 307.514C478.509 304.814 478.279 301.994 478.279 301.994C477.836 301.716 477.375 301.468 476.899 301.254L473.789 299.754L472.129 298.964L470.619 298.404L469.149 297.864C469.149 297.864 466.889 299.494 464.859 301.204C462.829 302.914 460.919 304.944 460.919 304.944L459.999 304.704C459.449 304.574 458.719 304.344 457.999 304.214L454.999 303.754L454.069 303.614C453.385 303.487 452.693 303.41 451.999 303.384L448.999 303.224L448.189 301.744C447.699 300.844 447.009 299.664 446.269 298.574C444.809 296.344 443.099 294.124 443.099 294.124C439.766 294.347 436.454 294.811 433.189 295.514C433.189 295.514 432.189 298.144 431.399 300.724C431.009 302.014 430.659 303.284 430.399 304.244C430.139 305.204 430.039 305.904 430.039 305.904L427.199 306.954C426.538 307.165 425.893 307.423 425.269 307.724L424.409 308.134L421.679 309.454C421.051 309.742 420.446 310.076 419.869 310.454L419.059 310.944C419.059 310.944 416.749 309.644 414.229 308.494C412.979 307.914 411.749 307.444 410.779 307.074L409.159 306.484L407.909 307.424L406.629 308.424C406.159 308.784 405.719 309.224 405.249 309.644L402.699 311.954L401.869 312.724L401.569 313.044C401.569 313.044 402.159 315.814 402.909 318.404C403.279 319.714 403.689 320.974 404.009 321.904C404.329 322.834 404.579 323.474 404.579 323.474L402.769 325.904C402.319 326.514 401.839 327.104 401.539 327.584L401.049 328.394L399.499 331.024C399.299 331.344 399.109 331.674 398.919 331.974C398.729 332.274 398.629 332.594 398.499 332.854C398.259 333.364 398.089 333.704 398.089 333.704C398.089 333.704 395.459 333.864 392.719 334.254C391.329 334.434 390.029 334.704 389.029 334.914L387.349 335.294L386.809 336.764C386.392 337.834 386.032 338.926 385.729 340.034L384.499 344.894L384.819 345.234L385.729 346.124C386.499 346.844 387.499 347.844 388.499 348.684C390.549 350.484 392.639 352.044 392.639 352.044C392.581 352.354 392.551 352.669 392.549 352.984C392.549 353.544 392.489 354.304 392.449 355.064L392.289 358.064L392.449 361.064C392.449 361.824 392.519 362.584 392.549 363.144C392.551 363.463 392.582 363.781 392.639 364.094C392.639 364.094 390.549 365.644 388.499 367.444C387.499 368.334 386.449 369.274 385.689 370.004L384.789 370.944ZM412.789 358.094C412.789 358.094 412.859 356.864 412.949 355.024C412.977 354.531 413.037 354.04 413.129 353.554C413.209 353.034 413.299 352.484 413.379 351.914C413.429 351.634 413.449 351.334 413.519 351.044C413.589 350.754 413.669 350.474 413.749 350.184L414.199 348.414C414.354 347.825 414.548 347.247 414.779 346.684C414.989 346.114 415.189 345.554 415.379 345.014C415.829 343.964 416.379 343.014 416.719 342.174C416.893 341.795 417.097 341.431 417.329 341.084L417.829 340.254L418.269 339.534C418.269 339.534 418.419 339.274 418.709 338.814L420.039 337.044C420.669 336.203 421.353 335.405 422.089 334.654C422.895 333.764 423.76 332.928 424.679 332.154C424.899 331.944 425.119 331.734 425.359 331.534L426.089 330.994L427.509 329.934C427.947 329.594 428.412 329.29 428.899 329.024L430.169 328.254L430.729 327.914C430.909 327.804 431.099 327.734 431.259 327.654L432.129 327.234L432.889 326.864L433.649 326.494C434.139 326.284 434.869 326.054 435.729 325.724C436.159 325.574 436.619 325.374 437.129 325.234L438.729 324.824C439.289 324.694 439.849 324.504 440.449 324.404L442.259 324.134L443.159 323.984C443.459 323.929 443.763 323.899 444.069 323.894L445.839 323.814C446.39 323.76 446.945 323.74 447.499 323.754L448.989 323.834C449.728 323.84 450.467 323.896 451.199 324.004L452.039 324.134L452.869 324.254C453.603 324.342 454.328 324.489 455.039 324.694C457.261 325.185 459.426 325.905 461.499 326.844C462.599 327.328 463.664 327.886 464.689 328.514C465.6 329.028 466.475 329.603 467.309 330.234L469.099 331.564L469.719 332.134L470.339 332.704L471.059 333.354L471.499 333.744C471.649 333.894 471.789 334.064 471.949 334.234L472.949 335.334C473.336 335.73 473.697 336.15 474.029 336.594L475.089 338.014C475.459 338.489 475.793 338.99 476.089 339.514C476.743 340.52 477.334 341.565 477.859 342.644C478.352 343.568 478.783 344.523 479.149 345.504C479.469 346.364 479.729 347.084 479.919 347.584C479.991 347.78 480.051 347.98 480.099 348.184V348.394L480.309 349.204C480.429 349.734 480.659 350.464 480.839 351.364C481.019 352.264 481.139 353.364 481.319 354.464C481.499 355.564 481.439 356.844 481.509 358.074C481.579 359.304 481.379 360.524 481.319 361.674C481.259 362.824 480.979 363.874 480.839 364.774C480.699 365.674 480.429 366.404 480.309 366.934L480.099 367.744V367.964C480.051 368.164 479.991 368.361 479.919 368.554C479.729 369.054 479.469 369.774 479.149 370.634C478.783 371.615 478.352 372.57 477.859 373.494C477.334 374.573 476.743 375.618 476.089 376.624C475.795 377.15 475.461 377.651 475.089 378.124C474.729 378.614 474.369 379.124 474.029 379.554C473.68 380.008 473.302 380.438 472.899 380.844L471.899 381.944C471.739 382.114 471.599 382.284 471.449 382.434L471.009 382.834L470.289 383.484L469.669 384.044L469.049 384.624L467.259 385.944C466.427 386.579 465.552 387.154 464.639 387.664C463.614 388.292 462.549 388.85 461.449 389.334C459.407 390.271 457.276 391.002 455.089 391.514C454.377 391.711 453.652 391.855 452.919 391.944L452.089 392.064L451.249 392.194C450.517 392.302 449.778 392.359 449.039 392.364L447.549 392.444C446.995 392.457 446.441 392.44 445.889 392.394L444.119 392.304C443.813 392.304 443.508 392.274 443.209 392.214L442.309 392.064L440.499 391.794C439.899 391.694 439.339 391.504 438.779 391.374L437.179 390.964C436.669 390.824 436.179 390.624 435.779 390.474C434.919 390.144 434.189 389.914 433.699 389.704L432.939 389.334L432.179 388.964L431.309 388.554C431.149 388.464 430.959 388.394 430.779 388.294L430.219 387.944L428.949 387.174C428.464 386.908 427.999 386.608 427.559 386.274L426.139 385.204L425.409 384.664C425.169 384.474 424.949 384.254 424.729 384.044C423.81 383.27 422.945 382.434 422.139 381.544C421.401 380.796 420.716 379.997 420.089 379.154L418.759 377.384C418.469 376.934 418.319 376.664 418.319 376.664L417.879 375.944L417.379 375.114C417.147 374.767 416.943 374.403 416.769 374.024C416.389 373.184 415.879 372.244 415.429 371.184C415.239 370.644 415.039 370.084 414.829 369.514C414.598 368.951 414.404 368.373 414.249 367.784L413.799 366.014C413.719 365.724 413.649 365.434 413.569 365.154C413.489 364.874 413.479 364.574 413.429 364.284C413.349 363.724 413.259 363.174 413.179 362.654C413.088 362.165 413.028 361.671 412.999 361.174C412.909 359.314 412.839 358.094 412.839 358.094H412.789Z" fill="url(#paint26_linear_2002_982)"/>
<path d="M447.03 316.554C438.814 316.554 430.783 318.99 423.952 323.555C417.121 328.119 411.796 334.607 408.652 342.198C405.508 349.788 404.686 358.14 406.288 366.198C407.891 374.256 411.848 381.658 417.657 387.467C423.467 393.277 430.868 397.233 438.926 398.836C446.984 400.439 455.337 399.616 462.927 396.472C470.517 393.328 477.005 388.004 481.57 381.173C486.134 374.341 488.57 366.31 488.57 358.094C488.57 347.077 484.194 336.511 476.403 328.721C468.613 320.931 458.047 316.554 447.03 316.554ZM479.14 345.554C479.46 346.414 479.72 347.134 479.91 347.634C479.983 347.83 480.043 348.031 480.09 348.234V348.444L480.3 349.254C480.42 349.784 480.65 350.514 480.83 351.414C481.01 352.314 481.13 353.414 481.31 354.514C481.49 355.614 481.43 356.894 481.5 358.124C481.57 359.354 481.37 360.574 481.31 361.724C481.25 362.874 480.97 363.924 480.83 364.824C480.69 365.724 480.42 366.454 480.3 366.984L480.09 367.794V368.014C480.043 368.214 479.983 368.412 479.91 368.604C479.72 369.104 479.46 369.824 479.14 370.684C478.774 371.663 478.346 372.619 477.86 373.544C477.328 374.621 476.734 375.666 476.08 376.674C475.787 377.2 475.453 377.701 475.08 378.174C474.72 378.664 474.36 379.174 474.02 379.604C473.673 380.04 473.299 380.454 472.9 380.844L471.9 381.944C471.74 382.114 471.6 382.284 471.45 382.434L471.01 382.834L470.29 383.484L469.67 384.044L469.05 384.624L467.26 385.944C466.429 386.579 465.553 387.154 464.64 387.664C463.616 388.292 462.55 388.85 461.45 389.334C459.408 390.271 457.278 391.002 455.09 391.514C454.379 391.711 453.653 391.855 452.92 391.944L452.09 392.064L451.25 392.194C450.518 392.302 449.78 392.359 449.04 392.364L447.55 392.444C446.996 392.457 446.442 392.44 445.89 392.394L444.12 392.304C443.815 392.304 443.51 392.274 443.21 392.214L442.31 392.064L440.5 391.794C439.9 391.694 439.34 391.504 438.78 391.374L437.18 390.964C436.67 390.824 436.18 390.624 435.78 390.474C434.92 390.144 434.19 389.914 433.7 389.704L432.94 389.334L432.18 388.964L431.31 388.554C431.15 388.464 430.96 388.394 430.78 388.294L430.22 387.944L428.95 387.174C428.466 386.909 428.001 386.608 427.56 386.274L426.14 385.204L425.41 384.664C425.17 384.474 424.95 384.254 424.73 384.044C423.812 383.27 422.947 382.435 422.14 381.544C421.402 380.796 420.717 379.997 420.09 379.154L418.76 377.384C418.47 376.934 418.32 376.664 418.32 376.664L417.88 375.944L417.38 375.114C417.148 374.768 416.944 374.403 416.77 374.024C416.39 373.184 415.88 372.244 415.43 371.184C415.24 370.644 415.04 370.084 414.83 369.514C414.599 368.951 414.406 368.373 414.25 367.784L413.8 366.014C413.72 365.724 413.65 365.434 413.57 365.154C413.49 364.874 413.48 364.574 413.43 364.284C413.35 363.724 413.26 363.174 413.18 362.654C413.089 362.165 413.029 361.671 413 361.174C412.91 359.334 412.84 358.114 412.84 358.114C412.84 358.114 412.91 356.884 413 355.044C413.029 354.551 413.089 354.06 413.18 353.574C413.26 353.054 413.35 352.504 413.43 351.934C413.48 351.654 413.5 351.354 413.57 351.064C413.64 350.774 413.72 350.494 413.8 350.204L414.25 348.434C414.406 347.846 414.599 347.268 414.83 346.704C415.04 346.134 415.24 345.574 415.43 345.034C415.88 343.984 416.43 343.034 416.77 342.194C416.944 341.815 417.148 341.451 417.38 341.104L417.88 340.274L418.32 339.554C418.32 339.554 418.47 339.294 418.76 338.834L420.09 337.064C420.72 336.223 421.405 335.425 422.14 334.674C422.947 333.784 423.812 332.949 424.73 332.174C424.95 331.964 425.17 331.754 425.41 331.554L426.14 331.014L427.56 329.954C427.998 329.614 428.463 329.31 428.95 329.044L430.22 328.274L430.78 327.934C430.96 327.824 431.15 327.754 431.31 327.674L432.18 327.254L432.94 326.884L433.7 326.514C434.19 326.304 434.92 326.074 435.78 325.744C436.21 325.594 436.67 325.394 437.18 325.254L438.78 324.844C439.34 324.714 439.9 324.524 440.5 324.424L442.31 324.154L443.21 324.004C443.511 323.949 443.815 323.919 444.12 323.914L445.89 323.834C446.442 323.78 446.996 323.76 447.55 323.774L449.04 323.854C449.78 323.86 450.518 323.917 451.25 324.024L452.09 324.154L452.92 324.274C453.654 324.363 454.38 324.51 455.09 324.714C457.294 325.202 459.442 325.916 461.5 326.844C462.6 327.328 463.666 327.886 464.69 328.514C465.601 329.028 466.476 329.603 467.31 330.234L469.1 331.564L469.72 332.134L470.34 332.704L471.06 333.354L471.5 333.744C471.65 333.894 471.79 334.064 471.95 334.234L472.95 335.334C473.338 335.73 473.699 336.151 474.03 336.594L475.09 338.014C475.46 338.489 475.795 338.99 476.09 339.514C476.744 340.522 477.338 341.567 477.87 342.644C478.354 343.577 478.778 344.538 479.14 345.524V345.554Z" fill="url(#paint27_linear_2002_982)"/>
<path d="M520.229 279.394H588.459" stroke="white" stroke-width="4" stroke-linecap="round" stroke-linejoin="round"/>
<path d="M341.84 422.024H385.84" stroke="white" stroke-width="4" stroke-linecap="round" stroke-linejoin="round"/>
<path d="M285.879 53.3843H349.169" stroke="white" stroke-width="4" stroke-linecap="round" stroke-linejoin="round"/>
<path d="M16.4199 313.744H90.6699" stroke="white" stroke-width="4" stroke-linecap="round" stroke-linejoin="round"/>
<path d="M63.8398 326.194H127.05" stroke="white" stroke-width="4" stroke-linecap="round" stroke-linejoin="round"/>
<path d="M21.4199 88.7339H117.43" stroke="white" stroke-width="4" stroke-linecap="round" stroke-linejoin="round"/>
<path d="M60.7988 99.0039H143.829" stroke="white" stroke-width="4" stroke-linecap="round" stroke-linejoin="round"/>
<defs>
<linearGradient id="paint0_linear_2002_982" x1="389.119" y1="246.113" x2="532.214" y2="262.012" gradientUnits="userSpaceOnUse">
<stop stop-color="#C4C4C4"/>
<stop offset="1" stop-color="#3E3E3E"/>
</linearGradient>
<linearGradient id="paint1_linear_2002_982" x1="388.562" y1="239.847" x2="531.261" y2="255.703" gradientUnits="userSpaceOnUse">
<stop stop-color="#3E3E3E"/>
<stop offset="1" stop-color="#C4C4C4"/>
</linearGradient>
<linearGradient id="paint2_linear_2002_982" x1="93.2097" y1="274.796" x2="153.218" y2="143.302" gradientUnits="userSpaceOnUse">
<stop stop-color="#3E3E3E"/>
<stop offset="1" stop-color="#AAAAAA"/>
</linearGradient>
<linearGradient id="paint3_linear_2002_982" x1="186.648" y1="377.274" x2="69.4884" y2="128.424" gradientUnits="userSpaceOnUse">
<stop stop-color="#3E3E3E"/>
<stop offset="1" stop-color="#C4C4C4"/>
</linearGradient>
<linearGradient id="paint4_linear_2002_982" x1="432.08" y1="184.284" x2="514.5" y2="184.284" gradientUnits="userSpaceOnUse">
<stop stop-color="#BC2C22"/>
<stop offset="1" stop-color="#D73829"/>
</linearGradient>
<linearGradient id="paint5_linear_2002_982" x1="419.239" y1="184.034" x2="499.339" y2="184.034" gradientUnits="userSpaceOnUse">
<stop stop-color="#EA3E2A"/>
<stop offset="1" stop-color="#BB4040"/>
</linearGradient>
<linearGradient id="paint6_linear_2002_982" x1="23.609" y1="255.616" x2="150.029" y2="223.033" gradientUnits="userSpaceOnUse">
<stop stop-color="#D73A27"/>
<stop offset="1" stop-color="#A01E1E"/>
</linearGradient>
<linearGradient id="paint7_linear_2002_982" x1="23.1603" y1="256.642" x2="135.195" y2="227.767" gradientUnits="userSpaceOnUse">
<stop stop-color="#EA3E2A"/>
<stop offset="1" stop-color="#9F2929"/>
</linearGradient>
<linearGradient id="paint8_linear_2002_982" x1="237.479" y1="358.094" x2="337.519" y2="358.094" gradientUnits="userSpaceOnUse">
<stop stop-color="white"/>
<stop offset="1" stop-color="#CCD1EC"/>
</linearGradient>
<linearGradient id="paint9_linear_2002_982" x1="230.83" y1="389.034" x2="344.17" y2="389.034" gradientUnits="userSpaceOnUse">
<stop stop-color="#CCD1EC"/>
<stop offset="1" stop-color="white"/>
</linearGradient>
<linearGradient id="paint10_linear_2002_982" x1="111.4" y1="337.324" x2="462.07" y2="162.624" gradientUnits="userSpaceOnUse">
<stop/>
<stop offset="1" stop-color="#3E3E3E"/>
</linearGradient>
<linearGradient id="paint11_linear_2002_982" x1="140.098" y1="247.264" x2="466.158" y2="247.264" gradientUnits="userSpaceOnUse">
<stop stop-color="#D8F4FD"/>
<stop offset="1" stop-color="white"/>
</linearGradient>
<linearGradient id="paint12_linear_2002_982" x1="207.709" y1="187.154" x2="207.709" y2="0.844109" gradientUnits="userSpaceOnUse">
<stop stop-color="#CCD1EC"/>
<stop offset="1" stop-color="white"/>
</linearGradient>
<linearGradient id="paint13_linear_2002_982" x1="68.1284" y1="404.954" x2="213.388" y2="404.954" gradientUnits="userSpaceOnUse">
<stop stop-color="#CCD1EC"/>
<stop offset="1" stop-color="white"/>
</linearGradient>
<linearGradient id="paint14_linear_2002_982" x1="318.509" y1="252.884" x2="318.509" y2="217.764" gradientUnits="userSpaceOnUse">
<stop stop-color="#C5CAE9"/>
<stop offset="1" stop-color="#E8EAF6"/>
</linearGradient>
<linearGradient id="paint15_linear_2002_982" x1="330.689" y1="252.884" x2="330.689" y2="231.694" gradientUnits="userSpaceOnUse">
<stop stop-color="#C5CAE9"/>
<stop offset="1" stop-color="#E8EAF6"/>
</linearGradient>
<linearGradient id="paint16_linear_2002_982" x1="342.859" y1="252.884" x2="342.859" y2="225.484" gradientUnits="userSpaceOnUse">
<stop stop-color="#C5CAE9"/>
<stop offset="1" stop-color="#E8EAF6"/>
</linearGradient>
<linearGradient id="paint17_linear_2002_982" x1="365.72" y1="253.874" x2="365.72" y2="217.004" gradientUnits="userSpaceOnUse">
<stop stop-color="#A92B28"/>
<stop offset="1" stop-color="#E53C2A"/>
</linearGradient>
<linearGradient id="paint18_linear_2002_982" x1="377.89" y1="253.874" x2="377.89" y2="217.004" gradientUnits="userSpaceOnUse">
<stop stop-color="#A72B28"/>
<stop offset="1" stop-color="#E33C2A"/>
</linearGradient>
<linearGradient id="paint19_linear_2002_982" x1="390.07" y1="253.874" x2="390.07" y2="217.004" gradientUnits="userSpaceOnUse">
<stop stop-color="#AA2B28"/>
<stop offset="1" stop-color="#E23C29"/>
</linearGradient>
<linearGradient id="paint20_linear_2002_982" x1="346.309" y1="181.284" x2="396.119" y2="181.284" gradientUnits="userSpaceOnUse">
<stop stop-color="#C5CAE9"/>
<stop offset="1" stop-color="#E8EAF6"/>
</linearGradient>
<linearGradient id="paint21_linear_2002_982" x1="346.309" y1="188.824" x2="447.439" y2="188.824" gradientUnits="userSpaceOnUse">
<stop stop-color="#C5CAE9"/>
<stop offset="1" stop-color="#E8EAF6"/>
</linearGradient>
<linearGradient id="paint22_linear_2002_982" x1="346.309" y1="196.354" x2="447.439" y2="196.354" gradientUnits="userSpaceOnUse">
<stop stop-color="#C5CAE9"/>
<stop offset="1" stop-color="#E8EAF6"/>
</linearGradient>
<linearGradient id="paint23_linear_2002_982" x1="314.449" y1="197.724" x2="332.269" y2="179.914" gradientUnits="userSpaceOnUse">
<stop stop-color="#E13B29"/>
<stop offset="1" stop-color="#A72A28"/>
</linearGradient>
<linearGradient id="paint24_linear_2002_982" x1="336.509" y1="321.384" x2="336.509" y2="271.514" gradientUnits="userSpaceOnUse">
<stop stop-color="#C5CAE9"/>
<stop offset="1" stop-color="#E8EAF6"/>
</linearGradient>
<linearGradient id="paint25_linear_2002_982" x1="126.16" y1="255.154" x2="289.26" y2="255.154" gradientUnits="userSpaceOnUse">
<stop stop-color="#7E7E7F"/>
<stop offset="1" stop-color="white"/>
</linearGradient>
<linearGradient id="paint26_linear_2002_982" x1="401.639" y1="403.184" x2="491.839" y2="312.994" gradientUnits="userSpaceOnUse">
<stop stop-color="#9F2929"/>
<stop offset="1" stop-color="#EA3E2A"/>
</linearGradient>
<linearGradient id="paint27_linear_2002_982" x1="417.67" y1="387.454" x2="476.4" y2="328.724" gradientUnits="userSpaceOnUse">
<stop stop-color="#9F2929"/>
<stop offset="1" stop-color="#A01E1E"/>
</linearGradient>
</defs>
</svg>
