<svg width="2864" height="1585" viewBox="0 0 2864 1585" fill="none" xmlns="http://www.w3.org/2000/svg">
<path d="M2415.14 1578.67C2415.14 1578.67 2731.25 1609.41 2825.92 1420.57C2963.54 1146.06 2690.22 930.35 2487.46 969.74C2045.62 1055.57 2152 108.73 1442.92 302C1243.54 356.34 704.82 33.56 554.58 551.11C518.85 674.15 392.27 687.7 208.51 765.79C-151.12 918.63 13.3196 1581.25 270.29 1583.85C527.26 1586.45 2415.14 1578.67 2415.14 1578.67Z" fill="#D5D5D5"/>
<path d="M1436.57 552.12L1404.86 551.4C1415.05 564.6 1417.33 576.77 1410.99 587.06C1404.65 597.56 1389.47 606.19 1366.8 612.74C1394.28 539.176 1400.01 459.256 1383.31 382.523C1366.61 305.789 1328.17 235.484 1272.6 180C1214.94 122.413 1141.43 83.3023 1061.46 67.6545C981.478 52.0068 898.653 60.5309 823.539 92.14C817.539 94.74 811.479 97.45 805.659 100.25H805.599C787.999 94.9 770.829 90.5 754.279 87.14C670.709 70.14 611.409 81.91 587.329 120.14C564.399 156.5 576.879 211.25 622.329 275.14C616.199 286.47 610.689 298.14 605.589 310.14C601.739 319.14 598.309 328.23 595.189 337.48C509.729 342.58 463.979 357.62 447.339 384.86C427.999 416.61 454.429 459.17 538.999 500.55C550.649 506.27 563.129 511.89 576.229 517.5C580.59 555.89 590.486 593.446 605.609 629C636.815 702.852 689.004 765.924 755.711 810.4C822.417 854.877 900.707 878.802 980.88 879.212C1061.05 879.622 1139.58 856.498 1206.74 812.706C1273.9 768.914 1326.73 706.379 1358.69 632.85C1400.39 624.22 1427.84 610.7 1438.75 592.85C1446.34 580.4 1445.41 566.68 1436.57 552.12ZM1338.73 619.19C1310.97 624.19 1276.35 627.09 1235.9 627.5C1173.14 628.27 1101.06 623.31 1025.1 613.3C1031.49 599.387 1037.75 585.11 1043.87 570.47C1066.23 578.025 1089.02 584.213 1112.13 589C1137.13 594.07 1159.94 596.57 1180.29 596.57C1228.01 596.57 1262.2 582.8 1279.09 556C1281.86 551.599 1284.14 546.904 1285.88 542H1261.55C1261.15 542.74 1260.72 543.48 1260.27 544.19C1247.73 564.1 1219.7 574.38 1180.35 574.37C1161.53 574.37 1140.1 572.02 1116.55 567.24C1094.81 562.737 1073.35 556.936 1052.3 549.87C1058.16 535.203 1063.83 520.283 1069.3 505.11C1084.13 464.23 1096.83 423.7 1107.09 384.78C1153.9 391.68 1204.03 395.133 1257.5 395.14C1290.73 395.14 1325.16 393.807 1360.78 391.14C1366.1 416.957 1368.78 443.25 1368.78 469.61C1368.88 520.979 1358.66 571.846 1338.73 619.19ZM831.929 822.19C820.099 817.9 814.089 800.92 811.139 787.43C806.469 766.11 805.619 736.17 808.689 700.84C810.249 682.97 812.749 663.98 816.109 644.1C864.997 657.169 912.88 673.738 959.389 693.68C948.849 711.84 938.199 728.68 927.549 743.95C907.259 773.03 887.419 795.47 870.169 808.84C859.249 817.33 843.759 826.51 831.929 822.22V822.19ZM970.099 674.7C921.417 653.689 871.247 636.308 819.999 622.7C821.799 613.48 823.763 604.1 825.889 594.56C840.029 597.78 854.363 600.887 868.889 603.88C911.359 612.57 953.729 619.94 995.199 625.88C986.979 642.913 978.613 659.187 970.099 674.7ZM878.229 588.51C861.816 585.137 845.659 581.617 829.759 577.95C837.239 546.81 846.429 514.36 857.159 481.29C912.939 515.57 969.659 543.46 1023.37 563.29C1016.63 579.37 1009.71 595.06 1002.64 610.29C961.849 604.36 920.109 597.1 878.229 588.51V588.51ZM741.999 168.27C746.494 177.406 751.529 186.265 757.079 194.8C785.279 238.38 822.519 269.97 848.799 288.8C864.234 299.807 880.35 309.827 897.049 318.8C881.479 352.74 866.639 388.97 853.049 426.58C850.503 433.6 848.023 440.6 845.609 447.58C764.129 394.58 695.139 333.68 649.889 274.78C661.214 255.432 674.196 237.103 688.689 220C694.689 212.93 700.959 206.07 707.509 199.41L710.209 196.71C720.279 186.657 730.891 177.162 741.999 168.27ZM1090.42 109.49C1102.26 113.78 1108.26 130.76 1111.22 144.25C1115.89 165.57 1116.73 195.51 1113.66 230.85C1110.29 269.52 1102.55 313.44 1091.02 360.21C1077.11 357.823 1063.52 355.107 1050.27 352.06C1004.53 341.55 962.829 327.16 925.589 309.06C947.809 262.72 971.309 221.39 994.799 187.72C1015.09 158.63 1034.93 136.19 1052.18 122.82C1061.18 115.82 1073.3 108.38 1083.9 108.38C1086.12 108.366 1088.33 108.742 1090.42 109.49V109.49ZM1043.92 372.87C1057.48 376.01 1071.38 378.817 1085.63 381.29C1075.63 418.92 1063.31 458.12 1048.96 497.69C1043.42 512.95 1037.7 527.95 1031.8 542.69C977.879 522.89 920.649 494.57 864.389 459.6C867.296 451.1 870.296 442.573 873.389 434.02C886.719 397.25 901.199 361.86 916.389 328.72C954.629 347.26 997.269 362 1043.92 372.87ZM1255.76 196.74C1303.76 244.584 1338.26 304.267 1355.76 369.74C1266.84 376.25 1185.35 374.21 1112.51 363.66C1124.07 316.44 1131.85 272.01 1135.26 232.77C1139.03 189.43 1138.57 138.1 1121 109.22C1125.08 110.78 1129.13 112.413 1133.16 114.12C1179 133.436 1220.65 161.499 1255.76 196.74V196.74ZM982.999 83.72C1009.44 83.6852 1035.81 86.3659 1061.7 91.72C1031.4 104.91 1000.45 141.63 976.959 175.29C952.959 209.75 928.959 251.92 906.249 299.13C891.277 291.022 876.802 282.03 862.899 272.2C798.419 226.46 770.009 177.13 759.679 154.85C775.509 143.589 792.166 133.541 809.509 124.79V124.79C816.589 121.21 823.799 117.857 831.139 114.73L832.729 114.04L833.109 113.88C834.669 113.213 836.236 112.57 837.809 111.95L839.079 111.44C884.822 93.0263 933.689 83.6141 982.999 83.72V83.72ZM606.139 132C618.679 112.09 646.709 101.82 686.059 101.82C704.889 101.82 726.309 104.17 749.859 108.95C758.799 110.76 767.939 112.89 777.219 115.34C746.545 133.109 718.352 154.85 693.369 180C688.059 185.2 682.969 190.61 677.979 196.22C671.739 203.08 665.809 210.22 660.089 217.54C650.991 229.171 642.522 241.282 634.719 253.82V253.82C599.929 202.22 589.479 158.44 606.139 132ZM627.449 319.43C630.879 311.53 634.449 303.73 638.259 296.14C685.909 355.7 756.149 416.59 838.259 469.4C826.589 504.8 816.659 539.6 808.649 573C748.939 558.56 693.649 542.21 645.119 524.71C634.929 521.08 625.059 517.33 615.589 513.59C609.979 511.4 604.469 509.12 599.059 506.83C598.229 498.51 597.609 490.09 597.399 481.67C597.289 477.61 597.189 473.67 597.189 469.61C597.189 464.93 597.289 460.15 597.399 455.47C598.708 420.732 604.651 386.325 615.069 353.16C616.839 347.54 618.709 342.03 620.789 336.52C622.869 330.76 625.059 325 627.449 319.43V319.43ZM557.889 488.28C484.169 452.28 450.479 417.58 465.559 392.94C477.719 372.94 522.019 359.46 589.809 354.47C581.499 382.656 576.337 411.677 574.419 441C573.799 449.73 573.479 458.46 573.419 467.3V469.59C573.419 478.43 573.729 487.26 574.249 496C568.599 493.48 563.189 490.88 557.889 488.28ZM613.829 532.47C623.829 536.22 633.999 539.96 644.499 543.6C692.769 560.32 746.889 575.87 804.769 589.67C802.669 599.037 800.729 608.277 798.949 617.39C794.219 616.24 789.479 615.11 784.749 614.04C704.749 595.82 644.669 592.12 616.839 591.49C609.939 570.738 604.86 549.424 601.659 527.79L613.829 532.47ZM627.449 619.71C626.576 617.637 625.726 615.567 624.899 613.5C654.589 614.69 709.629 619.19 779.899 635.19C784.933 636.337 789.963 637.527 794.989 638.76C791.369 659.87 788.699 680.04 787.049 698.99C783.929 734.9 783.699 776.29 793.709 805.86C719.29 763.827 660.842 698.386 627.449 619.71V619.71ZM1133.17 825.05C1048.42 860.749 953.725 865.113 866.049 837.36C894.589 822.36 923.259 788.05 945.349 756.36C956.739 740.04 968.119 721.97 979.349 702.46C1044.59 732.069 1106.75 768.036 1164.93 809.84C1154.62 815.38 1144.03 820.45 1133.17 825.05V825.05ZM1255.76 742.4C1234.61 763.613 1211.04 782.273 1185.55 798C1124.43 753.279 1058.91 714.914 989.999 683.5C999.399 666.27 1008.68 648.06 1017.73 629.05C1080.36 637.35 1140.58 642.33 1195.55 643.62C1209.9 644.04 1223.83 644.04 1237.35 643.93C1272.35 643.52 1303.58 641.44 1330.35 637.69C1311.56 676.544 1286.34 711.945 1255.76 742.4V742.4Z" fill="#C4C4C4"/>
<path d="M2263.77 1472.71C2255.03 1438.83 2195.97 1465.07 2147.33 1493.51C2145.06 1489.92 2142.73 1486.37 2140.33 1482.86C2175.15 1461.26 2224.05 1425.34 2205.44 1403.47C2187.06 1381.88 2151.12 1430.78 2128.65 1466.84C2068.44 1388.7 1979.15 1333.08 1979.15 1333.08C1979.15 1333.08 2351.76 1023.48 2073.33 860.16C1794.9 696.84 1583.33 1271.52 1583.33 1271.52C1583.33 1271.52 1393.07 1095.34 1211.41 1160.41C1024.85 1227.23 1141.41 1351.07 979.41 1384.56C960.33 1311.56 925.08 1208.56 876.86 1202.48C813.18 1194.48 839.98 1274.2 936.73 1390.62C917.98 1392.31 896.61 1393.17 872.2 1393.09C612.35 1392.32 679 1579.42 679 1579.42L2181.39 1582.88C2179.39 1564.47 2174 1546.37 2166.29 1528.88C2217.78 1520.75 2272 1504.62 2263.77 1472.71Z" fill="#3E3E3E"/>
<path d="M1486.44 753.75L1420.92 1532.75C1420.92 1532.75 1414.06 1579.98 1449.18 1580.06C1506.94 1580.2 1736.65 1580.06 1736.65 1580.06C1736.65 1580.06 1693.18 1570.23 1693.65 1548.11C1694.27 1522.04 1770.23 746.36 1770.23 746.36L1486.44 753.75Z" fill="#A93022"/>
<path d="M1755.28 1566C1743.92 1566 1524.52 1566.72 1468.28 1566C1443.77 1565.69 1439.47 1544.2 1439.28 1530.29C1439.21 1526.41 1439.45 1522.54 1440.02 1518.7L1441.73 1498.45L1446.07 1446.84L1449.9 1401.25L1454.83 1342.66L1458.99 1293.21L1505.54 739.66L1789.38 732.29C1789.38 732.29 1757.38 1056.91 1734.76 1293.21C1732.24 1319.54 1729.83 1344.78 1727.61 1368.35C1726.89 1375.87 1726.19 1383.2 1725.52 1390.35C1723.43 1412.7 1721.52 1433.23 1719.84 1451.35C1718.96 1460.9 1718.15 1469.78 1717.41 1477.92C1714.53 1509.78 1712.83 1530.13 1712.81 1534C1712.79 1536.12 1712.97 1538.23 1713.36 1540.31C1718 1565.13 1751 1566 1755.28 1566Z" fill="#EA3E2A"/>
<path d="M797.119 329.83L956.709 970.87L978.559 1058.67L1052.89 1357.24H2433.81L2159.84 329.83H797.119Z" fill="#FF8578"/>
<path d="M797.11 329.83L775 337.2L1023.48 1379.55L1052.89 1357.25L797.11 329.83Z" fill="#EA3E2A"/>
<path d="M1023.48 1379.55H2395.91L2433.8 1357.25H1052.89L1023.48 1379.55Z" fill="#A93022"/>
<path d="M1802.59 1566.26H1505.44V1580.38H1802.59V1566.26Z" fill="#FF8578"/>
<path d="M1727.05 1379.54L1725.51 1390.34L1446.06 1446.79L1449.89 1401.2L1451.72 1379.54H1727.05Z" fill="#A93022"/>
<path opacity="0.4" d="M1755.28 1566C1743.92 1566 1524.52 1566.72 1468.28 1566C1443.77 1565.69 1439.47 1544.2 1439.28 1530.29L1717.41 1477.97C1714.53 1509.83 1712.83 1530.18 1712.81 1534.05C1712.79 1536.17 1712.97 1538.28 1713.36 1540.36C1718 1565.13 1751 1566 1755.28 1566Z" fill="#A93022"/>
<path opacity="0.4" d="M1659.51 1149.26L1052.89 1357.25L978.56 1058.67L1659.51 1149.26Z" fill="#A93022"/>
<path d="M797.109 329.83H2159.84L2380.95 1155.55H1002.67L797.109 329.83Z" fill="#555657"/>
<path d="M1780 1259.93C1776.06 1239.68 1756.45 1223.26 1736.2 1223.26C1715.95 1223.26 1702.73 1239.68 1706.66 1259.93C1710.59 1280.18 1730.21 1296.6 1750.46 1296.6C1770.71 1296.6 1783.89 1280.18 1780 1259.93Z" fill="#A93022"/>
<path d="M2316.68 1119.77H1040.75L896.25 544.14L885.18 500L875.72 462.35L853.56 374.06H2111.1L2135.43 462.35L2145.82 500L2157.98 544.14L2316.68 1119.77Z" fill="#E9F3FE"/>
<path d="M2135.43 462.35H875.72L853.56 374.06H2111.1L2135.43 462.35Z" fill="#D1D1D1"/>
<path d="M913.869 402.92C907.769 402.92 904.069 407.86 905.589 413.92C907.109 419.98 913.279 424.92 919.369 424.92C925.459 424.92 929.179 419.97 927.659 413.92C926.139 407.87 919.999 402.92 913.869 402.92Z" fill="#E9F3FE"/>
<path d="M950.54 402.92C944.45 402.92 940.74 407.86 942.26 413.92C943.78 419.98 949.95 424.92 956.04 424.92C962.13 424.92 965.85 419.97 964.33 413.92C962.81 407.87 956.64 402.92 950.54 402.92Z" fill="#E9F3FE"/>
<path d="M1003.82 414C1002.3 407.9 996.119 403 990.029 403C983.939 403 980.219 407.94 981.739 414C983.259 420.06 989.439 425 995.529 425C1001.62 425 1005.34 420.05 1003.82 414Z" fill="#E9F3FE"/>
<path d="M369.68 547.09C369.68 547.09 373.58 534.81 367.46 523.75C361.34 512.69 371.23 505.02 368.73 501.68C366.23 498.34 349.93 498.68 344.37 514.74C338.81 530.8 348.21 548.9 348.21 548.9L369.68 547.09Z" fill="#FCA56B"/>
<path d="M301.289 635.43C303.99 636.241 306.834 636.461 309.627 636.076C312.421 635.69 315.098 634.708 317.479 633.196C319.859 631.684 321.886 629.677 323.421 627.312C324.957 624.947 325.966 622.279 326.379 619.49L342.609 548.9C342.609 548.9 345.989 543.43 357.689 543.9C370.429 544.42 373.879 550.73 373.879 550.73C373.879 550.73 381.749 675 344.999 692.56C308.249 710.12 266.509 625.06 301.289 635.43Z" fill="#FF8578"/>
<path d="M377.57 1579.3H273.94C266.57 1572.63 264.14 1533.39 264.14 1533.39C264.14 1533.39 296.27 1504.39 306.77 1527.39C316.77 1549.16 344.33 1560.74 360.77 1563.61C375 1566 377.23 1576.45 377.57 1579.3Z" fill="#B2B2B2"/>
<path d="M252 1579.3H148.41C141.04 1572.63 138.6 1533.39 138.6 1533.39C138.6 1533.39 170.73 1504.39 181.23 1527.39C191.23 1549.16 218.79 1560.74 235.23 1563.61C249.45 1566 251.7 1576.45 252 1579.3Z" fill="#B2B2B2"/>
<path d="M326.55 1036.79C326.55 1036.79 311.81 1131.07 256.82 1298.43C201.83 1465.79 194.34 1538.26 194.34 1538.26L135.34 1536.61C135.34 1536.61 134.83 1353.7 160.18 1269.54C185.53 1185.38 165.65 966.14 165.65 966.14L326.55 1036.79Z" fill="black"/>
<path d="M355.259 971.31C355.259 971.31 357.349 1113.38 332.769 1287.82C308.189 1462.26 316.519 1536.3 316.519 1536.3L257.649 1538.3C257.649 1538.3 222.459 1363.8 232.549 1276.49C242.639 1189.18 184.369 976.88 184.369 976.88L355.259 971.31Z" fill="black"/>
<path d="M241.29 638.84L269.06 659.41L309.19 651C308.63 647.34 305.98 632.17 303.57 618.43C303.43 617.62 303.28 616.81 303.14 616.02C301.08 604.33 299.29 594.29 299.29 594.29L261.81 575.61L247.81 568.61C247.81 568.86 248.89 581.61 249.04 583.44C251.69 616.43 241.29 638.84 241.29 638.84Z" fill="#FEB7B6"/>
<path d="M306.38 628.46C305.5 628.09 251.79 612.24 245.96 614.17C240.13 616.1 236.67 627.39 236.67 627.39L324.52 647.25C324.52 647.25 317.6 633.19 306.38 628.46Z" fill="#EA3E2A"/>
<path d="M161.75 988.85C170.85 1030.38 322.37 1035.3 361.43 997.6C365.87 993.31 366.09 973.31 364.43 946.36C361.16 893.69 350.63 814.47 350.22 773.99C350.02 754.44 347.34 734.45 343.76 716.3C339.126 692.823 332.7 669.735 324.54 647.24C324.54 647.24 250.54 623.32 236.69 627.39C170 647 152.65 947.31 161.75 988.85Z" fill="#EA3E2A"/>
<path d="M364.41 946.36C361.14 893.69 350.61 814.47 350.2 773.99C350 754.44 347.32 734.45 343.74 716.3L299.22 708.44C299.22 708.44 255.69 886.23 364.41 946.36Z" fill="#FF8578"/>
<path d="M251.88 584C260.11 599.75 290.78 613.37 303.57 618.37C303.43 617.56 303.28 616.75 303.14 615.96C301.08 604.27 299.29 594.23 299.29 594.23L261.81 575.55C253.53 575.44 248.48 577.53 251.88 584Z" fill="#FCA56B"/>
<path d="M317.51 592.05C317.51 592.05 249.89 613.15 237.4 570.84C224.91 528.53 207.77 502.75 250.4 487.49C293.03 472.23 306.24 485.89 313.84 499C321.44 512.11 334.78 585.48 317.51 592.05Z" fill="#FEB7B6"/>
<path d="M307.829 499.3C307.829 499.3 303.519 548.54 293.329 546.4C283.139 544.26 273.919 542.68 275.409 557.52C276.899 572.36 291.019 589.52 259.639 592.13C228.259 594.74 183.139 513.82 191.759 498.5C216.639 454.29 343.779 445.36 307.829 499.3Z" fill="#B2B2B2"/>
<path d="M402.93 488.73L337.42 506.23L339.42 533.23L406.21 532.77C411.5 532.37 415.05 522.19 414.13 510.02C413.21 497.85 408.22 488.33 402.93 488.73Z" fill="#C4C4C4"/>
<path d="M344.299 519.3C343.739 511.84 340.659 505.99 337.419 506.23C334.179 506.47 331.999 512.72 332.559 520.18C333.119 527.64 336.199 533.49 339.449 533.24C342.699 532.99 344.859 526.76 344.299 519.3Z" fill="#555657"/>
<path d="M368.59 518.41L348.33 518.79C347.69 523.05 348.79 524.88 348.79 524.88L368.99 526.23L368.59 518.41Z" fill="#555657"/>
<path d="M441.089 487.78L365.869 507.87L368.199 538.87L444.889 538.34C450.999 537.89 454.999 526.2 453.999 512.24C452.999 498.28 447.159 487.32 441.089 487.78Z" fill="#C4C4C4"/>
<path d="M373.779 522.87C373.129 514.31 369.589 507.59 365.869 507.87C362.149 508.15 359.649 515.32 360.289 523.87C360.929 532.42 364.479 539.15 368.199 538.87C371.919 538.59 374.419 531.43 373.779 522.87Z" fill="#555657"/>
<path d="M385.46 547C385.46 547 378.36 536.24 381.25 523.93C384.14 511.62 372.53 506.93 374.03 503.04C375.53 499.15 391.3 495.04 401.03 509.04C410.76 523.04 406.62 542.95 406.62 542.95L385.46 547Z" fill="#FEB7B6"/>
<path d="M292.999 650.19C292.999 650.19 332.279 643.03 368.569 643.56C371.389 643.608 374.186 643.048 376.77 641.918C379.354 640.788 381.665 639.115 383.544 637.012C385.424 634.91 386.829 632.427 387.663 629.733C388.497 627.039 388.742 624.197 388.379 621.4L382.049 550.4C382.049 550.4 386.589 542.86 397.979 540.14C410.379 537.14 414.359 543.87 414.359 543.87C414.359 543.87 456.759 659.78 426.119 686.66C395.479 713.54 279.399 730.41 279.399 730.41L292.999 650.19Z" fill="#EA3E2A"/>
<path d="M2789.42 168.56C2785.42 261.91 2763.67 376.17 2694.63 468.1C2692.09 471.48 2689.54 474.813 2686.98 478.1C2679.23 488.1 2671.36 497.823 2663.35 507.27C2659.04 512.329 2652.96 515.551 2646.35 516.28C2639.75 517.008 2633.11 515.188 2627.8 511.19L2321.36 281.08C2316.5 277.442 2313.21 272.086 2312.16 266.105C2311.12 260.124 2312.4 253.969 2315.74 248.9C2322.93 237.98 2330.46 227.116 2338.33 216.31C2340.79 212.92 2343.33 209.54 2345.83 206.17C2414.83 114.24 2518.55 61.5297 2607.07 31.6097C2646.32 18.4074 2686.51 8.13588 2727.28 0.879701C2732.2 -0.0107458 2737.22 -0.222717 2742.2 0.249701C2749.19 0.909745 2755.95 3.09803 2762 6.6597C2774.72 14.1797 2783.57 27.5997 2785.39 44.5497C2789.8 85.7297 2791.15 127.18 2789.42 168.56V168.56Z" fill="#EA3E2A"/>
<path d="M2338.12 216.59C2329.17 228.87 2320.67 241.203 2312.61 253.59C2310.09 257.488 2309.13 262.198 2309.95 266.77C2310.76 271.342 2313.28 275.434 2317 278.22L2631.21 514.22C2635.54 517.475 2640.96 518.955 2646.34 518.361C2651.73 517.767 2656.69 515.141 2660.21 511.02C2669.22 500.513 2678.08 489.647 2686.77 478.42L2338.12 216.59Z" fill="#A01E1E"/>
<path d="M2610.45 309.69C2593.21 309.634 2576.32 304.786 2561.67 295.686C2547.03 286.587 2535.2 273.596 2527.51 258.163C2519.82 242.729 2516.57 225.463 2518.13 208.291C2519.69 191.119 2525.99 174.718 2536.33 160.92V160.92C2545.51 148.697 2557.56 138.927 2571.41 132.474C2585.27 126.021 2600.5 123.085 2615.76 123.925C2631.03 124.766 2645.84 129.358 2658.91 137.294C2671.97 145.23 2682.87 156.266 2690.65 169.423C2698.43 182.58 2702.85 197.452 2703.5 212.723C2704.16 227.993 2701.04 243.19 2694.43 256.968C2687.81 270.745 2677.89 282.678 2665.56 291.709C2653.23 300.739 2638.86 306.589 2623.73 308.74C2619.33 309.369 2614.89 309.686 2610.45 309.69V309.69ZM2610.8 145.37C2599.71 145.371 2588.77 147.948 2578.84 152.897C2568.92 157.846 2560.28 165.033 2553.6 173.89V173.89C2543.97 186.734 2538.95 202.453 2539.36 218.502C2539.78 234.552 2545.59 249.993 2555.87 262.324C2566.15 274.656 2580.3 283.158 2596.01 286.452C2611.72 289.747 2628.09 287.642 2642.45 280.478C2656.82 273.314 2668.35 261.511 2675.18 246.979C2682 232.447 2683.72 216.037 2680.06 200.405C2676.4 184.773 2667.57 170.835 2655 160.847C2642.43 150.859 2626.85 145.406 2610.8 145.37V145.37Z" fill="#B74B42"/>
<path d="M2769.07 28.19C2768.33 20.5906 2765.94 13.2442 2762.07 6.66C2756 3.0886 2749.21 0.899971 2742.2 0.25L2742.35 1.47C2746.74 42.6478 2748.08 84.0946 2746.35 125.47C2742.35 218.81 2720.58 333.08 2651.54 425.01C2649.01 428.39 2646.46 431.723 2643.89 435.01C2642.19 437.21 2640.47 439.4 2638.75 441.58L2668.75 464.14L2670.64 461.73C2673.2 458.397 2675.75 455.063 2678.29 451.73C2747.29 359.8 2769.04 245.54 2773.09 152.19C2774.81 110.814 2773.47 69.3676 2769.07 28.19V28.19Z" fill="#FFC08D"/>
<path d="M2785.43 44.5498C2782.22 14.5498 2756.97 -4.40019 2727.28 0.879808C2686.51 8.1408 2646.33 18.4122 2607.07 31.6098L2789.42 168.61C2791.16 127.215 2789.83 85.7474 2785.43 44.5498V44.5498Z" fill="#A01E1E"/>
<path d="M2363.63 342.45C2333.75 322.6 2286.72 340.86 2258.58 383.22C2230.44 425.58 2261.73 495.86 2261.73 495.86C2261.73 495.86 2338.64 497.45 2366.78 455.09C2394.92 412.73 2393.51 362.29 2363.63 342.45Z" fill="#B74B42"/>
<path d="M2531.6 465.83C2501.72 445.98 2454.69 464.24 2426.6 506.6C2398.51 548.96 2429.75 619.24 2429.75 619.24C2429.75 619.24 2506.66 620.83 2534.8 578.47C2562.94 536.11 2561.48 485.67 2531.6 465.83Z" fill="#B74B42"/>
<path d="M2331.87 390C2311.24 376.3 2278.78 388.9 2259.36 418.14C2239.94 447.38 2261.54 495.88 2261.54 495.88C2261.54 495.88 2314.62 496.98 2334.05 467.74C2353.48 438.5 2352.49 403.64 2331.87 390Z" fill="#EA3E2A"/>
<path d="M2500.19 513.19C2479.57 499.49 2447.1 512.09 2427.68 541.33C2408.26 570.57 2429.86 619.07 2429.86 619.07C2429.86 619.07 2482.95 620.17 2502.37 590.93C2521.79 561.69 2520.81 526.88 2500.19 513.19Z" fill="#EA3E2A"/>
<path d="M2569 263L2665.36 246C2660.83 254.219 2654.52 261.318 2646.88 266.777C2639.25 272.236 2630.49 275.916 2621.25 277.547C2612 279.177 2602.51 278.717 2593.47 276.2C2584.43 273.682 2576.07 269.172 2569 263V263Z" fill="#FFE6D2"/>
<path d="M2673.08 213.52L2551.08 236.63C2548.02 228.079 2546.85 218.968 2547.66 209.923C2548.46 200.878 2551.21 192.114 2555.72 184.234C2560.23 176.354 2566.4 169.546 2573.8 164.277C2581.19 159.009 2589.64 155.406 2598.56 153.716C2607.48 152.026 2616.67 152.289 2625.48 154.488C2634.29 156.686 2642.52 160.768 2649.6 166.451C2656.68 172.135 2662.45 179.285 2666.5 187.411C2670.55 195.536 2672.8 204.443 2673.08 213.52V213.52Z" fill="#FFE6D2"/>
<path d="M729.209 1092.37C729.209 1092.37 749.639 1097.62 762.629 1093.71C775.619 1089.8 797.979 1096.22 801.629 1100.96C805.279 1105.7 803.899 1107.57 797.479 1109.21C791.059 1110.85 768.289 1120.55 753.339 1114.93C738.389 1109.31 718.869 1109.11 718.869 1109.11L729.209 1092.37Z" fill="#FEB7B6"/>
<path d="M552.609 914.87C552.609 914.87 575.559 1078.02 613.609 1092.63C632.369 1099.84 715.249 1116.18 739.769 1117.82C739.769 1117.82 745.769 1112.95 744.309 1093.12C744.309 1093.12 657.469 1061.24 645.139 1043.9C626.779 1018.09 656.539 938.48 633.499 914.24C610.459 890 571.609 879.59 552.609 914.87Z" fill="#2B2B2B"/>
<path d="M587.279 1542.8V1507.23H643.279C644.009 1507.23 644.708 1506.94 645.224 1506.42C645.739 1505.91 646.029 1505.21 646.029 1504.48V1498.78C646.029 1498.05 645.739 1497.35 645.224 1496.84C644.708 1496.32 644.009 1496.03 643.279 1496.03H587.279V1293.54C587.271 1290.81 586.187 1288.2 584.263 1286.26C582.338 1284.33 579.728 1283.23 576.999 1283.21H565.869C563.132 1283.22 560.509 1284.31 558.574 1286.24C556.638 1288.18 555.547 1290.8 555.539 1293.54V1496H499.539C498.81 1496 498.11 1496.29 497.595 1496.81C497.079 1497.32 496.789 1498.02 496.789 1498.75V1504.45C496.789 1505.18 497.079 1505.88 497.595 1506.39C498.11 1506.91 498.81 1507.2 499.539 1507.2H555.539V1542.77C515.019 1545.83 482.539 1560.42 473.449 1579.27H669.369C660.269 1560.45 627.799 1545.86 587.279 1542.8Z" fill="black"/>
<path d="M560.34 1258.59C567.074 1269.78 574.568 1280.5 582.77 1290.67C607.44 1321.82 634.29 1347.49 638.97 1371.77C640.034 1377.05 641.485 1382.24 643.31 1387.31C645.31 1392.87 647.68 1398.71 650.46 1404.76C660.93 1427.5 676.59 1452.98 692.22 1476.14C719.22 1516.14 744.65 1549.6 744.65 1549.6L791.25 1547.6C789.39 1542.93 769.06 1487.6 741.87 1420.08L707.77 1335.34L703.26 1324.13C699.79 1315.52 696.38 1307.05 693.06 1298.79C667.53 1235.35 647.19 1184.79 647.19 1184.79C647.19 1184.79 545.19 1146.14 534.56 1171.19C525.82 1191.89 532.94 1212.12 560.34 1258.59Z" fill="black"/>
<path d="M746.109 1540.22C746.109 1540.22 748.499 1578.67 755.939 1579.22C756.939 1579.3 793.669 1579.3 793.669 1579.3H840.569C840.569 1579.3 840.269 1567.72 826.569 1565.3C812.869 1562.88 789.909 1553.3 781.569 1535.16C772.849 1516.12 746.109 1540.22 746.109 1540.22Z" fill="#B2B2B2"/>
<path d="M638.21 1431.27C638.21 1431.27 605.79 1452.1 608.94 1458.86C609.36 1459.76 627.27 1491.86 627.27 1491.86L650.37 1532.68C650.37 1532.68 660.09 1526.91 655.49 1513.77C650.89 1500.63 648.12 1475.9 659.89 1459.77C672.28 1442.87 638.21 1431.27 638.21 1431.27Z" fill="#B2B2B2"/>
<path d="M681.91 1166.41C681.91 1166.41 810.14 1246.28 824.43 1299.89C838.72 1353.5 654.06 1467.89 654.06 1467.89C654.06 1467.89 633.81 1450.02 630.23 1436.89C630.23 1436.89 713.71 1336.89 731.81 1314.47C742.93 1300.7 567.39 1266.81 545.94 1233.47C524.49 1200.13 532.18 1172 532.18 1172L681.91 1166.41Z" fill="black"/>
<path d="M702.479 1268.94H440.349C435.086 1268.94 430.819 1273.21 430.819 1278.47V1330.9C430.819 1336.16 435.086 1340.43 440.349 1340.43H702.479C707.743 1340.43 712.009 1336.16 712.009 1330.9V1278.47C712.009 1273.21 707.743 1268.94 702.479 1268.94Z" fill="#EA3E2A"/>
<path d="M642.35 904.58C611.67 912.52 560.8 884.09 560.8 884.09C560.8 884.09 580.55 870.82 587.87 841.66C588.24 840.19 588.58 838.66 588.87 837.14L604.63 833.8L628.07 854.8C627.388 862.762 626.229 870.676 624.6 878.5C624.09 881.12 623.51 883.92 622.84 886.91C630.37 891.555 636.983 897.545 642.35 904.58Z" fill="#FEB7B6"/>
<path d="M685.93 1162.23C685.862 1162.57 685.772 1162.9 685.66 1163.23C682.66 1171.52 655.16 1182.7 629.89 1190.52C620.83 1193.33 612.05 1195.7 604.81 1197.36C585.24 1201.84 536.21 1209.83 531.91 1196.36C526.91 1180.8 532.71 1090.89 528.31 1031.78C523.12 959.52 543.13 893.78 570.95 872.28C573.05 870.74 577.21 874.84 589.26 880.56C600.39 885.83 612.69 887.34 623.1 885.06L632.43 893.06C645.32 904.66 659.49 920.49 665.92 944.76C669.85 959.65 672.82 983.19 675.02 1009.67C675.87 1019.93 676.61 1030.67 677.24 1041.45C678.24 1058.66 679.11 1076.02 679.53 1092.53C679.53 1092.85 679.53 1093.16 679.53 1093.53V1094.13C679.71 1095.79 679.74 1097.61 679.76 1099.28C680.2 1114.08 680.12 1127.85 680.62 1139.54C680.62 1139.87 680.62 1140.19 680.67 1140.54C681.3 1150.34 684.89 1154.76 685.85 1158.85C686.126 1159.96 686.154 1161.11 685.93 1162.23V1162.23Z" fill="#6F7071"/>
<path d="M685.93 1162.23C685.862 1162.57 685.772 1162.9 685.66 1163.23C682.66 1171.52 655.16 1182.7 629.89 1190.52C578.56 1126.21 584.06 1049.26 584.06 1049.26L679.53 1092.56C679.53 1092.88 679.53 1093.19 679.53 1093.56V1094.16C679.71 1095.82 679.74 1097.64 679.76 1099.31C680.2 1114.11 680.12 1127.88 680.62 1139.57C680.62 1139.9 680.62 1140.22 680.67 1140.57C681.3 1150.37 684.89 1154.79 685.85 1158.88C686.122 1159.98 686.149 1161.12 685.93 1162.23V1162.23Z" fill="#2B2B2B"/>
<path d="M628.069 854.79C627.387 862.752 626.228 870.666 624.599 878.49C601.719 871.1 591.339 850.43 587.869 841.66C588.239 840.19 588.579 838.66 588.869 837.14L604.629 833.8L628.069 854.79Z" fill="#E2915A"/>
<path d="M637.33 854.56C637.33 854.56 587.05 860.23 584 828.87C580.95 797.51 572.41 777.11 604.38 772.16C636.35 767.21 643.77 778.57 647.38 788.8C650.99 799.03 650.33 852.28 637.33 854.56Z" fill="#FEB7B6"/>
<path d="M584.22 831C584.22 831 587.4 789.37 633.17 785.05C664.52 782.05 647.05 755.12 643.7 750.81C643.7 750.81 619.7 754.11 595.06 758.17C543.39 766.74 579.14 824.55 584.22 831Z" fill="black"/>
<path d="M865.049 1018.01L829.629 1127.03L705.029 1124.37L704.869 1131.97L831.999 1134.69L869.449 1019.44L865.049 1018.01Z" fill="#2B2B2B"/>
<path d="M718.69 1117.45C718.69 1117.45 738.42 1124.92 751.76 1122.45C765.1 1119.98 786.62 1128.85 789.67 1133.95C792.72 1139.05 791.21 1140.78 784.67 1141.7C778.13 1142.62 754.41 1149.76 740.17 1142.52C725.93 1135.28 706.55 1132.93 706.55 1132.93L718.69 1117.45Z" fill="#FEB7B6"/>
<path d="M562.739 921.56C562.739 921.56 567.569 1086.25 603.739 1104.96C621.589 1114.19 702.169 1139.58 726.359 1143.96C726.359 1143.96 732.859 1139.78 733.589 1119.91C733.589 1119.91 650.799 1078.65 640.449 1060.05C625.039 1032.38 663.399 956.54 643.169 929.91C622.939 903.28 585.519 888.6 562.739 921.56Z" fill="#6F7071"/>
<path d="M2811.47 1048.37L2817.53 1058.19C2820.68 1061.8 2821.53 1063.82 2824.01 1065.05C2830.01 1068.05 2841.14 1075.61 2842.01 1091.57C2842.01 1091.57 2841.82 1100.57 2835.76 1097.67C2829.7 1094.77 2832.35 1095.02 2823.76 1091.07C2815.17 1087.12 2811.96 1074.58 2811.21 1070.31L2804.21 1061.09L2811.47 1048.37Z" fill="#FEB7B6"/>
<path d="M2633.43 1571.72C2633.31 1573.31 2632.74 1574.83 2631.78 1576.1C2630.82 1577.37 2629.51 1578.34 2628.02 1578.89V1578.89C2622.26 1581.41 2612.62 1580.84 2602.19 1579.43C2600.86 1579.25 2599.66 1579.11 2598.58 1579.01L2597.74 1578.94H2597.1C2586.72 1578.26 2587.53 1581.46 2567.7 1581.36C2545.09 1581.24 2537.44 1573.63 2536.4 1570.36C2535.53 1567.61 2545.4 1565.47 2556.5 1563.01L2558.11 1562.65C2559.59 1562.33 2561.11 1561.98 2562.54 1561.65C2575.74 1558.55 2588.8 1554.65 2593.12 1541.97C2597.71 1528.52 2596.62 1488.63 2596.62 1488.63H2636.62C2636.62 1488.63 2626.11 1532.7 2627.21 1545.4C2627.81 1552.18 2631.05 1554.11 2632.3 1559.99C2632.39 1560.4 2632.48 1560.81 2632.55 1561.22C2633.31 1564.66 2633.61 1568.2 2633.43 1571.72V1571.72Z" fill="#FEB7B6"/>
<path d="M2680 1140.53C2676.62 1159.53 2671.8 1179.11 2667.61 1199.53C2660.88 1232.31 2655.8 1267.14 2661 1304.64C2661.69 1309.91 2662.07 1315.21 2662.11 1320.52C2663.11 1386.8 2633.5 1506.92 2633.5 1506.92C2633.5 1506.92 2625.5 1510.39 2611.97 1509.72C2605.03 1509.38 2594.38 1504.9 2594.38 1504.9C2594.38 1504.9 2591.58 1430.43 2591.38 1330.27C2591.26 1257.67 2577.01 1162.09 2574.13 1105.91C2572.38 1071.91 2576.13 1026.64 2576.13 1026.64C2576.13 1026.64 2635.13 979.17 2656.37 1003.45C2677.41 1027.42 2692.66 1069.57 2680 1140.53Z" fill="black"/>
<path d="M2661 1304.61C2661.69 1309.88 2662.07 1315.18 2662.11 1320.49C2617.89 1256.43 2608.11 1116.75 2608.11 1116.75L2656.67 1140.32C2656.67 1140.32 2661.99 1166.51 2667.6 1199.5C2660.9 1232.28 2655.82 1267.11 2661 1304.61Z" fill="#202020"/>
<path d="M2761.15 1571.72C2761.03 1573.31 2760.46 1574.83 2759.51 1576.1C2758.55 1577.37 2757.24 1578.34 2755.75 1578.89H2755.7C2749.95 1581.41 2740.31 1580.84 2729.88 1579.43C2728.55 1579.25 2727.35 1579.11 2726.27 1579.01L2725.43 1578.94H2724.78C2714.4 1578.26 2715.22 1581.46 2695.38 1581.36C2672.77 1581.24 2665.13 1573.63 2664.09 1570.36C2663.22 1567.61 2673.09 1565.47 2684.19 1563.01L2685.8 1562.65C2687.27 1562.33 2688.8 1561.98 2690.23 1561.65C2703.42 1558.55 2716.49 1554.65 2720.81 1541.97C2725.39 1528.52 2718.81 1489.24 2718.81 1489.24L2755.91 1486.14C2755.91 1486.14 2753.61 1530.9 2754.71 1543.6C2755.3 1550.38 2758.71 1554.11 2760 1559.99C2760.09 1560.4 2760.17 1560.81 2760.24 1561.22C2761.01 1564.66 2761.32 1568.19 2761.15 1571.72V1571.72Z" fill="#FEB7B6"/>
<path d="M2755.92 1510.28C2755.92 1510.28 2746.39 1514.79 2739.52 1516.16C2732.65 1517.53 2718.39 1514.86 2718.39 1514.86C2714.4 1472.84 2707.67 1431.14 2698.23 1390C2685 1332.06 2665.32 1263.59 2637.88 1198.76C2632.02 1184.91 2607.88 1119.37 2603.75 1102.83C2591.35 1052.83 2603.8 1058.23 2603.8 1058.23L2712.2 1045.51C2712.2 1045.51 2725.55 1052.38 2731.7 1122.95C2733.54 1144.08 2733.77 1235.34 2736.54 1252.64C2739.17 1269.02 2742.25 1282.64 2745.85 1291.49C2766 1340.94 2755.92 1510.28 2755.92 1510.28Z" fill="black"/>
<path d="M2761.15 1571.72C2761.03 1573.31 2760.46 1574.83 2759.51 1576.1C2758.55 1577.37 2757.24 1578.34 2755.75 1578.89H2755.7C2749.62 1581.05 2740.13 1580.59 2729.9 1579.37C2728.57 1579.21 2727.37 1579.09 2726.27 1579.01L2725.43 1578.94H2724.78C2714.4 1578.26 2715.22 1581.46 2695.38 1581.36C2672.77 1581.24 2665.13 1573.63 2664.09 1570.36C2663.22 1567.61 2673.09 1565.47 2684.19 1563.01C2694.84 1568 2706.62 1570.09 2718.34 1569.07C2733.57 1567.61 2749.11 1561.51 2760.03 1559.99C2760.12 1560.4 2760.2 1560.81 2760.27 1561.22C2761.03 1564.66 2761.33 1568.2 2761.15 1571.72V1571.72Z" fill="#B84C42"/>
<path d="M2633.43 1571.72C2633.31 1573.31 2632.74 1574.83 2631.78 1576.1C2630.82 1577.37 2629.51 1578.34 2628.02 1578.89V1578.89C2621.94 1581.05 2612.44 1580.59 2602.22 1579.37C2600.88 1579.21 2599.68 1579.09 2598.58 1579.01L2597.74 1578.94H2597.1C2586.72 1578.26 2587.53 1581.46 2567.7 1581.36C2545.09 1581.24 2537.44 1573.63 2536.4 1570.36C2535.53 1567.61 2545.4 1565.47 2556.5 1563.01C2567.15 1568 2578.94 1570.09 2590.66 1569.07C2605.88 1567.61 2621.42 1561.51 2632.34 1559.99C2632.43 1560.4 2632.52 1560.81 2632.59 1561.22C2633.34 1564.67 2633.62 1568.2 2633.43 1571.72V1571.72Z" fill="#B84C42"/>
<path d="M2590.06 721C2586.4 691.1 2595.74 643.25 2655.42 650.9C2715.1 658.55 2733.91 717.19 2721.87 743.27C2709.83 769.35 2739.2 775.64 2748.41 803.68C2756.33 827.78 2759.09 857.68 2771.91 871.11C2813.22 914.39 2732.24 980.95 2683.43 966.92C2594.51 941.35 2583.05 937.54 2586.21 867.67C2587.83 831.88 2615.68 818.01 2597.99 807.67C2555.28 782.59 2598.35 788.62 2590.06 721Z" fill="#B74B42"/>
<path d="M2677.78 799.22L2661.34 841.71L2625.86 843.44L2608.16 817C2619.33 808.5 2624.05 795.75 2625.78 784.35C2626.84 777.106 2627.06 769.763 2626.41 762.47C2626.17 760.19 2625.94 758.85 2625.94 758.85L2670.15 745.4L2670.31 745.32C2670.86 757.05 2671.49 766.25 2672.2 773.41C2674.72 798.67 2677.78 799.22 2677.78 799.22Z" fill="#FEB7B6"/>
<path d="M2608 797.73C2610.29 797.73 2649 789.84 2714.49 806.59C2714.49 806.59 2678.65 970.82 2690.82 1001.77C2698.22 1020.68 2703.85 1040.24 2707.63 1060.19L2575.53 1061.83C2575.53 1061.83 2577.38 955.59 2571.29 917.99C2565.2 880.39 2608 797.73 2608 797.73Z" fill="#FEB7B6"/>
<path d="M2776.58 969.59C2769.96 923.94 2745.44 830.19 2728.96 814.86C2714.39 801.3 2682.96 800.06 2682.96 800.06C2676.43 810.28 2654.09 835.68 2626.36 831.06C2611.36 828.6 2608.36 801.69 2608.03 798.06L2608.13 797.65H2607.99L2607.67 797.72C2603.31 798.36 2568.54 804.02 2558.23 821.77C2543 847.98 2526.41 926.64 2510.12 925.47C2502.64 924.94 2427.36 896.65 2427.36 896.65C2427.36 896.65 2414.82 908.39 2417.23 922.81C2417.23 922.81 2454.39 947.7 2485.82 963.58C2490.18 965.78 2494.42 967.8 2498.44 969.58C2509.77 974.58 2519.32 977.43 2524.53 976.2C2526.2 975.772 2527.79 975.098 2529.26 974.2C2536.08 970.26 2544.04 961.61 2551.67 951.76C2556.74 945.2 2561.67 938.11 2566.01 931.51L2566.29 931.09C2568.15 956.09 2570.02 983.31 2568.08 1004.63C2566.61 1020.85 2565.54 1055.99 2568.32 1065.07C2574.12 1083.99 2616.77 1088.99 2656.57 1087.01C2675.33 1086.08 2688.57 1085.01 2698.23 1082.78C2712.23 1079.57 2718.63 1073.94 2723.23 1062.83C2727.63 1052.25 2707.31 1002.57 2705.38 980.83C2703.63 961.12 2706.64 945.08 2711.62 929.31C2725.62 961.76 2739.96 984.98 2741.83 990.01C2745.78 1000.59 2805.76 1067.55 2805.76 1067.55C2808.83 1066.87 2811.77 1065.68 2814.46 1064.04C2816.86 1062.49 2818.91 1060.44 2820.46 1058.04C2809.83 1033 2776.58 969.59 2776.58 969.59Z" fill="#FFAAA8"/>
<path d="M2723.24 1062.91C2718.64 1074.02 2712.24 1079.65 2698.24 1082.86C2679.54 1079.27 2667.24 1044.86 2660.84 1027.86C2653.52 1008.34 2691.66 907.95 2702.19 908.86C2710.02 909.53 2711.37 922.86 2711.63 929.35C2706.56 945.27 2703.63 960.96 2705.39 980.87C2707.32 1002.65 2727.64 1052.33 2723.24 1062.91Z" fill="#FF8578"/>
<path d="M2427.91 904.62C2427.91 904.62 2421.49 888.88 2414.42 888.24C2407.35 887.6 2384.87 884.06 2383.27 887.24C2381.67 890.42 2383.27 902.01 2388.08 906.24C2392.89 910.47 2422.77 917.16 2422.77 917.16L2427.91 904.62Z" fill="#FEB7B6"/>
<path d="M2566 931.59C2561.66 938.19 2556.73 945.28 2551.66 951.84C2544.39 960.79 2536.36 969.44 2529.25 974.28C2527.78 975.177 2526.19 975.852 2524.52 976.28C2519.31 977.51 2509.76 974.63 2498.43 969.66C2505.05 970.081 2511.7 969.981 2518.31 969.36C2529.71 968.36 2533.03 956.04 2551.05 937.53C2561.85 926.45 2565.13 928.16 2566 931.59Z" fill="#FF8578"/>
<path d="M2670.15 745.41C2663.46 756.35 2647.34 778.85 2625.78 784.41C2626.84 777.166 2627.05 769.823 2626.41 762.53C2626.17 760.25 2625.94 758.91 2625.94 758.91L2670.15 745.41Z" fill="#E2915A"/>
<path d="M2614.33 761.87C2614.33 761.87 2667.48 772.55 2673.62 739.34C2679.76 706.13 2690.76 685.15 2657.08 676.93C2623.4 668.71 2614.44 680.16 2609.7 690.74C2604.96 701.32 2600.66 758.24 2614.33 761.87Z" fill="#FEB7B6"/>
<path d="M2640.31 668.64C2640.31 668.64 2639.37 679.9 2656.86 699.01C2674.35 718.12 2670.93 756.77 2670.93 756.77C2670.93 756.77 2699.63 696.77 2683.93 679.13C2668.23 661.49 2640.31 668.64 2640.31 668.64Z" fill="#B74B42"/>
<path d="M2661.68 654C2661.68 654 2635.25 645.16 2609.03 671C2597.73 682.13 2599.44 704 2605.49 716.72C2605.49 716.72 2614.78 689.51 2631.7 683.57C2648.62 677.63 2661.68 654 2661.68 654Z" fill="#B74B42"/>
<path d="M2630.89 745.53C2630.89 745.53 2629.47 749.47 2619.46 747.68C2619.46 747.68 2611.06 746.18 2611.83 741.76C2611.83 741.76 2620.4 739.54 2630.89 745.53Z" fill="white"/>
<path d="M1809.34 758.24C1823.75 840 1776.03 906.24 1702.74 906.24C1697.97 906.24 1693.08 902.94 1688.34 902.38C1753.6 894.53 1794.57 834.64 1781.09 758.21C1767.61 681.78 1704.6 618.88 1636.57 611.02C1641.22 610.462 1645.89 610.185 1650.57 610.19C1723.83 610.22 1794.92 676.49 1809.34 758.24Z" fill="#555657"/>
<path d="M1867.93 801C1888.8 801 1902.32 781.72 1898.12 757.93C1893.92 734.14 1873.61 714.85 1852.74 714.85C1851.74 714.85 1850.74 714.94 1849.68 715.03C1846.53 706.283 1842.95 697.702 1838.93 689.32C1849.46 682.04 1854.93 667.79 1852.07 651.41C1848 628.32 1828.76 609.48 1808.57 608.41L1784 608.72C1782.79 608.72 1781.57 608.787 1780.37 608.92C1777.89 606.58 1775.37 604.296 1772.82 602.07C1776.21 594.91 1777.43 586.07 1775.74 576.5C1771.55 552.71 1751.23 533.43 1730.37 533.43H1729.88L1709.4 533.82C1708.82 533.82 1708.23 533.82 1707.65 533.82C1706.65 533.82 1705.65 533.82 1704.65 533.96C1699.16 534.439 1693.92 536.472 1689.55 539.82C1685.23 543.203 1681.87 547.662 1679.81 552.75L1678.33 552.4C1678.21 550.95 1678.01 549.49 1677.75 548.01C1673.56 524.22 1653.25 504.93 1632.38 504.93L1609.97 505.3H1609.67H1608.67H1608.24C1606.64 505.363 1605.05 505.557 1603.49 505.88C1602.49 506.22 1569.56 518.18 1580.82 559.69L1578.51 560.69C1578.51 560.69 1571.97 547.47 1560.26 540.29C1545.76 531.41 1536.26 533.51 1535.04 533.67L1515.5 533.76C1495.13 534.28 1482.04 553.34 1486.18 576.76C1488.16 587.619 1493.32 597.646 1501 605.57C1500.32 606.48 1499.65 607.41 1499 608.34L1492.2 608.41C1491.2 608.32 1490.2 608.27 1489.2 608.27C1487.95 608.268 1486.71 608.338 1485.47 608.48L1468.19 608.67H1467.89H1466.49C1465.67 608.67 1464.87 608.67 1464.08 608.76H1464.03C1463.36 608.76 1462.69 608.87 1462.03 608.96C1443.74 611.5 1432.41 629.68 1436.3 651.74C1439.56 670.2 1452.54 685.91 1467.93 692.04C1467.06 699.693 1466.6 707.387 1466.56 715.09L1459 715.21C1458.67 715.21 1458.34 715.21 1458 715.21C1457.21 715.21 1456.44 715.26 1455.68 715.31H1454.24V715.41C1435.52 717.56 1423.84 735.93 1427.78 758.27C1431.98 782.06 1452.29 801.35 1473.16 801.35L1481.64 801.22C1483.64 806.766 1485.81 812.236 1488.14 817.63C1473.54 822.96 1465.14 839.39 1468.53 858.88C1472.53 881.75 1491.53 900.45 1511.53 901.88C1512.31 901.88 1513.09 901.97 1513.88 901.97C1514.88 901.97 1515.88 901.91 1516.88 901.82L1536.06 901.62H1536.57C1539.11 901.623 1541.64 901.318 1544.11 900.71C1547.21 903.85 1550.38 906.91 1553.61 909.89C1549.46 917.36 1547.86 926.97 1549.7 937.46C1553.9 961.26 1574.22 980.54 1595.08 980.54L1617.31 980.19H1617.82C1630.54 980.19 1640.5 972.99 1645.4 962C1647.92 962.68 1650.4 963.32 1652.99 963.9C1653.12 965.33 1653.31 966.8 1653.57 968.28C1657.76 992.07 1678.08 1011.36 1698.95 1011.36L1721.64 1011H1721.73H1723.18C1743.18 1010.09 1755.94 991.17 1751.84 968C1751.58 966.526 1751.25 965.066 1750.84 963.62C1751.57 963.44 1752.28 963.24 1753.01 963.04C1761.76 973.68 1774.01 980.62 1786.49 980.62L1808.36 980.23C1808.64 980.23 1808.92 980.23 1809.21 980.23C1830.07 980.23 1843.59 960.94 1839.39 937.15C1837.79 928.331 1834.09 920.029 1828.59 912.95C1831.42 909.33 1834.08 905.566 1836.59 901.66H1862.72C1883.58 901.66 1897.1 882.37 1892.9 858.58C1889.84 841.2 1878.16 826.26 1863.95 819.46C1864.52 813.366 1864.82 807.173 1864.85 800.88C1865.85 800.88 1866.89 801 1867.93 801ZM1701.82 903.14C1628.33 903.14 1557.2 837.56 1542.93 756.65C1528.66 675.74 1576.67 610.14 1650.16 610.14C1723.65 610.14 1794.79 675.74 1809.06 756.65C1823.33 837.56 1775.32 903.14 1701.82 903.14Z" fill="#555657"/>
<path d="M1867.45 801C1888.31 801 1901.82 781.71 1897.63 757.92C1893.44 734.13 1873.12 714.84 1852.26 714.84C1851.26 714.84 1850.2 714.93 1849.19 715.02C1846.05 706.272 1842.46 697.691 1838.44 689.31C1848.97 682.03 1854.44 667.78 1851.59 651.4C1847.4 627.61 1827.08 608.32 1806.22 608.32C1799.03 608.225 1792.06 610.777 1786.64 615.49C1782.01 610.823 1777.24 606.337 1772.33 602.03C1775.72 594.87 1776.94 586.03 1775.25 576.46C1771.06 552.67 1750.74 533.38 1729.88 533.38C1714.54 533.38 1703.21 543.82 1699.88 558.79C1692.63 556.188 1685.24 554.025 1677.73 552.31C1677.61 550.87 1677.42 549.41 1677.15 547.93C1672.96 524.14 1652.65 504.86 1631.78 504.86C1610.91 504.86 1597.41 524.14 1601.6 547.93C1601.86 549.41 1602.19 550.87 1602.6 552.31C1594.28 554.36 1586.17 557.154 1578.36 560.66C1570.02 544.66 1554.36 533.38 1538.43 533.38C1517.57 533.38 1504.06 552.67 1508.25 576.46C1510.24 587.318 1515.4 597.344 1523.08 605.27C1519.95 609.434 1517.03 613.752 1514.34 618.21C1506.71 612.03 1497.67 608.32 1488.52 608.32C1467.66 608.32 1454.15 627.61 1458.34 651.4C1461.6 669.86 1474.57 685.57 1489.97 691.69C1489.04 699.737 1488.58 707.83 1488.57 715.93C1485.78 715.225 1482.92 714.859 1480.05 714.84C1459.19 714.84 1445.67 734.13 1449.87 757.92C1454.07 781.71 1474.4 801 1495.26 801C1498.01 800.998 1500.75 800.631 1503.4 799.91C1505.48 805.79 1507.78 811.58 1510.25 817.28C1495.64 822.61 1487.25 839.05 1490.63 858.52C1494.83 882.31 1515.14 901.6 1536 901.6C1540.19 901.663 1544.34 900.824 1548.17 899.138C1552.01 897.452 1555.44 894.959 1558.22 891.83C1563.83 898.043 1569.68 903.937 1575.77 909.51C1571.61 916.99 1570.01 926.6 1571.86 937.09C1576.06 960.88 1596.37 980.17 1617.23 980.17C1632.53 980.17 1643.85 969.77 1647.15 954.86C1656.25 958.454 1665.61 961.349 1675.15 963.52C1675.27 964.97 1675.47 966.43 1675.73 967.91C1679.92 991.7 1700.23 1010.98 1721.1 1010.98C1741.97 1010.98 1755.47 991.7 1751.28 967.91C1751.02 966.43 1750.69 964.97 1750.28 963.52C1757.32 961.79 1764.22 959.52 1770.92 956.73C1779.64 970.64 1794 980.17 1808.65 980.17C1829.51 980.17 1843.02 960.88 1838.83 937.09C1837.24 928.269 1833.53 919.964 1828.03 912.89C1832.55 907.087 1836.67 900.976 1840.34 894.6C1846.78 899.013 1854.37 901.446 1862.17 901.6C1883.03 901.6 1896.55 882.31 1892.35 858.52C1889.29 841.14 1877.61 826.2 1863.41 819.39C1863.96 813.31 1864.27 807.12 1864.3 800.82C1865.36 800.88 1866.4 801 1867.45 801ZM1701.83 903.15C1628.34 903.15 1557.2 837.55 1542.93 756.64C1528.66 675.73 1576.67 610.14 1650.16 610.14C1723.65 610.14 1794.79 675.73 1809.06 756.64C1823.33 837.55 1775.31 903.15 1701.83 903.15Z" fill="#D1D1D1"/>
<path d="M2056.37 764.11C2067.37 826.62 2030.91 877.28 1974.88 877.28C1971.23 877.28 1967.5 874.76 1963.88 874.33C2013.77 868.33 2045.1 822.54 2034.79 764.11C2024.48 705.68 1976.31 657.6 1924.3 651.59C1927.85 651.173 1931.42 650.976 1935 651C1991 651 2045.36 701.62 2056.37 764.11Z" fill="#A93022"/>
<path d="M2101.17 796.78C2117.12 796.78 2127.46 782.03 2124.25 763.84C2121.04 745.65 2105.51 730.91 2089.56 730.91C2088.76 730.91 2087.98 730.98 2087.21 731.05C2084.81 724.363 2082.07 717.804 2079 711.4C2087.05 705.83 2091.25 694.93 2089.05 682.4C2085.93 664.75 2071.22 650.4 2055.78 649.51L2037 649.74C2036.07 649.739 2035.15 649.789 2034.23 649.89C2032.33 648.11 2030.42 646.36 2028.46 644.66C2031.21 638.531 2031.99 631.7 2030.69 625.11C2027.49 606.93 2011.95 592.18 1996 592.18H1995.63L1979.97 592.48C1979.53 592.48 1979.08 592.48 1978.64 592.48C1977.85 592.48 1977.08 592.48 1976.31 592.59C1972.11 592.954 1968.11 594.508 1964.76 597.07C1961.45 599.658 1958.89 603.068 1957.31 606.96L1956.18 606.68C1956.09 605.58 1955.94 604.46 1955.74 603.33C1952.53 585.14 1937.01 570.4 1921.06 570.4L1903.92 570.67H1903.69H1902.89H1902.56C1901.34 570.718 1900.13 570.865 1898.93 571.11V571.11C1898.17 571.37 1872.93 580.52 1881.59 612.25L1879.83 613.02C1879.83 613.02 1874.83 602.91 1865.83 597.43C1854.75 590.64 1847.52 592.24 1846.56 592.36L1831.62 592.43C1816.04 592.82 1806.04 607.43 1809.2 625.34C1810.72 633.633 1814.66 641.289 1820.53 647.34C1820.01 648.04 1819.53 648.75 1818.99 649.46L1813.79 649.52C1813.03 649.45 1812.25 649.41 1811.48 649.41C1810.53 649.407 1809.58 649.461 1808.63 649.57L1795.41 649.71H1795.19H1794.12C1793.49 649.71 1792.88 649.71 1792.27 649.78C1791.75 649.78 1791.27 649.86 1790.74 649.93C1776.74 651.88 1768.1 665.78 1771.07 682.64C1773.56 696.75 1783.48 708.76 1795.25 713.45C1794.6 719.301 1794.27 725.183 1794.25 731.07L1788.47 731.17H1787.72C1787.12 731.17 1786.53 731.17 1785.95 731.24H1784.85V731.32C1770.54 732.96 1761.61 747 1764.62 764.08C1767.83 782.27 1783.36 797.02 1799.31 797.02L1805.8 796.92C1807.32 801.16 1808.98 805.35 1810.8 809.46C1799.63 813.54 1793.18 826.1 1795.8 841C1798.89 858.48 1813.36 872.78 1828.66 873.85C1829.25 873.85 1829.85 873.92 1830.45 873.92C1831.24 873.92 1832.02 873.87 1832.78 873.8L1847.44 873.65H1847.83C1849.77 873.654 1851.71 873.423 1853.59 872.96C1855.97 875.36 1858.39 877.693 1860.86 879.96C1857.69 885.67 1856.46 893.02 1857.86 901.04C1861.07 919.23 1876.6 933.97 1892.55 933.97L1909.55 933.71H1909.94C1919.66 933.71 1927.28 928.21 1931.02 919.8C1932.95 920.32 1934.88 920.8 1936.83 921.25C1936.93 922.35 1937.07 923.47 1937.27 924.6C1940.48 942.79 1956.01 957.53 1971.96 957.53L1989.31 957.26H1990.49C2005.78 956.56 2015.49 942.1 2012.4 924.36C2012.21 923.23 2011.96 922.11 2011.67 921.01L2013.33 920.57C2020.01 928.7 2029.38 934 2038.92 934L2055.64 933.71C2055.86 933.71 2056.07 933.71 2056.29 933.71C2072.24 933.71 2082.57 918.96 2079.37 900.77C2078.15 894.028 2075.31 887.682 2071.11 882.27C2073.27 879.5 2075.3 876.62 2077.23 873.64H2097.23C2113.23 873.64 2123.52 858.89 2120.31 840.7C2117.97 827.42 2109.04 816 2098.18 810.79C2098.61 806.123 2098.84 801.39 2098.87 796.59C2099.58 796.71 2100.37 796.78 2101.17 796.78ZM1974.17 874.89C1917.99 874.89 1863.6 824.75 1852.7 762.89C1841.8 701.03 1878.49 650.89 1934.7 650.89C1990.91 650.89 2045.27 701.04 2056.18 762.89C2067.09 824.74 2030.37 874.89 1974.18 874.89H1974.17Z" fill="#A93022"/>
<path d="M2100.8 796.78C2116.75 796.78 2127.08 782.03 2123.87 763.85C2120.66 745.67 2105.14 730.91 2089.19 730.91C2088.39 730.91 2087.61 730.98 2086.84 731.05C2084.44 724.36 2081.69 717.798 2078.62 711.39C2086.67 705.83 2090.89 694.94 2088.68 682.39C2085.47 664.2 2069.94 649.46 2053.99 649.46C2048.49 649.379 2043.15 651.33 2038.99 654.94C2035.45 651.353 2031.81 647.923 2028.06 644.65C2030.81 638.52 2031.58 631.69 2030.29 625.1C2027.08 606.91 2011.55 592.17 1995.6 592.17C1983.87 592.17 1975.21 600.17 1972.7 611.59C1967.16 609.583 1961.51 607.913 1955.77 606.59C1955.67 605.49 1955.53 604.37 1955.33 603.24C1952.12 585.05 1936.59 570.31 1920.64 570.31C1904.69 570.31 1894.36 585.05 1897.57 603.24C1897.77 604.37 1898.02 605.49 1898.31 606.59C1891.95 608.153 1885.75 610.289 1879.78 612.97C1873.4 600.77 1861.46 592.12 1849.25 592.12C1833.25 592.12 1822.97 606.86 1826.18 625.05C1827.7 633.343 1831.65 640.999 1837.52 647.05C1835.12 650.234 1832.89 653.538 1830.83 656.95C1825.01 652.23 1818.09 649.39 1811.1 649.39C1795.1 649.39 1784.82 664.13 1788.02 682.32C1790.51 696.44 1800.43 708.44 1812.2 713.13C1811.5 719.278 1811.14 725.461 1811.13 731.65C1809 731.115 1806.81 730.836 1804.62 730.82C1788.62 730.82 1778.34 745.57 1781.55 763.76C1784.76 781.95 1800.28 796.69 1816.23 796.69C1818.33 796.69 1820.42 796.411 1822.45 795.86C1824.05 800.36 1825.8 804.786 1827.69 809.14C1816.52 813.21 1810.07 825.78 1812.69 840.66C1815.9 858.85 1831.43 873.6 1847.38 873.6C1850.58 873.649 1853.76 873.007 1856.69 871.718C1859.63 870.429 1862.25 868.523 1864.38 866.13C1868.66 870.883 1873.13 875.39 1877.79 879.65C1874.62 885.36 1873.39 892.71 1874.79 900.73C1878 918.92 1893.53 933.66 1909.48 933.66C1921.18 933.66 1929.83 925.72 1932.36 914.31C1939.31 917.058 1946.46 919.275 1953.74 920.94C1953.84 922.04 1953.98 923.16 1954.18 924.29C1957.39 942.48 1972.92 957.22 1988.87 957.22C2004.82 957.22 2015.15 942.48 2011.94 924.29C2011.74 923.16 2011.49 922.04 2011.2 920.94C2016.58 919.611 2021.86 917.876 2026.98 915.75C2033.65 926.38 2044.62 933.66 2055.83 933.66C2071.78 933.66 2082.11 918.92 2078.9 900.73C2077.68 893.987 2074.84 887.64 2070.64 882.23C2074.1 877.791 2077.25 873.113 2080.05 868.23C2084.97 871.602 2090.77 873.462 2096.74 873.58C2112.69 873.58 2123.02 858.83 2119.82 840.64C2117.47 827.36 2108.54 815.94 2097.69 810.73C2098.11 806.08 2098.35 801.35 2098.37 796.53C2099.2 796.71 2100 796.78 2100.8 796.78ZM1974.18 874.89C1918 874.89 1863.61 824.75 1852.71 762.89C1841.81 701.03 1878.5 650.89 1934.71 650.89C1990.92 650.89 2045.27 701.04 2056.18 762.89C2067.09 824.74 2030.36 874.89 1974.18 874.89V874.89Z" fill="#FF8578"/>
<path d="M1019.38 812.1L1088.61 1070.46H1150.1L1080.87 812.1H1019.38Z" fill="#D1D1D1"/>
<path d="M1101.72 785.72L1178.02 1070.46H1239.51L1163.21 785.72H1101.72Z" fill="#D1D1D1"/>
<path d="M1178.02 740.29L1266.49 1070.46H1327.98L1239.51 740.29H1178.02Z" fill="#D1D1D1"/>
<path d="M1323.67 707.82H1262.18L1350.65 1038H1412.14L1323.67 707.82Z" fill="#D1D1D1"/>
<path d="M1028.48 786.85L1094.37 736.2L1099.37 754.79C1099.85 756.39 1100.68 757.866 1101.79 759.114C1102.9 760.363 1104.27 761.355 1105.8 762.02C1108.91 763.4 1112.12 763.08 1114.06 761.22L1184.43 694L1194.28 702.85C1195.47 703.92 1197.08 703.43 1196.92 702.05L1193.76 673.88C1193.67 673.379 1193.42 672.921 1193.05 672.579C1192.67 672.237 1192.2 672.029 1191.69 671.99L1162.47 671.06C1161.04 671.06 1160.68 672.66 1161.89 673.74L1170.68 681.64L1111.14 738.54L1106.58 721.54C1106.12 719.999 1105.34 718.573 1104.29 717.353C1103.24 716.133 1101.94 715.148 1100.49 714.46C1097.49 713.05 1094.39 713.16 1092.34 714.73L1016.15 773.29C1013.03 775.68 1013.26 780.68 1016.66 784.44C1017.64 785.565 1018.84 786.477 1020.19 787.121C1021.53 787.764 1023 788.124 1024.49 788.18C1025.93 788.189 1027.33 787.721 1028.48 786.85V786.85Z" fill="#D1D1D1"/>
<path d="M1009.38 999.8L1011.97 1009.86C1010.48 1006.7 1009.6 1003.29 1009.38 999.8V999.8Z" fill="#CAE0FF"/>
<path d="M2316.74 1119.7H1040.74L1012 1009.86C1038.45 1066.64 1253.42 1004.51 1301.61 969.95C1389.71 906.35 1390.36 843.72 1481.54 801.21C1605.01 743.61 1728.48 833.82 1827.77 809.16C2132.3 733.72 2384.77 486.94 2392.54 479.16C2307.04 677.1 2098.72 781.26 2258.85 846.16C2425 913.48 2316.74 1119.7 2316.74 1119.7Z" fill="#8E8F91"/>
<path d="M1036.6 561.06C1032.91 558.813 1025.43 555.733 1014.15 551.82C1010.3 550.587 1006.53 549.086 1002.89 547.33C1001.58 546.677 1000.42 545.765 999.481 544.65C998.538 543.534 997.834 542.237 997.41 540.84C996.37 537.426 996.75 534.783 998.55 532.91C1000.35 531.036 1002.96 530.1 1006.38 530.1C1009.68 530.307 1012.93 531.047 1015.99 532.29C1020.06 533.75 1022.84 534.48 1024.35 534.48C1025.21 534.548 1026.07 534.421 1026.88 534.11C1027.68 533.798 1028.4 533.309 1028.99 532.68C1029.99 531.48 1030.18 529.843 1029.55 527.77C1028.79 525.29 1026.87 523.096 1023.79 521.19C1018.22 517.71 1011.22 515.97 1002.79 515.97C994.623 515.97 988.41 518.136 984.15 522.47C979.483 527.136 978.36 533.416 980.78 541.31C983.38 549.803 988.966 556.213 997.54 560.54L1020.31 568.78C1028.48 571.78 1033.38 575.94 1035 581.26C1036.12 584.92 1035.73 588.063 1033.82 590.69C1032.86 591.989 1031.6 593.029 1030.14 593.715C1028.68 594.401 1027.07 594.712 1025.46 594.62C1021.96 594.608 1018.48 594.103 1015.12 593.12C1014.93 593.04 1012.6 592.24 1008.12 590.74C1004.84 589.58 1002.75 588.99 1001.83 588.99C1000.94 588.916 1000.04 589.048 999.212 589.374C998.38 589.699 997.633 590.211 997.03 590.87C996.03 592.12 995.81 593.87 996.47 595.99C997.803 600.41 1002.47 603.83 1010.47 606.25C1016.04 608.031 1021.84 608.958 1027.69 609C1036.94 609 1043.81 606.503 1048.28 601.51C1053.07 596.176 1054.07 588.976 1051.28 579.91C1048.95 571.996 1043.7 565.26 1036.6 561.06V561.06Z" fill="#D1D1D1"/>
<path d="M1076.15 531.35H1089C1095.62 531.35 1098.19 528.933 1096.71 524.1C1095.23 519.266 1091.1 516.806 1084.33 516.72H1043.33C1036.58 516.72 1033.96 519.18 1035.46 524.1C1036.96 529.02 1041.03 531.436 1047.68 531.35H1060.3L1080.91 598.74C1082.97 605.58 1086.61 609 1091.83 609C1097.2 609 1098.85 605.58 1096.76 598.74L1076.15 531.35Z" fill="#D1D1D1"/>
<path d="M1187.07 597.24L1138.72 525C1134.56 518.74 1129.69 515.613 1124.1 515.62C1118.68 515.62 1115.75 518.996 1115.32 525.75L1110.59 597.39C1110.53 598.915 1110.74 600.44 1111.22 601.89C1111.84 604.006 1113.18 605.84 1115 607.08C1116.75 608.334 1118.85 609.012 1121 609.02C1124.51 609.02 1126.38 606.813 1126.63 602.4L1127.22 587.4H1164.06L1173.56 601.99C1176.57 606.656 1179.98 608.99 1183.79 608.99C1184.7 609.049 1185.62 608.906 1186.48 608.571C1187.33 608.236 1188.1 607.716 1188.73 607.05C1189.87 605.763 1190.12 604.076 1189.48 601.99C1188.91 600.299 1188.1 598.699 1187.07 597.24ZM1127.78 573.36L1129.26 534.86C1129.28 534.437 1129.35 534.019 1129.46 533.61L1155.13 573.36H1127.78Z" fill="#D1D1D1"/>
<path d="M1252.8 593.87L1222.37 568.74C1238.43 567.573 1244.1 559.28 1239.37 543.86C1236.95 535.353 1231.47 528.044 1223.97 523.35C1216.78 518.86 1208.44 516.557 1199.97 516.72H1182.09C1175.51 516.72 1173.28 520.19 1175.4 527.13L1197.4 598.97C1199.49 605.823 1203.16 609.25 1208.4 609.25C1213.77 609.25 1215.44 605.853 1213.4 599.06L1204.24 569.11L1205.06 569.74L1244.61 604.37C1248.36 607.623 1251.58 609.25 1254.25 609.25C1255.13 609.316 1256.01 609.174 1256.82 608.837C1257.63 608.5 1258.35 607.977 1258.92 607.31C1259.92 606.02 1260.14 604.31 1259.51 602.25C1258.6 599.583 1256.36 596.79 1252.8 593.87ZM1211.35 558.73C1207.78 558.832 1204.22 558.581 1200.7 557.98L1192.48 531.1H1204.16C1214.04 531.1 1220.35 535.58 1223.1 544.54C1225.99 554 1222.08 558.73 1211.35 558.73Z" fill="#D1D1D1"/>
<path d="M1277.7 531.35H1290.53C1297.15 531.35 1299.72 528.933 1298.24 524.1C1296.76 519.266 1292.63 516.806 1285.86 516.72H1244.86C1238.11 516.72 1235.49 519.18 1236.99 524.1C1238.49 529.02 1242.56 531.436 1249.21 531.35H1261.83L1282.44 598.74C1284.53 605.58 1288.19 609 1293.44 609C1298.81 609 1300.45 605.58 1298.37 598.74L1277.7 531.35Z" fill="#D1D1D1"/>
<path d="M1374.44 598.09C1373.65 595.639 1372.09 593.505 1370 592C1368.05 590.391 1365.62 589.485 1363.1 589.43C1362.06 589.361 1361.03 589.562 1360.1 590.012C1359.16 590.462 1358.36 591.147 1357.77 592C1357.18 592.89 1356.8 593.908 1356.68 594.97C1356.56 596.033 1356.69 597.109 1357.07 598.11C1357.86 600.573 1359.41 602.718 1361.51 604.23C1363.45 605.837 1365.89 606.743 1368.41 606.8C1369.44 606.862 1370.48 606.658 1371.41 606.208C1372.34 605.758 1373.14 605.077 1373.74 604.23C1374.33 603.335 1374.71 602.312 1374.83 601.244C1374.95 600.177 1374.82 599.095 1374.44 598.09Z" fill="#D1D1D1"/>
<path d="M1364.7 569.84L1350.7 524.22C1348.7 517.613 1345.12 514.31 1339.97 514.31C1334.82 514.31 1333.3 517.613 1335.41 524.22L1349.41 569.84C1351.5 576.686 1355.11 580.11 1360.26 580.11C1365.41 580.11 1366.89 576.686 1364.7 569.84Z" fill="#D1D1D1"/>
<path d="M2135.36 1119.7H1515.91C1542.35 1097.96 1578.53 1060.32 1597.68 1006.29C1630.13 915.11 1740.94 952.75 1838.77 937.01C1936.77 921.27 2134.44 721.77 2141.2 744.75C2144.82 757.06 2100.63 919.16 2165.53 937.5C2229.62 955.51 2254.12 1056.75 2135.36 1119.7Z" fill="#D1D1D1"/>
</svg>
