<svg width="2241" height="1654" viewBox="0 0 2241 1654" fill="none" xmlns="http://www.w3.org/2000/svg">
<path d="M932.999 623.89L932.399 621.78C937.839 620.23 943.259 618.41 948.499 616.39L949.289 618.39C943.999 620.48 938.509 622.32 932.999 623.89ZM916.279 627.89C910.669 628.95 904.939 629.76 899.279 630.3L899.079 628.11C904.679 627.58 910.339 626.79 915.889 625.74L916.279 627.89ZM964.999 611.51L963.999 609.51C968.999 607 973.999 604.22 978.839 601.26L979.989 603.12C975.179 606.16 970.129 609 964.999 611.51ZM882.089 631.07C876.379 631.07 870.609 630.81 864.919 630.29L865.119 628.1C870.739 628.62 876.449 628.88 882.119 628.87L882.089 631.07ZM994.179 593.44L992.859 591.69C997.359 588.29 1001.75 584.64 1005.86 580.83L1007.34 582.45C1003.2 586.3 998.759 590 994.199 593.44H994.179ZM847.899 627.91C842.289 626.91 836.659 625.54 831.169 623.97L831.769 621.86C837.199 623.41 842.769 624.72 848.299 625.76L847.899 627.91ZM1019.53 570.29L1017.91 568.81C1021.7 564.64 1025.34 560.25 1028.74 555.74L1030.49 557.06C1027.07 561.62 1023.39 566.07 1019.55 570.29H1019.53ZM814.899 618.51C809.579 616.45 804.289 614.12 799.169 611.57L800.169 609.57C805.219 612.08 810.449 614.39 815.709 616.43L814.899 618.51ZM1040.21 542.87L1038.35 541.72C1041.35 536.92 1044.1 531.93 1046.61 526.88L1048.61 527.88C1046 533 1043.22 538 1040.21 542.87ZM784.149 603.22C779.299 600.22 774.519 596.96 769.959 593.53L771.279 591.77C775.789 595.17 780.509 598.39 785.279 601.35L784.149 603.22ZM1055.52 512.14L1053.52 511.35C1055.52 506.09 1057.38 500.67 1058.93 495.25L1061.04 495.85C1059.43 501.34 1057.59 506.82 1055.52 512.14ZM756.729 582.57C752.499 578.73 748.409 574.65 744.559 570.44L746.169 568.96C749.979 573.12 754.029 577.15 758.169 580.96L756.729 582.57ZM1064.94 479.12L1062.79 478.72C1063.79 473.17 1064.62 467.51 1065.14 461.9L1067.33 462.1C1066.8 467.78 1066 473.51 1064.94 479.12ZM733.559 557.24C730.119 552.69 726.849 547.92 723.839 543.07L725.699 541.92C728.699 546.71 731.909 551.42 735.309 555.92L733.559 557.24ZM1068.12 444.94H1065.92C1065.92 439.3 1065.65 433.6 1065.12 427.94L1067.31 427.73C1067.84 433.46 1068.11 439.23 1068.12 444.94ZM715.479 528.06C712.939 522.96 710.599 517.67 708.539 512.34L710.589 511.55C712.589 516.82 714.929 522.04 717.439 527.08L715.479 528.06ZM1064.91 410.76L1062.76 411.16C1061.76 405.64 1060.41 400.08 1058.86 394.64L1058.74 394.23L1060.85 393.62L1060.97 394.04C1062.54 399.54 1063.86 405.17 1064.91 410.76ZM705.189 495.45L703.079 496.05L703.019 495.85C701.469 490.41 700.159 484.85 699.109 479.34L701.269 478.93C702.269 484.39 703.599 489.93 705.129 495.25L705.189 495.45ZM1053.32 378.14C1051.32 372.87 1048.97 367.65 1046.45 362.61L1048.45 361.61C1051 366.71 1053.34 371.99 1055.45 377.32L1053.32 378.14ZM698.879 462.14L696.699 462.35C696.159 456.66 695.879 450.89 695.869 445.19H698.059C698.069 450.8 698.349 456.5 698.879 462.12V462.14ZM1038.17 347.81C1035.17 343.02 1031.96 338.31 1028.55 333.81L1030.29 332.48C1033.74 337.03 1037.02 341.79 1040.03 346.64L1038.17 347.81ZM698.829 428.2L696.639 428C697.159 422.32 697.959 416.59 698.999 411L701.159 411.41C700.129 416.92 699.339 422.58 698.829 428.2ZM1017.67 320.77C1013.86 316.61 1009.81 312.58 1005.67 308.77L1007.14 307.15C1011.37 310.98 1015.47 315.06 1019.33 319.26L1017.67 320.77ZM704.999 394.84L702.889 394.24C704.449 388.76 706.289 383.24 708.349 377.95L710.349 378.74C708.399 384 706.579 389.42 704.999 394.84ZM992.529 298C988.019 294.62 983.299 291.4 978.529 288.44L979.679 286.57C984.539 289.57 989.319 292.82 993.879 296.25L992.529 298ZM717.279 363.2L715.279 362.2C717.819 357.09 720.619 352.03 723.619 347.2L725.489 348.35C722.559 353.15 719.789 358.14 717.279 363.2ZM963.649 280.2C958.589 277.7 953.359 275.4 948.099 273.36L948.889 271.36C954.209 273.41 959.509 275.74 964.619 278.28L963.649 280.2ZM735.099 334.32L733.339 333C736.769 328.44 740.459 324 744.289 319.76L745.919 321.23C742.129 325.41 738.489 329.81 735.099 334.32ZM931.999 268C926.569 266.46 920.999 265.16 915.459 264.13L915.869 261.97C921.469 262.97 927.099 264.33 932.599 265.89L931.999 268ZM757.899 309.2L756.409 307.58C760.619 303.72 765.059 300.02 769.609 296.58L770.939 298.33C766.439 301.73 762.059 305.39 757.899 309.2ZM898.629 261.77C893.009 261.25 887.309 261 881.629 261.01V258.82C887.339 258.82 893.109 259.06 898.799 259.58L898.629 261.77ZM784.929 288.71L783.769 286.85C788.619 283.85 793.669 281.02 798.769 278.47L799.769 280.47C794.709 283 789.719 285.74 784.929 288.71V288.71ZM864.709 261.84C859.109 262.38 853.449 263.18 847.899 264.24L847.489 262.08C853.109 261.02 858.829 260.2 864.489 259.66L864.709 261.84ZM815.289 273.57L814.489 271.57C819.799 269.51 825.279 267.67 830.779 266.09L831.379 268.2C825.939 269.72 820.529 271.54 815.289 273.57V273.57Z" fill="#B2B2B2"/>
<path d="M1361 719.74V716.74C1368.61 716.74 1376.29 716.38 1383.82 715.74L1384.09 718.68C1376.45 719.38 1368.68 719.74 1361 719.74ZM1337.91 718.74C1330.24 718.04 1322.54 716.98 1315 715.59L1315.54 712.68C1322.99 714.06 1330.6 715.11 1338.17 715.8L1337.91 718.74ZM1407 715.5L1406.46 712.6C1413.92 711.21 1421.46 709.45 1428.7 707.38L1429.51 710.22C1422.1 712.32 1414.52 714.09 1407 715.5ZM1292.5 710.3C1285.11 708.2 1277.73 705.74 1270.57 702.97L1271.63 700.21C1278.71 702.95 1286 705.39 1293.3 707.46L1292.5 710.3ZM1451.43 702.86L1450.36 700.11C1457.44 697.36 1464.47 694.25 1471.25 690.86L1472.57 693.5C1465.67 696.94 1458.56 700.08 1451.4 702.86H1451.43ZM1249.43 693.63C1242.55 690.21 1235.76 686.42 1229.22 682.37L1230.78 679.86C1237.23 683.86 1243.95 687.61 1250.78 690.99L1249.43 693.63ZM1492.78 682.23L1491.22 679.72C1497.66 675.72 1504 671.37 1510.06 666.78L1511.84 669.14C1505.66 673.78 1499.25 678.18 1492.73 682.23H1492.78ZM1210.1 669.3C1203.97 664.68 1197.98 659.71 1192.3 654.54L1194.3 652.35C1199.91 657.47 1205.83 662.35 1211.89 666.95L1210.1 669.3ZM1529.57 654.35L1527.57 652.17C1533.17 647.05 1538.57 641.62 1543.72 636.01L1545.9 638.01C1540.74 643.67 1535.24 649.17 1529.57 654.35V654.35ZM1175.94 638.2C1170.75 632.53 1165.77 626.55 1161.14 620.43L1163.49 618.65C1168.07 624.65 1172.99 630.65 1178.12 636.21L1175.94 638.2ZM1148 601.38C1143.94 594.85 1140.14 588.06 1136.71 581.2L1139.35 579.88C1142.74 586.66 1146.5 593.37 1150.5 599.82L1148 601.38ZM1585 580.94L1582.36 579.63C1585.75 572.83 1588.86 565.8 1591.6 558.72L1594.35 559.79C1591.62 567 1588.47 574.07 1585 580.94V580.94ZM1127.34 560.06C1124.56 552.9 1122.08 545.53 1119.97 538.14L1122.81 537.33C1124.89 544.63 1127.34 551.92 1130.09 558.99L1127.34 560.06ZM1601.69 537.86L1598.85 537.06C1600.92 529.76 1602.68 522.28 1604.06 514.81L1606.96 515.35C1605.6 522.91 1603.83 530.48 1601.73 537.86H1601.69ZM1114.69 515.64C1113.28 508.1 1112.2 500.4 1111.49 492.74L1114.43 492.47C1115.13 500.04 1116.2 507.65 1117.59 515.1L1114.69 515.64ZM1610.14 492.45L1607.2 492.18C1607.89 484.65 1608.2 476.97 1608.2 469.36V468.78H1611.2V469.35C1611.22 477.06 1610.87 484.83 1610.17 492.45H1610.14ZM1113.37 469.65H1110.37V469.36C1110.37 461.76 1110.71 454.08 1111.37 446.55L1114.31 446.82C1113.64 454.26 1113.31 461.82 1113.31 469.36L1113.37 469.65ZM1607.18 446C1606.47 438.43 1605.4 430.82 1604 423.38L1606.9 422.83C1608.32 430.37 1609.4 438.07 1610.12 445.72L1607.18 446ZM1117.51 424.22L1114.61 423.69C1116 416.13 1117.77 408.55 1119.85 401.17L1122.7 401.97C1120.63 409.23 1118.89 416.72 1117.51 424.18V424.22ZM1598.74 401.14C1596.65 393.85 1594.19 386.56 1591.43 379.5L1594.18 378.42C1596.97 385.58 1599.46 392.95 1601.57 400.33L1598.74 401.14ZM1129.93 380.3L1127.17 379.24C1129.94 372.07 1133.08 364.95 1136.5 358.07L1139.14 359.38C1135.76 366.14 1132.66 373.18 1129.93 380.26V380.3ZM1150.25 339.41L1147.74 337.86C1151.74 331.33 1156.17 324.86 1160.8 318.78L1163.16 320.55C1158.58 326.58 1154.24 332.92 1150.25 339.37V339.41ZM1558 319.84C1553.41 313.84 1548.49 307.84 1543.36 302.3L1545.54 300.3C1550.72 305.97 1555.71 311.94 1560.35 318.05L1558 319.84ZM1177.74 302.92L1175.56 300.92C1180.73 295.24 1186.22 289.73 1191.89 284.55L1193.89 286.72C1188.28 291.86 1182.85 297.3 1177.74 302.92ZM1527.17 286.17C1521.55 281.06 1515.62 276.17 1509.56 271.59L1511.34 269.24C1517.47 273.85 1523.46 278.82 1529.15 283.98L1527.17 286.17ZM1211.43 272.1L1209.65 269.75C1215.77 265.11 1222.17 260.7 1228.65 256.64L1230.21 259.14C1223.81 263.15 1217.48 267.51 1211.43 272.1ZM1490.7 258.7C1484.23 254.7 1477.51 250.97 1470.7 247.6L1472 245C1478.88 248.42 1485.68 252.2 1492.22 256.24L1490.7 258.7ZM1250.19 248L1248.86 245.36C1255.73 241.92 1262.86 238.76 1269.99 235.98L1271.06 238.73C1264 241.46 1257 244.58 1250.19 248ZM1449.8 238.42C1442.72 235.69 1435.42 233.26 1428.12 231.2L1428.92 228.36C1436.31 230.44 1443.69 232.9 1450.86 235.66L1449.8 238.42ZM1292.72 231.42L1291.91 228.58C1299.29 226.47 1306.86 224.68 1314.41 223.27L1314.95 226.17C1307.49 227.57 1300 229.33 1292.72 231.42V231.42ZM1405.87 226C1398.42 224.63 1390.8 223.59 1383.23 222.91L1383.49 219.97C1391.15 220.66 1398.86 221.71 1406.4 223.1L1405.87 226ZM1337.58 223L1337.31 220.06C1344.93 219.35 1352.7 218.98 1360.4 218.97V221.92C1352.79 221.94 1345.11 222.3 1337.58 223Z" fill="#B2B2B2"/>
<path d="M1492.1 1473.6V1468.6C1504.99 1468.6 1517.99 1468 1530.73 1466.82L1531.19 1471.82C1518.29 1473 1505.14 1473.59 1492.1 1473.6ZM1453.02 1471.84C1440.02 1470.67 1427.02 1468.84 1414.26 1466.51L1415.17 1461.6C1427.77 1463.93 1440.66 1465.7 1453.47 1466.87L1453.02 1471.84ZM1569.94 1466.42L1569.03 1461.51C1581.66 1459.16 1594.32 1456.18 1606.67 1452.67L1608.03 1457.47C1595.54 1461 1582.72 1464 1569.94 1466.42V1466.42ZM1376.16 1457.61C1363.66 1454.07 1351.16 1449.9 1339.04 1445.21L1340.85 1440.55C1352.85 1445.18 1365.17 1449.31 1377.52 1452.8L1376.16 1457.61ZM1645.16 1445.03L1643.35 1440.37C1655.35 1435.73 1667.22 1430.46 1678.71 1424.72L1680.94 1429.19C1669.28 1435 1657.25 1440.33 1645.13 1445L1645.16 1445.03ZM1303.26 1429.41C1291.63 1423.61 1280.13 1417.21 1269.07 1410.36L1271.7 1406.11C1282.63 1412.88 1294 1419.21 1305.49 1424.93L1303.26 1429.41ZM1715.1 1410.11L1712.46 1405.86C1723.36 1399.1 1734.09 1391.73 1744.34 1383.97L1747.34 1387.97C1737 1395.81 1726.1 1403.26 1715.07 1410.11H1715.1ZM1236.79 1388.24C1226.42 1380.41 1216.29 1372 1206.67 1363.24L1210.04 1359.55C1219.54 1368.2 1229.55 1376.55 1239.8 1384.25L1236.79 1388.24ZM1777.44 1362.93L1774.08 1359.24C1783.57 1350.58 1792.76 1341.38 1801.42 1331.89L1805.11 1335.25C1796.32 1344.86 1787 1354.17 1777.41 1362.93H1777.44ZM1179 1335.6C1170.23 1326 1161.8 1315.88 1154 1305.52L1158 1302.52C1165.75 1312.75 1174.08 1322.75 1182.75 1332.24L1179 1335.6ZM1830.14 1305.15L1826.14 1302.15C1833.89 1291.9 1841.25 1281.15 1848.02 1270.26L1852.27 1272.89C1845.38 1283.92 1837.93 1294.78 1830.09 1305.15H1830.14ZM1131.78 1273.28C1124.92 1262.28 1118.49 1250.75 1112.68 1239.13L1117.15 1236.89C1122.89 1248.38 1129.24 1259.73 1136.03 1270.64L1131.78 1273.28ZM1871.35 1238.7L1866.88 1236.47C1872.61 1224.97 1877.88 1213.07 1882.51 1201.1L1887.17 1202.9C1882.42 1215 1877.1 1227.06 1871.3 1238.7H1871.35ZM1096.83 1203.36C1092.11 1191.24 1087.92 1178.76 1084.36 1166.27L1089.16 1164.9C1092.68 1177.25 1096.83 1189.58 1101.48 1201.55L1096.83 1203.36ZM1899.59 1165.79L1894.79 1164.43C1898.29 1152.09 1901.26 1139.43 1903.6 1126.78L1908.51 1127.7C1906.09 1140.48 1903.09 1153.3 1899.54 1165.79H1899.59ZM1075.39 1128.18C1073.01 1115.43 1071.19 1102.39 1069.99 1089.43L1074.99 1088.97C1076.18 1101.78 1077.99 1114.66 1080.33 1127.26L1075.39 1128.18ZM1073.16 1050.35H1068.16V1049.86C1068.16 1037 1068.74 1024.01 1069.89 1011.27L1074.89 1011.71C1073.75 1024.31 1073.17 1037.14 1073.17 1049.86L1073.16 1050.35ZM1908.81 1010.26C1907.6 997.46 1905.81 984.58 1903.42 971.98L1908.33 971.05C1910.73 983.8 1912.56 996.84 1913.78 1009.8L1908.81 1010.26ZM1080.12 973.41L1075.21 972.5C1077.57 959.71 1080.56 946.89 1084.09 934.39L1088.9 935.75C1085.36 948.1 1082.41 960.77 1080.07 973.41H1080.12ZM1894.52 934.35C1890.98 922 1886.82 909.68 1882.16 897.71L1886.81 895.9C1891.54 908.01 1895.74 920.48 1899.32 932.97L1894.52 934.35ZM1101.13 899.07L1096.47 897.27C1101.15 885.15 1106.47 873.1 1112.25 861.45L1116.72 863.68C1111 875.18 1105.71 887.09 1101.08 899.07H1101.13ZM1866.45 862.39C1860.69 850.91 1854.33 839.57 1847.53 828.66L1851.77 826.02C1858.65 837.02 1865.09 848.54 1870.91 860.15L1866.45 862.39ZM1135.53 829.88L1131.28 827.25C1138.11 816.25 1145.55 805.34 1153.38 794.95L1157.38 797.95C1149.58 808.22 1142.23 819 1135.48 829.88H1135.53ZM1825.58 796.82C1817.82 786.6 1809.48 776.61 1800.8 767.13L1804.49 763.76C1813.27 773.35 1821.7 783.46 1829.56 793.76L1825.58 796.82ZM1182 768.19L1178.31 764.82C1187.05 755.21 1196.31 745.88 1205.94 737.11L1209.31 740.8C1199.83 749.47 1190.65 758.68 1182 768.19ZM1239 716L1236 712C1246.35 704.15 1257.2 696.68 1268.23 689.81L1270.87 694.06C1260 700.89 1249.25 708.27 1239 716ZM1711.61 693.32C1700.67 686.56 1689.3 680.25 1677.8 674.54L1680.02 670.06C1691.66 675.84 1703.17 682.23 1714.23 689.06L1711.61 693.32ZM1304.61 675.18L1302.38 670.71C1314 664.89 1326.03 659.55 1338.14 654.84L1339.95 659.49C1328 664.18 1316.09 669.46 1304.6 675.21L1304.61 675.18ZM1642.42 659C1630.42 654.38 1618.09 650.28 1605.73 646.79L1607.09 641.98C1619.59 645.51 1632.09 649.67 1644.21 654.34L1642.42 659ZM1376.58 647.19L1375.21 642.39C1387.7 638.82 1400.51 635.79 1413.29 633.39L1414.21 638.3C1401.59 640.66 1388.93 643.65 1376.58 647.18V647.19ZM1568.07 638C1555.46 635.68 1542.57 633.92 1529.76 632.78L1530.21 627.78C1543.21 628.94 1556.21 630.72 1568.97 633.07L1568.07 638ZM1452.5 632.91L1452.04 627.91C1464.94 626.71 1478.04 626.09 1491.12 626.07V631.07C1478.25 631.14 1465.25 631.75 1452.5 632.94V632.91Z" fill="#B2B2B2"/>
<path d="M691.361 615.49L690.361 612.17C698.931 609.73 707.461 606.87 715.711 603.69L717.001 606.9C708.651 610.13 700.001 613 691.361 615.49ZM665.051 621.72C656.211 623.38 647.201 624.66 638.271 625.5L637.951 622.06C646.771 621.23 655.671 619.97 664.411 618.32L665.051 621.72ZM741.751 596L740.211 592.91C748.161 588.96 756.021 584.59 763.561 579.91L765.381 582.84C757.741 587.58 749.791 592 741.751 596ZM611.261 626.79C602.261 626.79 593.191 626.38 584.261 625.56L584.581 622.12C593.421 622.94 602.411 623.34 611.281 623.33L611.261 626.79ZM787.691 567.57L785.601 564.81C792.681 559.46 799.601 553.71 806.151 547.73L808.481 550.28C801.851 556.33 794.851 562.15 787.691 567.57V567.57ZM557.451 621.82C548.621 620.17 539.771 618.09 531.121 615.63L532.121 612.31C540.661 614.74 549.411 616.8 558.121 618.43L557.451 621.82ZM827.581 531.13L825.001 528.81C831.001 522.25 836.711 515.32 842.051 508.23L844.811 510.31C839.421 517.49 833.611 524.49 827.581 531.13V531.13ZM505.481 607C497.101 603.75 488.781 600.08 480.731 596.08L482.271 592.98C490.271 596.98 498.451 600.57 506.721 603.78L505.481 607ZM860.101 488L857.161 486.19C861.841 478.63 866.211 470.78 870.161 462.83L873.251 464.37C869.251 472.39 864.831 480.34 860.101 488ZM457.101 583C449.461 578.28 441.941 573.15 434.771 567.75L436.851 564.99C443.941 570.32 451.361 575.4 458.921 580.06L457.101 583ZM884.201 439.65L880.981 438.4C884.201 430.12 887.061 421.6 889.501 413.06L892.821 414.06C890.341 422.61 887.451 431.23 884.191 439.61L884.201 439.65ZM413.921 550.46C407.271 544.46 400.831 538 394.771 531.37L397.321 529.04C403.321 535.59 409.671 541.94 416.251 547.91L413.921 550.46ZM899.001 387.65L895.611 387.01C897.251 378.28 898.491 369.37 899.311 360.54L902.751 360.86C901.941 369.8 900.681 378.81 899.001 387.65ZM377.471 510.59C372.041 503.43 366.891 495.93 362.161 488.29L365.101 486.47C369.771 494.02 374.861 501.47 380.221 508.47L377.471 510.59ZM904.001 333.84H900.551C900.551 324.97 900.121 315.99 899.291 307.15L902.731 306.83C903.581 315.78 904.001 324.86 904.001 333.84ZM349.001 464.67C345.001 456.67 341.331 448.32 338.091 439.93L341.311 438.68C344.521 446.97 348.141 455.2 352.091 463.13L349.001 464.67ZM899.001 280.05L895.611 280.69C893.981 271.99 891.911 263.24 889.481 254.69L889.291 254.04L892.611 253.09L892.801 253.74C895.231 262.4 897.321 271.25 899.001 280.05V280.05ZM332.801 413.35L329.481 414.29L329.391 413.97C326.961 405.42 324.891 396.68 323.251 387.97L326.641 387.32C328.271 395.91 330.311 404.55 332.711 413L332.801 413.35ZM880.731 228.71C877.511 220.42 873.871 212.2 869.921 204.27L873.001 202.73C877.001 210.73 880.691 219.07 884.001 227.46L880.731 228.71ZM322.891 360.89L319.451 361.21C318.601 352.27 318.161 343.21 318.141 334.21H321.601C321.611 343.07 322.051 352.05 322.891 360.89ZM856.891 180.94C852.211 173.4 847.111 166 841.751 158.94L844.501 156.85C849.931 164 855.081 171.5 859.831 179.13L856.891 180.94ZM322.801 307.5L319.361 307.18C320.181 298.24 321.431 289.18 323.081 280.39L326.471 281.02C324.841 289.75 323.611 298.66 322.801 307.5ZM824.611 138.41C818.611 131.87 812.241 125.53 805.611 119.57L808.001 117C814.661 123 821.111 129.45 827.181 136.07L824.611 138.41ZM332.581 255L329.261 254.06C331.711 245.42 334.601 236.79 337.841 228.41L341.061 229.65C337.861 237.94 335.001 246.47 332.581 255ZM785.051 102.55C778.001 97.2199 770.531 92.1599 763.001 87.4999L764.811 84.5599C772.461 89.2799 779.981 94.3999 787.161 99.7899L785.051 102.55ZM351.841 205.19L348.751 203.65C352.751 195.65 357.161 187.65 361.881 180.01L364.821 181.82C360.161 189.38 355.791 197.24 351.841 205.19ZM739.591 74.5399C731.591 70.5399 723.401 66.9699 715.121 63.7699L716.371 60.5499C724.741 63.7899 733.071 67.4499 741.121 71.4499L739.591 74.5399ZM379.881 159.74L377.121 157.67C382.521 150.49 388.321 143.47 394.351 136.82L396.911 139.14C391.001 145.71 385.221 152.64 379.881 159.74V159.74ZM689.771 55.3099C681.221 52.8799 672.471 50.8299 663.771 49.2099L664.401 45.8199C673.231 47.4599 682.091 49.5299 690.741 51.9799L689.771 55.3099ZM415.771 120.2L413.441 117.66C420.071 111.59 427.061 105.76 434.211 100.34L436.301 103.09C429.221 108.45 422.311 114.21 415.761 120.2H415.771ZM637.271 45.5499C628.431 44.7499 619.451 44.3499 610.581 44.3699V40.9199C619.581 40.9199 628.651 41.2999 637.581 42.1099L637.271 45.5499ZM458.311 87.9999L456.491 84.9999C464.121 80.2599 472.071 75.8299 480.111 71.8199L481.651 74.9099C473.701 78.8999 465.851 83.2799 458.311 87.9999ZM583.881 45.7099C575.061 46.5599 566.161 47.8199 557.421 49.4799L556.781 46.0899C565.621 44.4099 574.621 43.0899 583.551 42.2799L583.881 45.7099ZM506.091 64.1799L504.841 60.9599C513.191 57.7199 521.841 54.8199 530.471 52.3399L531.421 55.6599C522.861 58.0699 514.341 60.9399 506.091 64.1399V64.1799Z" fill="#B2B2B2"/>
<path d="M1769.65 284.13C1612.13 280.79 1481.25 406.23 1477.91 563.76C1474.57 721.29 1600 852.16 1757.53 855.5C1915.06 858.84 2045.93 733.41 2049.28 575.88C2052.63 418.35 1927.18 287.48 1769.65 284.13ZM1768.38 785.28C1649.38 787.92 1550.78 693.6 1548.13 574.61C1545.49 455.61 1639.81 357.01 1758.8 354.36C1877.8 351.72 1976.4 446.03 1979.05 565.03C1981.69 684 1887.38 782.63 1768.38 785.28Z" fill="#EA3E2A"/>
<path d="M2237 496C2232.42 487.62 2224.51 486.92 2203.19 485.25C2176.84 483.19 2150.4 482.06 2124.11 479.47C2119.31 479 2112.77 474.47 2110.82 470.19C2098.26 442.27 2087.31 413.62 2074.56 385.79C2070.85 377.69 2070.31 372.66 2076.08 365.56C2096.39 340.56 2116.03 315.03 2135.9 289.67C2139.12 285.56 2142.19 281.34 2147.66 274.09L2042.83 175.73C2013.22 201.25 1985.94 224.02 1959.63 247.87C1950.35 256.28 1943.86 258.34 1931.43 252.36C1906.04 240.14 1878.95 231.48 1852.89 220.58C1848.89 218.91 1844.49 213.46 1843.89 209.23C1839.11 176.9 1834.26 144.53 1831.45 112C1830.1 96.3899 1823.45 91.3199 1809.12 91.8499C1803.59 92.0499 1798 90.2599 1792.43 89.3799L1717.43 91.0499C1714.75 91.9299 1712.13 93.2799 1709.38 93.6399C1680.57 97.3199 1685.19 94.9599 1682.97 122.01C1680.27 155.01 1678.12 188.01 1676.05 216.59L1566.66 265.76L1470.36 190.33C1431.36 219.92 1400.13 255.19 1372.36 294.8C1397.52 323.87 1421.99 352.28 1446.66 380.51C1451.09 385.57 1452.66 389.24 1449.47 396.63C1436.79 425.55 1424.84 454.84 1414.18 484.56C1411.11 493.12 1407.26 495.34 1399.28 496.28C1366.34 500.17 1333.48 504.82 1300.55 508.85C1292.37 509.85 1288.2 512.48 1286.97 521.73C1281.44 563.24 1284.85 604.24 1291.81 645.2C1293.19 653.3 1298.08 654.38 1305.03 654.81C1337.2 656.76 1369.32 659.5 1401.49 661.23C1410.76 661.73 1414.96 664.31 1418.59 673.87C1431.1 706.87 1445.59 739.21 1460.35 774.41L1387.98 866.81C1417.98 906.63 1452.04 939.9 1492.59 967.05L1582.75 888.24C1615.24 899.76 1645.16 911.24 1675.7 920.74C1687.24 924.33 1691.79 929.38 1692.95 941.24C1696.03 972.82 1700.35 1004.24 1704.5 1035.75C1705.32 1041.97 1704.62 1050.15 1714.88 1049.84C1756.61 1048.59 1798.35 1047.36 1840.08 1046.13C1848.95 1045.87 1851.95 1041.13 1852.44 1032.36C1854.25 999.71 1857.5 967.13 1858.76 934.47C1859.25 921.87 1865.25 917.99 1875.67 913.81C1901.4 903.48 1927.06 892.57 1951.45 879.47C1961.97 873.83 1967.3 874.38 1976.03 881.62C2004.09 904.9 2033.03 927.07 2061.09 949.2C2086.81 934.61 2144.43 872.95 2160.79 842.95C2136.29 815.13 2111.79 786.75 2086.54 759.07C2080.23 752.14 2080.65 747.39 2084.02 739.15C2094.9 712.59 2103.9 685.26 2114.5 658.58C2116.29 654.09 2122.12 648.87 2126.69 648.21C2155.69 644.05 2184.89 640.9 2214.06 637.75C2230.36 635.99 2236.95 635.34 2240.06 629.12L2237 496ZM1968.32 783.42C1918.9 830.784 1854.59 859.547 1786.34 864.809C1718.09 870.071 1650.13 851.506 1594.04 812.277C1537.94 773.048 1497.18 715.583 1478.71 649.673C1460.23 583.763 1465.18 513.485 1492.71 450.815C1520.24 388.145 1568.65 336.959 1629.69 305.98C1690.73 275 1760.62 266.144 1827.46 280.919C1894.3 295.695 1953.94 333.188 1996.24 387.01C2038.53 440.833 2060.85 507.654 2059.4 576.09C2058.68 614.954 2050.26 653.291 2034.63 688.879C2019 724.468 1996.46 756.602 1968.32 783.42Z" fill="#202020"/>
<path d="M1278.53 33.8898L1286.83 87.2098L1248.22 60.3198L1130.61 3.5498L1220.73 9.7498C1220.73 9.7498 1266.8 19.8498 1269.33 22.0398C1271.86 24.2298 1278.53 33.8898 1278.53 33.8898Z" fill="#DD513A"/>
<path d="M1317.63 0.689941L1130.61 3.53993L1278.53 33.8899L1317.63 0.689941Z" fill="#DD7168"/>
<path d="M1219.63 89.05L1267.74 48.59L1130.61 3.54004L1219.63 89.05Z" fill="#DD7168"/>
<path d="M1544 224L1539.63 224.55C1539.48 223.34 1539.32 222.14 1539.13 220.94C1538.48 216.809 1537.61 212.717 1536.52 208.68C1535.52 204.96 1534.29 201.21 1532.9 197.54L1537 196C1538.44 199.81 1539.7 203.7 1540.75 207.56C1541.89 211.75 1542.79 216 1543.46 220.29C1543.67 221.46 1543.85 222.72 1544 224ZM1520.25 172.66C1515.16 164.806 1509.41 157.405 1503.05 150.54L1506.29 147.54C1512.84 154.589 1518.76 162.191 1524 170.26L1520.25 172.66ZM1382.43 165.34C1379.43 166.15 1371.82 166.49 1366.85 163.68C1362.97 161.376 1359.85 157.996 1357.85 153.95L1361.76 151.95C1363.37 155.246 1365.91 157.997 1369.07 159.86C1372.65 161.86 1378.96 161.75 1381.33 161.11C1381.48 161.072 1381.63 161.022 1381.77 160.96C1381.96 160.84 1382.17 160.69 1382.39 160.53L1384.92 164.14L1384.17 164.65C1383.63 164.973 1383.04 165.203 1382.43 165.33V165.34ZM1482.54 131.34C1475.25 125.42 1467.59 119.963 1459.61 115L1461.94 111.26C1470.07 116.314 1477.88 121.871 1485.32 127.9L1482.54 131.34ZM1400.17 139L1395.84 138.2C1396.35 135.481 1396.58 132.716 1396.52 129.95C1396.43 125.95 1395.84 121.977 1394.78 118.12C1394.18 115.894 1393.44 113.707 1392.58 111.57L1396.67 109.93C1397.59 112.215 1398.38 114.553 1399.03 116.93C1400.19 121.133 1400.82 125.462 1400.93 129.82C1400.99 132.898 1400.74 135.974 1400.17 139V139ZM1361.17 126.32L1357.17 124.51C1360.97 116.08 1368.31 108.6 1377.29 103.99L1377.89 103.69L1379.89 107.64L1379.34 107.91C1371.16 112.08 1364.56 118.79 1361.16 126.33L1361.17 126.32ZM1433.78 104.93C1425.78 102.67 1419.36 101.33 1416.29 101.26C1412.77 101.17 1409.55 101.2 1406.45 101.37L1406.21 96.9699C1409.43 96.7999 1412.76 96.7599 1416.4 96.8499C1421.09 96.9699 1430.05 99.3099 1434.97 100.69L1433.78 104.93ZM1377.78 88.3599C1371.59 81.4462 1364.42 75.4851 1356.49 70.6699L1358.78 66.8999C1367.08 71.9421 1374.59 78.1866 1381.06 85.4299L1377.78 88.3599Z" fill="#9EC3F9"/>
<path d="M1331 59.9998C1326.41 58.8387 1321.72 58.066 1317 57.6898L1317.35 53.2998C1322.3 53.6953 1327.21 54.5048 1332.03 55.7198L1331 59.9998Z" fill="#9EC3F9"/>
<path d="M1448.79 1249.13C1437.06 1244.95 1425.17 1241.13 1413.53 1236.77C1412.34 1236.21 1411.28 1235.4 1410.43 1234.39C1409.59 1233.38 1408.97 1232.19 1408.63 1230.92C1406.35 1216.67 1404.89 1202.3 1402.52 1188.07C1401.83 1183.93 1402.2 1181.57 1405.7 1179.07C1418.01 1170.21 1430.09 1161.01 1442.24 1151.92C1444.24 1150.45 1446.13 1148.92 1449.51 1146.28L1413.93 1088.65C1397.33 1096.65 1382.12 1103.65 1367.22 1111.23C1361.96 1113.91 1358.76 1114.04 1353.84 1109.8C1343.84 1101.12 1332.54 1093.8 1322.03 1085.68C1321.15 1084.89 1320.45 1083.93 1319.99 1082.84C1319.52 1081.76 1319.29 1080.59 1319.32 1079.41C1321.12 1064.12 1322.9 1048.8 1325.62 1033.66C1326.93 1026.39 1324.55 1023.27 1317.94 1021.74C1315.41 1021.16 1313.08 1019.65 1310.66 1018.57L1276.33 1010.1C1275.01 1010.29 1273.67 1010.35 1272.33 1010.28C1258.77 1008.42 1261.17 1007.91 1256.83 1019.94C1251.55 1034.6 1246.51 1049.34 1242.04 1062.1L1186.24 1071.01C1175.1 1056.1 1163.45 1040.53 1151.73 1024.86C1130.36 1033.52 1111.81 1045.71 1094.28 1060.31C1102.15 1076.63 1109.78 1092.56 1117.53 1108.43C1118.92 1111.28 1119.2 1113.14 1116.82 1116.11C1107.5 1127.7 1098.46 1139.55 1089.96 1151.76C1087.51 1155.27 1085.49 1155.76 1081.74 1155.25C1066.28 1152.97 1050.74 1151.05 1035.29 1148.82C1031.45 1148.27 1029.23 1148.96 1027.53 1153.01C1019.91 1171.21 1016.42 1190.28 1014.53 1209.76C1014.16 1213.62 1016.25 1214.76 1019.36 1215.76C1033.75 1220.61 1048.02 1225.76 1062.44 1230.55C1066.6 1231.92 1068.19 1233.55 1068.66 1238.4C1070.29 1254.96 1072.88 1271.4 1075.29 1289.26L1031 1322.36C1039.73 1344.16 1051.14 1363.49 1066.25 1380.82L1116.94 1356.07C1130.3 1365.3 1142.5 1374.21 1155.22 1382.28C1160.03 1385.28 1161.47 1388.2 1160.54 1393.73C1158.06 1408.47 1156.15 1423.31 1154.17 1438.14C1153.78 1441.06 1152.45 1444.7 1157.17 1445.82L1214.56 1459.54C1218.63 1460.54 1220.56 1458.72 1221.88 1454.79C1226.72 1440.17 1232.21 1425.79 1236.8 1411.05C1238.57 1405.38 1241.8 1404.36 1247.03 1403.73C1260.03 1402.35 1272.95 1400.25 1285.72 1397.44C1291.2 1396.17 1293.55 1397.07 1296.63 1401.44C1306.53 1415.44 1316.98 1429.13 1327.01 1442.64C1340.5 1439.17 1374.29 1418.21 1385.42 1406.58C1377.7 1390.92 1370.06 1374.99 1361.97 1359.3C1359.97 1355.37 1360.73 1353.3 1363.27 1349.93C1371.49 1339.19 1378.94 1327.86 1387.05 1317.03C1388.41 1315.21 1391.71 1313.55 1393.87 1313.82C1407.58 1315.5 1421.24 1317.65 1434.87 1319.82C1442.5 1321.02 1445.58 1321.54 1447.76 1319.09L1462.76 1258.18C1461.79 1253.8 1458.28 1252.51 1448.79 1249.13ZM1337.02 1257.83C1333.83 1270.78 1328.11 1282.97 1320.21 1293.7C1312.3 1304.44 1302.36 1313.52 1290.94 1320.41C1279.53 1327.31 1266.87 1331.89 1253.69 1333.89C1240.5 1335.89 1227.06 1335.28 1214.11 1332.08V1332.08C1187.97 1325.63 1165.46 1309.05 1151.54 1286.01C1137.61 1262.96 1133.41 1235.32 1139.86 1209.18V1209.18C1146.32 1183.04 1162.89 1160.53 1185.94 1146.6C1208.99 1132.68 1236.63 1128.48 1262.77 1134.93V1134.93C1288.91 1141.39 1311.41 1157.96 1325.33 1181.01C1339.25 1204.06 1343.45 1231.69 1337 1257.83H1337.02Z" fill="#B2B2B2"/>
<path d="M2176.4 1198C2169.09 1194.6 2161.66 1191.46 2154.4 1187.92C2153.66 1187.49 2153.03 1186.9 2152.55 1186.2C2152.06 1185.5 2151.73 1184.7 2151.59 1183.86C2150.98 1174.54 2150.9 1165.18 2150.22 1155.86C2150.02 1153.15 2150.41 1151.65 2152.81 1150.24C2161.28 1145.24 2169.61 1140.06 2177.99 1134.93C2179.35 1134.09 2180.68 1133.21 2182.99 1131.72C2176.5 1118.64 2170.08 1105.72 2163.51 1092.44C2152.33 1096.58 2142.1 1100.18 2132.04 1104.2C2128.49 1105.61 2126.42 1105.5 2123.51 1102.47C2117.51 1096.28 2110.73 1090.91 2104.44 1085.02C2103.92 1084.46 2103.53 1083.79 2103.3 1083.06C2103.06 1082.34 2102.98 1081.57 2103.07 1080.81C2105.15 1071.07 2107.22 1061.3 2109.88 1051.7C2111.16 1047.09 2109.81 1044.94 2105.65 1043.56C2104.07 1042.88 2102.56 1042.05 2101.14 1041.08L2079.52 1033.56C2078.66 1033.6 2077.79 1033.56 2076.94 1033.44C2068.32 1031.44 2069.94 1031.24 2066.37 1038.73C2062.09 1047.87 2057.95 1057.07 2054.31 1065.03L2017.81 1067.42C2011.52 1057.15 2004.94 1046.42 1998.33 1035.6C1984.03 1039.91 1971.33 1046.66 1959.17 1055.01C1963.26 1066.01 1967.23 1076.73 1971.27 1087.43C1972 1089.35 1972.07 1090.57 1970.36 1092.33C1963.65 1099.25 1957.11 1106.33 1950.9 1113.7C1949.11 1115.82 1947.78 1116.04 1945.39 1115.46C1935.56 1113.06 1925.68 1110.89 1915.84 1108.53C1913.39 1107.95 1911.92 1108.26 1910.58 1110.77C1904.58 1122.04 1901.19 1134.12 1898.81 1146.57C1898.34 1149.04 1899.62 1149.86 1901.56 1150.73C1910.56 1154.73 1919.44 1158.92 1928.45 1162.84C1931.04 1163.97 1931.97 1165.16 1931.99 1168.27C1932.04 1179.05 1932.73 1189.82 1933.21 1201.46L1902.68 1220.16C1906.78 1234.42 1913.27 1247.87 1921.89 1259.95L1956.06 1247.04C1964.12 1253.79 1971.44 1260.26 1979.16 1266.23C1982.08 1268.48 1982.84 1270.41 1981.91 1273.93C1979.42 1283.28 1977.3 1292.73 1975.13 1302.17C1974.71 1304.03 1973.64 1306.3 1976.6 1307.3C1988.66 1311.39 2000.72 1315.48 2012.78 1319.58C2015.34 1320.45 2016.7 1319.42 2017.78 1316.96C2021.78 1307.83 2026.17 1298.86 2030.02 1289.66C2031.5 1286.11 2033.63 1285.66 2037.02 1285.56C2045.49 1285.45 2053.94 1284.87 2062.34 1283.82C2065.94 1283.33 2067.41 1284.05 2069.13 1287.06C2074.67 1296.7 2080.59 1306.12 2086.24 1315.43C2095.15 1314 2118.19 1302.52 2126.06 1295.69C2122.06 1285.13 2118.06 1274.41 2113.78 1263.81C2112.71 1261.15 2113.34 1259.81 2115.18 1257.81C2121.12 1251.37 2126.6 1244.52 2132.48 1238.03C2133.07 1237.43 2133.79 1236.97 2134.58 1236.68C2135.38 1236.4 2136.22 1236.29 2137.06 1236.36C2145.8 1238.27 2154.48 1240.47 2163.15 1242.68C2168 1243.92 2169.95 1244.43 2171.5 1242.99L2184.84 1204.63C2184.51 1201.76 2182.32 1200.72 2176.4 1198ZM2103.84 1196.91C2098.11 1213.38 2086.08 1226.89 2070.39 1234.49C2054.69 1242.08 2036.63 1243.14 2020.16 1237.41V1237.41C2003.69 1231.68 1990.18 1219.65 1982.58 1203.96C1974.99 1188.26 1973.94 1170.2 1979.66 1153.73V1153.73C1985.39 1137.26 1997.42 1123.75 2013.11 1116.15C2028.81 1108.56 2046.87 1107.5 2063.34 1113.23V1113.23C2079.81 1118.96 2093.32 1130.99 2100.92 1146.68C2108.51 1162.38 2109.57 1180.44 2103.84 1196.91Z" fill="#B2B2B2"/>
<path d="M747.811 321.62L751.721 304.24L739.661 291.14C739.351 290.804 739.142 290.389 739.056 289.941C738.97 289.493 739.011 289.029 739.174 288.603C739.337 288.177 739.616 287.805 739.979 287.528C740.343 287.252 740.776 287.083 741.231 287.04L758.931 285.43L767.621 269.9C767.844 269.503 768.174 269.177 768.574 268.958C768.973 268.739 769.426 268.636 769.88 268.661C770.335 268.686 770.774 268.838 771.147 269.099C771.52 269.361 771.812 269.721 771.991 270.14L778.991 286.51L796.451 290C796.897 290.091 797.31 290.305 797.642 290.617C797.974 290.93 798.212 291.329 798.329 291.77C798.447 292.211 798.439 292.675 798.307 293.112C798.174 293.548 797.923 293.939 797.581 294.24L784.221 306L786.311 323.69C786.363 324.143 786.288 324.602 786.093 325.014C785.899 325.427 785.594 325.777 785.211 326.025C784.829 326.274 784.385 326.41 783.929 326.42C783.473 326.43 783.023 326.312 782.631 326.08L767.351 317L751.211 324.43C750.792 324.626 750.327 324.699 749.868 324.641C749.41 324.583 748.977 324.396 748.621 324.101C748.265 323.807 748 323.417 747.856 322.978C747.713 322.539 747.697 322.068 747.811 321.62V321.62Z" fill="#EA3E2A"/>
<path d="M746.759 1046.07L742.759 1045.77C743.539 1035.5 743.859 1025.1 743.699 1014.87L747.699 1014.81C747.869 1025.16 747.549 1035.68 746.759 1046.07ZM742.979 1077.07C741.239 1087.34 738.979 1097.63 736.359 1107.65L732.489 1106.65C735.119 1096.74 737.329 1086.58 739.039 1076.43L742.979 1077.07ZM745.789 983.53L741.789 983.96C740.689 973.75 739.089 963.47 737.039 953.41L740.959 952.62C743.059 962.85 744.669 973.25 745.789 983.58V983.53ZM726.929 1137.53C723.349 1147.28 719.259 1156.98 714.779 1166.37L711.169 1164.64C715.599 1155.37 719.639 1145.79 723.169 1136.16L726.929 1137.53ZM733.329 922.33L729.509 923.49C726.509 913.66 723.059 903.86 719.189 894.35L722.889 892.84C726.809 902.46 730.319 912.39 733.329 922.33V922.33ZM699.999 1194C694.679 1202.92 688.859 1211.7 682.729 1220.09L679.499 1217.74C685.569 1209.44 691.309 1200.74 696.579 1191.95L699.999 1194ZM709.769 864.49L706.229 866.33C701.499 857.23 696.229 848.23 690.719 839.58L694.079 837.42C699.699 846.12 704.999 855.23 709.759 864.44L709.769 864.49ZM663.119 1244.49C656.249 1252.28 648.929 1259.85 641.359 1266.98L638.619 1264.07C646.099 1257.07 653.339 1249.55 660.129 1241.85L663.119 1244.49ZM675.999 811.86L672.849 814.32C666.529 806.22 659.749 798.32 652.709 790.85L655.619 788.11C662.699 795.68 669.559 803.67 675.999 811.86ZM617.659 1287.31C609.469 1293.71 600.889 1299.81 592.149 1305.43L589.989 1302.08C598.619 1296.52 607.099 1290.49 615.189 1284.16L617.659 1287.31ZM633.149 766.31L630.509 769.31C622.809 762.5 614.699 755.98 606.419 749.92L608.769 746.69C617.119 752.85 625.319 759.45 633.109 766.33L633.149 766.31ZM565.089 1321.12C555.869 1325.92 546.309 1330.34 536.699 1334.26L535.189 1330.57C544.689 1326.69 554.129 1322.32 563.249 1317.57L565.089 1321.12ZM582.689 729.4L580.689 732.83C571.869 727.56 562.689 722.64 553.439 718.21L555.169 714.6C564.449 719.1 573.719 724.09 582.649 729.42L582.689 729.4ZM507.209 1344.72C497.269 1347.72 487.059 1350.32 476.879 1352.4L476.079 1348.48C486.139 1346.48 496.229 1343.88 506.079 1340.9L507.209 1344.72ZM526.289 702.43L524.909 706.18C515.279 702.63 505.369 699.49 495.439 696.85L496.439 692.99C506.469 695.69 516.509 698.86 526.249 702.45L526.289 702.43ZM445.969 1357.22C435.659 1358.34 425.149 1358.99 414.749 1359.16L414.679 1355.16C424.969 1355 435.349 1354.36 445.539 1353.25L445.969 1357.22ZM465.889 686.36L465.219 690.29C455.129 688.58 444.809 687.29 434.539 686.53H433.759L434.059 682.53L434.839 682.59C445.189 683.37 455.639 684.65 465.849 686.38L465.889 686.36ZM383.779 1354.24L383.469 1358.24H383.089C372.829 1357.46 362.519 1356.24 352.419 1354.51L353.089 1350.57C363.089 1352.24 373.259 1353.49 383.389 1354.26L383.779 1354.24ZM402.859 685.59C392.579 685.76 382.199 686.42 372.009 687.54L371.569 683.54C381.879 682.41 392.389 681.74 402.789 681.54L402.859 685.59ZM322.859 1343.99L321.859 1347.85C311.809 1345.19 301.769 1342.03 292.029 1338.45L293.399 1334.7C302.999 1338.26 312.889 1341.38 322.829 1344L322.859 1343.99ZM341.459 692.34C331.399 694.41 321.319 696.97 311.459 699.96L310.299 696.14C320.239 693.14 330.439 690.52 340.619 688.43L341.459 692.34ZM264.879 1322.7L263.159 1326.31C253.779 1321.84 244.489 1316.87 235.569 1311.54L237.569 1308.11C246.409 1313.4 255.579 1318.3 264.849 1322.72L264.879 1322.7ZM282.369 710.33C272.869 714.21 263.439 718.59 254.369 723.33L252.519 719.79C261.739 714.98 271.279 710.54 280.899 706.61L282.369 710.33ZM211.819 1291.06L209.459 1294.28C201.069 1288.16 192.859 1281.57 185.059 1274.69L187.699 1271.69C195.379 1278.51 203.489 1285 211.789 1291.08L211.819 1291.06ZM227.599 738.9C218.979 744.47 210.499 750.5 202.419 756.84L199.949 753.7C208.139 747.29 216.709 741.18 225.439 735.54L227.599 738.9ZM165.469 1250.2L162.569 1252.94C155.429 1245.38 148.569 1237.4 142.159 1229.22L145.309 1226.75C151.609 1234.86 158.389 1242.75 165.439 1250.22L165.469 1250.2ZM178.999 777C171.529 784.06 164.299 791.54 157.509 799.25L154.509 796.61C161.369 788.81 168.689 781.24 176.239 774.1L178.999 777ZM127.389 1201.54L124.029 1203.7C118.399 1194.97 113.109 1185.86 108.309 1176.7L111.849 1174.86C116.549 1184 121.779 1193 127.349 1201.58L127.389 1201.54ZM138.169 823.37C132.109 831.67 126.379 840.37 121.169 849.18L117.729 847.18C123.049 838.26 128.849 829.47 134.979 821.07L138.169 823.37ZM98.809 1146.8L95.109 1148.31C91.179 1138.68 87.649 1128.77 84.629 1118.83L88.459 1117.67C91.439 1127.49 94.919 1137.29 98.809 1146.8ZM106.509 876.49C102.089 885.76 98.059 895.35 94.509 904.99L90.759 903.62C94.329 893.86 98.409 884.16 102.879 874.77L106.509 876.49ZM80.849 1087.7L76.939 1088.5C74.859 1078.33 73.229 1067.93 72.099 1057.59L76.099 1057.16C77.189 1067.37 78.799 1077.65 80.849 1087.7ZM85.249 934.48C82.639 944.39 80.449 954.56 78.749 964.71L74.809 964.05C76.529 953.78 78.739 943.49 81.389 933.46L85.249 934.48ZM74.139 1026.3L70.139 1026.37C69.969 1016.01 70.279 1005.49 71.059 995.1L75.059 995.4C74.269 1005.67 73.999 1016.07 74.139 1026.3Z" fill="#B2B2B2"/>
<path d="M131.999 1169L105.679 1165.4L87.7191 1185C87.2605 1185.5 86.6703 1185.87 86.0151 1186.05C85.36 1186.24 84.666 1186.24 84.0117 1186.05C83.3574 1185.86 82.7687 1185.49 82.3124 1184.99C81.856 1184.48 81.55 1183.86 81.4291 1183.19L76.7791 1157.1L52.5991 1146.17C51.9793 1145.89 51.4505 1145.44 51.0726 1144.88C50.6946 1144.31 50.4827 1143.65 50.4609 1142.97C50.439 1142.29 50.6081 1141.62 50.9489 1141.03C51.2897 1140.44 51.7886 1139.96 52.3891 1139.64L75.8291 1127.11L78.8291 1100.76C78.9053 1100.08 79.1695 1099.44 79.5918 1098.91C80.0141 1098.37 80.5777 1097.97 81.2187 1097.73C81.8597 1097.5 82.5526 1097.46 83.219 1097.6C83.8853 1097.74 84.4985 1098.07 84.9891 1098.54L104.129 1116.89L130.129 1111.53C130.795 1111.39 131.485 1111.45 132.122 1111.68C132.759 1111.92 133.317 1112.33 133.733 1112.87C134.149 1113.4 134.407 1114.05 134.477 1114.72C134.547 1115.4 134.426 1116.08 134.129 1116.69L122.519 1140.56L135.619 1163.56C135.957 1164.15 136.125 1164.82 136.102 1165.5C136.08 1166.18 135.869 1166.84 135.493 1167.4C135.117 1167.97 134.591 1168.41 133.974 1168.7C133.356 1168.98 132.673 1169.08 131.999 1169Z" fill="#EA3E2A"/>
<path d="M1144.4 354.05L1144.28 339.33L1132.12 331.07C1131.8 330.863 1131.55 330.57 1131.39 330.225C1131.23 329.879 1131.17 329.496 1131.22 329.119C1131.27 328.742 1131.43 328.388 1131.68 328.097C1131.92 327.807 1132.25 327.593 1132.61 327.48L1146.54 322.81L1150.61 308.66C1150.71 308.294 1150.91 307.963 1151.19 307.707C1151.47 307.451 1151.81 307.279 1152.19 307.212C1152.56 307.145 1152.94 307.185 1153.3 307.328C1153.65 307.471 1153.95 307.711 1154.17 308.02L1162.9 319.87L1177.58 319.37C1177.96 319.35 1178.34 319.44 1178.67 319.627C1179 319.815 1179.27 320.093 1179.45 320.429C1179.63 320.765 1179.71 321.145 1179.68 321.524C1179.65 321.903 1179.51 322.266 1179.28 322.57L1170.75 334.57L1175.75 348.41C1175.89 348.764 1175.92 349.15 1175.85 349.523C1175.77 349.895 1175.59 350.239 1175.33 350.514C1175.07 350.789 1174.73 350.983 1174.37 351.075C1174 351.166 1173.61 351.15 1173.25 351.03L1159.25 346.59L1147.67 355.59C1147.38 355.83 1147.02 355.983 1146.65 356.029C1146.27 356.076 1145.89 356.015 1145.55 355.854C1145.2 355.693 1144.92 355.438 1144.71 355.118C1144.51 354.799 1144.4 354.428 1144.4 354.05Z" fill="#DD7168"/>
<path d="M1810.24 1305.76L1819.93 1287.58L1810.48 1269.31C1810.24 1268.84 1810.13 1268.31 1810.17 1267.79C1810.21 1267.26 1810.4 1266.76 1810.71 1266.33C1811.02 1265.91 1811.45 1265.58 1811.94 1265.38C1812.43 1265.18 1812.96 1265.12 1813.48 1265.21L1833.72 1268.78L1848.17 1254.09C1848.54 1253.71 1849.01 1253.45 1849.52 1253.32C1850.03 1253.2 1850.57 1253.22 1851.07 1253.38C1851.57 1253.55 1852.02 1253.85 1852.35 1254.26C1852.69 1254.66 1852.91 1255.16 1852.98 1255.68L1855.8 1276.07L1874.18 1285.26C1874.65 1285.5 1875.05 1285.86 1875.33 1286.31C1875.6 1286.76 1875.75 1287.27 1875.75 1287.8C1875.75 1288.33 1875.6 1288.84 1875.33 1289.29C1875.05 1289.74 1874.65 1290.1 1874.18 1290.34L1855.69 1299.34L1852.6 1319.7C1852.52 1320.22 1852.3 1320.71 1851.96 1321.11C1851.62 1321.52 1851.17 1321.81 1850.67 1321.97C1850.16 1322.14 1849.63 1322.15 1849.11 1322.03C1848.6 1321.9 1848.14 1321.63 1847.77 1321.25L1833.51 1306.45L1813.22 1309.84C1812.7 1309.93 1812.17 1309.87 1811.68 1309.67C1811.2 1309.48 1810.77 1309.15 1810.46 1308.72C1810.15 1308.3 1809.97 1307.8 1809.93 1307.27C1809.89 1306.75 1810 1306.23 1810.24 1305.76V1305.76Z" fill="#DD7168"/>
<path d="M1356 451L1355 451.42C1354.56 451.606 1354.06 451.626 1353.6 451.475C1353.14 451.324 1352.76 451.014 1352.51 450.6L1346.27 440.45L1337.89 443.85L1343.78 453.42C1343.94 453.672 1344.04 453.956 1344.07 454.252C1344.11 454.547 1344.08 454.847 1343.98 455.128C1343.88 455.41 1343.73 455.667 1343.52 455.88C1343.31 456.093 1343.06 456.257 1342.78 456.36L1341.78 456.78C1341.34 456.963 1340.84 456.981 1340.39 456.831C1339.93 456.68 1339.55 456.371 1339.3 455.96L1333 445.77L1327.22 448.12C1326.97 448.222 1326.71 448.274 1326.44 448.273C1326.18 448.272 1325.91 448.217 1325.67 448.113C1325.42 448.009 1325.2 447.857 1325.02 447.666C1324.83 447.474 1324.69 447.248 1324.59 447C1324.49 446.755 1324.44 446.492 1324.44 446.226C1324.44 445.96 1324.49 445.697 1324.59 445.452C1324.7 445.207 1324.85 444.986 1325.04 444.8C1325.23 444.614 1325.45 444.468 1325.7 444.37L1330.76 442.37L1325.57 433.74L1320.11 435.95C1319.86 436.053 1319.6 436.105 1319.34 436.104C1319.07 436.104 1318.81 436.05 1318.56 435.947C1318.32 435.844 1318.1 435.693 1317.91 435.503C1317.72 435.312 1317.58 435.087 1317.48 434.84C1317.38 434.594 1317.32 434.33 1317.32 434.063C1317.32 433.796 1317.38 433.532 1317.48 433.286C1317.58 433.04 1317.73 432.817 1317.92 432.631C1318.12 432.444 1318.34 432.298 1318.59 432.2L1323.32 430.28L1317.63 421C1317.47 420.749 1317.38 420.465 1317.34 420.171C1317.31 419.877 1317.34 419.579 1317.44 419.298C1317.53 419.018 1317.69 418.762 1317.89 418.55C1318.1 418.337 1318.35 418.174 1318.63 418.07L1319.63 417.68C1320.07 417.495 1320.56 417.474 1321.02 417.621C1321.47 417.768 1321.86 418.072 1322.11 418.48L1328.23 428.32L1336.61 424.93L1330.92 415.64C1330.76 415.389 1330.67 415.105 1330.63 414.811C1330.6 414.517 1330.63 414.219 1330.73 413.938C1330.82 413.658 1330.98 413.402 1331.18 413.19C1331.39 412.977 1331.64 412.814 1331.92 412.71L1332.8 412.35C1333.24 412.166 1333.74 412.147 1334.19 412.295C1334.65 412.444 1335.03 412.751 1335.28 413.16L1341.4 423L1347.18 420.66C1347.43 420.558 1347.69 420.505 1347.95 420.506C1348.22 420.506 1348.48 420.56 1348.73 420.663C1348.97 420.767 1349.19 420.918 1349.38 421.108C1349.57 421.298 1349.71 421.523 1349.81 421.77C1349.91 422.015 1349.96 422.279 1349.96 422.544C1349.96 422.81 1349.91 423.073 1349.81 423.318C1349.7 423.563 1349.55 423.785 1349.36 423.971C1349.17 424.156 1348.95 424.302 1348.7 424.4L1343.7 426.4L1348.96 435L1354.42 432.79C1354.67 432.688 1354.93 432.635 1355.19 432.636C1355.46 432.636 1355.72 432.69 1355.97 432.793C1356.21 432.897 1356.43 433.048 1356.62 433.238C1356.81 433.428 1356.95 433.653 1357.05 433.9C1357.15 434.146 1357.21 434.41 1357.21 434.677C1357.21 434.944 1357.16 435.208 1357.05 435.454C1356.95 435.7 1356.8 435.923 1356.61 436.11C1356.41 436.296 1356.19 436.442 1355.94 436.54L1351.21 438.45L1357 448C1357.17 448.254 1357.28 448.543 1357.32 448.845C1357.36 449.148 1357.33 449.456 1357.24 449.745C1357.14 450.035 1356.98 450.299 1356.76 450.516C1356.55 450.734 1356.29 450.899 1356 451V451ZM1344 437L1338.73 428.4L1330.35 431.8L1335.62 440.4L1344 437Z" fill="#EA3E2A"/>
<path d="M1713.08 444.94C1710.62 445.04 1703.9 447.3 1694.08 465.89C1681.52 489.63 1663.16 561.34 1663.16 561.34L1717.96 581.75L1724.96 566.75L1736.56 451.51C1736.56 451.51 1713.76 444.91 1713.08 444.94Z" fill="#CB4C37"/>
<path d="M1785.52 434.61C1769.85 434.61 1731.08 439.2 1713.08 444.95C1713.08 444.95 1699.86 558.58 1724.98 644.95C1730.6 664.28 1720.33 725.07 1720.33 725.07L1882.72 722.93C1882.72 722.93 1863.48 575.93 1870.72 552.21C1877.96 528.49 1878.14 445.73 1878.14 445.73C1878.14 445.73 1877.03 445.56 1841.65 439.45C1823.09 436.395 1804.33 434.777 1785.52 434.61Z" fill="#DD513A"/>
<path d="M1807.22 939C1807.22 939 1803.63 980.46 1797.02 991.94C1790.41 1003.42 1797.37 1022.94 1797.72 1025.62C1798.07 1028.3 1811.62 1032.13 1833.18 1029.84C1854.74 1027.55 1854.38 1022.56 1852.64 1014.53C1850.9 1006.5 1839.43 996.15 1838.74 988.53C1838.05 980.91 1845.34 953.32 1845.34 953.32L1807.22 939Z" fill="#F7A491"/>
<path d="M1738.65 690.83C1738.65 690.83 1626.55 684.6 1601.52 699.77C1576.49 714.94 1619.31 789.33 1619.31 789.33C1619.31 789.33 1697.31 785.73 1850.09 794.55C1886.27 796.64 1889.39 700.22 1882.62 692.24C1875.85 684.26 1738.65 690.83 1738.65 690.83Z" fill="black"/>
<path d="M1835.86 1033.08C1858.06 1030.72 1855.31 1019.82 1853.52 1011.54C1852.4 1006.36 1846.04 1000.25 1842.24 994.47C1840.24 996.05 1837.03 998.84 1827.39 1001.69C1817.39 1004.69 1803.66 998.79 1794.92 995.13C1791.8 1006.72 1791.66 1021.51 1791.92 1023.76C1792.31 1026.52 1813.67 1035.45 1835.86 1033.08Z" fill="#0D0D0D"/>
<path d="M1820.84 771C1816.36 804.89 1794.19 973.6 1794.19 973.6L1845.64 979.98C1845.64 979.98 1908.91 759.78 1905.64 726.1C1902.37 692.42 1878.72 689.58 1878.72 689.58C1878.72 689.58 1832.69 681.31 1820.84 771Z" fill="#0D0D0D"/>
<path d="M1879.91 458.34C1864.73 452.65 1857.3 589.45 1855.26 645.76C1828.37 648.35 1781.51 645.76 1769.84 644.9C1764.35 644.49 1751.69 639.9 1746.24 639.14C1740.79 638.38 1735.57 638.03 1732.82 638.51C1731.82 638.68 1703.82 650.14 1701.39 652.66C1698.39 655.77 1690.39 663.66 1691.74 667.03C1693.09 670.4 1707.2 657.56 1707.2 657.56L1714.09 653.69C1705.51 662.08 1689.14 673.11 1691.5 677.13C1693.86 681.15 1708.56 669.85 1719.08 662.22C1710.08 670.37 1698.85 684.95 1701.43 687.22C1703.75 689.22 1716.5 672.38 1730.13 667.51C1735.13 665.71 1740.22 670.7 1744.19 671.3C1747.11 671.75 1751.62 672.69 1754.48 671.88L1769.24 667.69C1774.24 668.15 1774.39 671.12 1779.47 672.2C1785.36 673.46 1795.03 674.78 1802.53 676.61C1845.75 687.17 1860.16 692.07 1873.4 692.06C1913.47 692.05 1915.8 471.8 1879.91 458.34Z" fill="#F7A491"/>
<path d="M1908.73 586.78C1911.57 529.1 1911.16 458.01 1878.82 445.88C1866.07 441.1 1843.58 469.88 1847.62 587.95C1864.88 589.37 1890.22 590.52 1908.73 586.78Z" fill="#CB4C37"/>
<path d="M1648.61 976.17C1648.61 976.17 1656.04 989.29 1650.2 1000.3C1644.36 1011.31 1613.67 1027.48 1610.48 1033.45C1607.29 1039.42 1608.48 1043.64 1608.48 1043.64L1699.58 1021.3L1692.58 993.85L1684.06 974.85L1648.61 976.17Z" fill="#F7A491"/>
<path d="M1645.5 1006.17C1645.5 1006.17 1671.11 1010.6 1681.26 1002.5C1691.41 994.4 1690.73 992.92 1694.48 994.31C1696.89 995.2 1700.55 1006.14 1702.86 1013.84C1703.15 1014.81 1703.24 1015.83 1703.12 1016.84C1703.01 1017.84 1702.69 1018.82 1702.18 1019.7C1701.68 1020.58 1701 1021.34 1700.2 1021.96C1699.39 1022.57 1698.46 1023.01 1697.48 1023.25L1602.62 1046.69C1595.42 1048.08 1590.62 1043.58 1595.5 1037.8C1598.82 1033.8 1602.99 1030.8 1605.29 1028.69C1612.35 1022.33 1645.5 1006.17 1645.5 1006.17Z" fill="#0D0D0D"/>
<path d="M1657.54 717.4C1650.3 702.15 1633.82 682.3 1604.82 694.25C1577.16 705.66 1569.74 733.69 1578.46 762.39C1587.18 791.09 1644.64 959.82 1646.64 983.02L1692.5 983.32C1692.5 983.32 1684.17 849.72 1682.12 817.43C1680.16 786.36 1670.08 743.79 1657.54 717.4Z" fill="#0D0D0D"/>
<path d="M1583.08 562H1736.4C1738.39 562.002 1740.32 562.594 1741.97 563.702C1743.62 564.809 1744.9 566.382 1745.65 568.22L1792.86 683.75H1877.39C1878.53 683.753 1879.61 684.206 1880.42 685.01C1881.22 685.814 1881.67 686.904 1881.67 688.04V688.04C1881.67 689.176 1881.22 690.266 1880.42 691.07C1879.61 691.874 1878.53 692.327 1877.39 692.33H1636.82C1633.57 692.324 1630.4 691.377 1627.68 689.602C1624.96 687.826 1622.81 685.301 1621.5 682.33L1574 576.13C1573.31 574.609 1573.01 572.939 1573.13 571.274C1573.26 569.608 1573.79 567.999 1574.69 566.594C1575.6 565.189 1576.84 564.032 1578.3 563.23C1579.77 562.427 1581.41 562.005 1583.08 562V562Z" fill="#7E7E7F"/>
<path d="M1665.63 629.27C1666.63 634.46 1671.18 637.93 1675.71 637.02C1680.24 636.11 1683.07 631.17 1682.03 626.02C1680.99 620.87 1676.48 617.36 1671.96 618.27C1667.44 619.18 1664.59 624.08 1665.63 629.27Z" fill="white"/>
<path d="M1749.08 295.82C1753.71 294.29 1758.24 292.477 1762.65 290.39C1767.65 287.99 1774.05 285.19 1778.11 284.56C1786.67 283.24 1801.37 284.12 1809.49 292.93C1819.6 303.93 1837.57 294.93 1833.95 352.36C1829.85 417.36 1793.69 410.26 1792.81 409.16C1791.93 408.06 1760.56 367.55 1760.56 367.55C1760.56 367.55 1749.56 391.55 1749.56 390.67C1749.56 389.79 1693.58 314.51 1749.08 295.82Z" fill="#2B2B2B"/>
<path d="M1776.54 414L1773.42 437.23C1773.42 437.23 1766.42 470.71 1775.42 477.17C1784.42 483.63 1813.68 436.28 1813.68 436.28L1810.59 377.39L1776.54 414Z" fill="#F7A491"/>
<path d="M1811.59 396.45C1804.16 416.53 1786.46 428.88 1773.89 433.67L1776.54 413.97L1810.54 377.36L1811.59 396.45Z" fill="#DD7168"/>
<path d="M1778.39 313.29C1759.32 310.21 1742.22 325.54 1742.7 344.62C1742.94 354.602 1743.81 364.558 1745.31 374.43C1749.46 401.26 1767.76 424.88 1779.86 422.77C1791.96 420.66 1822.41 397.52 1817.05 359.34C1813.74 335.77 1798.39 316.52 1778.39 313.29Z" fill="#F7A491"/>
<path d="M1808.65 363.9C1809.65 369.8 1814.4 373.9 1819.21 373.06C1824.02 372.22 1827.08 366.76 1826.06 360.86C1825.04 354.96 1820.32 350.86 1815.51 351.7C1810.7 352.54 1807.63 358 1808.65 363.9Z" fill="#F7A491"/>
<path d="M1815.51 351.7C1815.51 351.7 1800.88 355.34 1795.45 345.93C1790.02 336.52 1770.6 316.21 1745.92 324.63C1721.24 333.05 1767.64 304.15 1769.61 304.15C1771.58 304.15 1795.28 303.99 1795.28 303.99C1795.28 303.99 1813.55 318.99 1814.21 320.66C1814.87 322.33 1820.13 340.31 1820.13 340.31L1815.51 351.7Z" fill="#2B2B2B"/>
<path d="M1788.74 391L1762.11 396.09C1762.11 396.09 1764.65 406.09 1776.43 404.22C1790.78 401.87 1788.74 391 1788.74 391Z" fill="white"/>
<path d="M770.59 1158.37H644.85C626.67 1372.17 574.85 1537.76 480.16 1642.1H935.28C835 1536.2 785.27 1368.71 770.59 1158.37Z" fill="#EFF2F6"/>
<path d="M544.431 1647.68C547.792 1634.43 547.463 1620.52 543.478 1607.45C539.493 1594.37 532.006 1582.64 521.827 1573.52C511.648 1564.4 499.167 1558.24 485.737 1555.71C472.307 1553.18 458.44 1554.38 445.641 1559.17C434.556 1535.32 416.038 1515.7 392.862 1503.26C369.687 1490.82 343.103 1486.22 317.096 1490.16C291.089 1494.11 267.061 1506.37 248.615 1525.13C230.168 1543.88 218.297 1568.1 214.781 1594.17C213.571 1594.09 212.341 1594.05 211.111 1594.05C199.92 1594.05 188.951 1597.17 179.444 1603.08C169.937 1608.98 162.27 1617.43 157.311 1627.46C152.669 1623.25 146.977 1620.37 140.834 1619.12C134.691 1617.88 128.325 1618.31 122.409 1620.38C116.494 1622.46 111.247 1626.09 107.224 1630.89C103.201 1635.7 100.549 1641.5 99.5508 1647.69L544.431 1647.68Z" fill="#EFF2F6"/>
<path d="M1378.33 1647.68C1378.42 1646.68 1378.47 1645.68 1378.47 1644.68C1378.31 1634.87 1374.3 1625.51 1367.3 1618.62C1360.3 1611.74 1350.88 1607.88 1341.07 1607.88C1331.25 1607.88 1321.83 1611.74 1314.83 1618.62C1307.83 1625.51 1303.82 1634.87 1303.66 1644.68C1303.66 1645.68 1303.66 1646.68 1303.79 1647.68H1378.33Z" fill="#E6F2FF"/>
<path d="M1292.79 1647.68C1292.99 1645.49 1293.11 1643.28 1293.11 1641.04C1293.11 1629.26 1290.27 1617.66 1284.82 1607.22C1279.36 1596.78 1271.47 1587.82 1261.8 1581.1C1252.13 1574.37 1240.98 1570.08 1229.3 1568.6C1217.62 1567.12 1205.75 1568.48 1194.71 1572.58C1193.7 1558.96 1189.97 1545.69 1183.74 1533.54C1177.51 1521.39 1168.9 1510.62 1158.43 1501.86C1147.96 1493.1 1135.84 1486.53 1122.78 1482.54C1109.72 1478.55 1096 1477.23 1082.42 1478.64C1068.84 1480.06 1055.68 1484.19 1043.72 1490.78C1031.77 1497.37 1021.26 1506.3 1012.82 1517.03C1004.38 1527.76 998.176 1540.08 994.583 1553.25C990.989 1566.42 990.077 1580.18 991.899 1593.71C982.136 1590.72 971.864 1589.75 961.715 1590.88C951.565 1592 941.754 1595.19 932.883 1600.25C924.012 1605.31 916.27 1612.13 910.134 1620.29C903.997 1628.45 899.595 1637.78 897.199 1647.71L1292.79 1647.68Z" fill="#EFF2F6"/>
<path d="M630.42 1116.21H785V1155C785 1156.54 784.39 1158.01 783.304 1159.09C782.218 1160.18 780.746 1160.79 779.21 1160.79H636.21C634.674 1160.79 633.202 1160.18 632.116 1159.09C631.03 1158.01 630.42 1156.54 630.42 1155V1116.2V1116.21Z" fill="#DD513A"/>
<path d="M587.22 900.4C587.22 900.4 528.91 978.07 487.45 1025.84C431.51 1090.31 446.37 1098.52 496.45 1277.32C623.97 1191.45 569.57 1067.54 615.36 1042.57C699 997 587.22 900.4 587.22 900.4Z" fill="#A01E1E"/>
<path d="M828.22 900.4C828.22 900.4 886.53 978.07 927.98 1025.84C983.98 1090.31 969.07 1098.52 918.98 1277.32C791.46 1191.45 845.85 1067.54 800.07 1042.57C716.49 997 828.22 900.4 828.22 900.4Z" fill="#A01E1E"/>
<path d="M866.319 839.12C866.319 689.38 779.779 555.7 734.989 496.52C731.87 492.401 727.854 489.046 723.245 486.712C718.636 484.377 713.555 483.124 708.389 483.047C703.223 482.97 698.108 484.071 693.431 486.267C688.754 488.463 684.639 491.696 681.399 495.72C635.759 552.36 549.119 679.92 549.119 831.85C549.119 893.23 591.189 1067.56 613.119 1111.99C615.687 1117.21 619.665 1121.61 624.602 1124.69C629.54 1127.77 635.24 1129.4 641.059 1129.41H777.739C783.557 1129.4 789.257 1127.77 794.194 1124.69C799.132 1121.62 803.11 1117.22 805.679 1112C827.609 1067.56 866.319 900.51 866.319 839.12Z" fill="#A01E1E"/>
<path d="M805.68 1112C827.61 1067.57 866.32 900.52 866.32 839.13C866.32 747.93 834.22 662.69 799 596.6C771.397 582.211 740.739 574.666 709.61 574.6C674.51 574.6 641.27 584.19 611.61 601.29C578.25 663.91 549.15 743.77 549.15 831.83C549.15 893.21 591.22 1067.54 613.15 1111.97C615.718 1117.19 619.696 1121.59 624.633 1124.67C629.571 1127.75 635.272 1129.38 641.09 1129.39H777.74C783.556 1129.39 789.254 1127.75 794.192 1124.68C799.129 1121.61 803.108 1117.22 805.68 1112Z" fill="#EA3E2A"/>
<g style="mix-blend-mode:multiply">
<path d="M713.79 865.18C767.572 865.18 811.17 821.581 811.17 767.8C811.17 714.018 767.572 670.42 713.79 670.42C660.009 670.42 616.41 714.018 616.41 767.8C616.41 821.581 660.009 865.18 713.79 865.18Z" fill="#EBD6AC"/>
</g>
<path d="M804.341 782.208C812.958 729.121 776.908 679.1 723.822 670.483C670.735 661.866 620.714 697.915 612.097 751.002C603.48 804.089 639.529 854.11 692.616 862.727C745.703 871.344 795.723 835.294 804.341 782.208Z" fill="#EA3E2A"/>
<path d="M615.18 768C615.188 752.781 618.761 737.776 625.613 724.187C632.465 710.598 642.405 698.803 654.637 689.748C666.869 680.693 681.053 674.63 696.05 672.045C711.048 669.459 726.443 670.423 741 674.86C728.779 670.502 715.811 668.63 702.856 669.354C689.902 670.078 677.222 673.384 665.563 679.076C653.904 684.768 643.499 692.733 634.961 702.502C626.422 712.271 619.922 723.648 615.842 735.965C611.761 748.281 610.183 761.289 611.2 774.224C612.216 787.158 615.807 799.76 621.762 811.287C627.716 822.815 635.914 833.037 645.874 841.352C655.834 849.668 667.355 855.909 679.76 859.71C660.856 852.944 644.504 840.501 632.944 824.084C621.383 807.667 615.179 788.079 615.18 768V768Z" fill="#224E8F"/>
<g style="mix-blend-mode:multiply">
<path d="M716.849 851.39C716.851 852.846 716.421 854.27 715.613 855.482C714.806 856.693 713.657 857.638 712.312 858.197C710.968 858.755 709.488 858.903 708.059 858.62C706.631 858.337 705.318 857.637 704.288 856.608C703.258 855.579 702.556 854.268 702.271 852.84C701.986 851.412 702.131 849.931 702.688 848.586C703.245 847.24 704.188 846.09 705.399 845.281C706.609 844.472 708.033 844.04 709.489 844.04C711.438 844.043 713.307 844.818 714.687 846.195C716.066 847.573 716.844 849.441 716.849 851.39Z" fill="#D1CFCB"/>
</g>
<g style="mix-blend-mode:multiply">
<path d="M716.38 684.2C716.38 685.654 715.949 687.075 715.141 688.284C714.333 689.492 713.185 690.434 711.842 690.991C710.499 691.547 709.022 691.692 707.596 691.409C706.17 691.125 704.86 690.425 703.832 689.397C702.805 688.369 702.105 687.06 701.821 685.634C701.537 684.208 701.683 682.73 702.239 681.387C702.795 680.044 703.738 678.896 704.946 678.089C706.155 677.281 707.576 676.85 709.03 676.85C710.979 676.85 712.849 677.624 714.227 679.003C715.605 680.381 716.38 682.251 716.38 684.2V684.2Z" fill="#D1CFCB"/>
</g>
<g style="mix-blend-mode:multiply">
<path d="M779.251 712.14C779.251 713.594 778.82 715.015 778.012 716.224C777.204 717.432 776.057 718.374 774.713 718.931C773.37 719.487 771.893 719.632 770.467 719.349C769.041 719.065 767.731 718.365 766.704 717.337C765.676 716.309 764.976 715 764.692 713.574C764.408 712.148 764.554 710.67 765.11 709.327C765.667 707.984 766.609 706.836 767.817 706.029C769.026 705.221 770.447 704.79 771.901 704.79C773.85 704.79 775.72 705.564 777.098 706.943C778.476 708.321 779.251 710.191 779.251 712.14Z" fill="#D1CFCB"/>
</g>
<g style="mix-blend-mode:multiply">
<path d="M657.001 827.62C657.001 829.074 656.57 830.495 655.762 831.703C654.954 832.912 653.807 833.854 652.463 834.411C651.12 834.967 649.643 835.112 648.217 834.829C646.791 834.545 645.481 833.845 644.454 832.817C643.426 831.789 642.726 830.48 642.442 829.054C642.158 827.628 642.304 826.15 642.86 824.807C643.417 823.464 644.359 822.316 645.567 821.509C646.776 820.701 648.197 820.27 649.651 820.27C651.6 820.27 653.47 821.044 654.848 822.423C656.226 823.801 657.001 825.671 657.001 827.62V827.62Z" fill="#D1CFCB"/>
</g>
<g style="mix-blend-mode:multiply">
<path d="M779.251 824.38C779.249 825.833 778.816 827.253 778.007 828.461C777.198 829.668 776.05 830.609 774.707 831.163C773.363 831.718 771.886 831.862 770.461 831.578C769.036 831.293 767.727 830.592 766.7 829.564C765.673 828.535 764.974 827.226 764.691 825.8C764.408 824.375 764.555 822.897 765.111 821.555C765.668 820.213 766.61 819.065 767.818 818.258C769.027 817.451 770.448 817.02 771.901 817.02C772.867 817.02 773.823 817.21 774.716 817.58C775.608 817.95 776.419 818.493 777.102 819.176C777.784 819.86 778.325 820.671 778.694 821.564C779.063 822.457 779.252 823.414 779.251 824.38V824.38Z" fill="#D1CFCB"/>
</g>
<g style="mix-blend-mode:multiply">
<path d="M654.091 711C654.091 712.454 653.66 713.875 652.852 715.083C652.044 716.292 650.896 717.234 649.553 717.79C648.21 718.347 646.732 718.492 645.307 718.209C643.881 717.925 642.571 717.225 641.543 716.197C640.515 715.169 639.815 713.86 639.532 712.434C639.248 711.008 639.394 709.53 639.95 708.187C640.506 706.844 641.448 705.696 642.657 704.889C643.866 704.081 645.287 703.65 646.741 703.65C648.689 703.653 650.557 704.428 651.935 705.806C653.313 707.183 654.088 709.051 654.091 711Z" fill="#D1CFCB"/>
</g>
<g style="mix-blend-mode:multiply">
<path d="M800.999 768C801.001 769.456 800.571 770.88 799.764 772.092C798.956 773.303 797.807 774.248 796.463 774.807C795.118 775.365 793.638 775.513 792.21 775.23C790.781 774.947 789.469 774.247 788.439 773.218C787.408 772.189 786.706 770.877 786.421 769.449C786.137 768.021 786.282 766.541 786.839 765.196C787.395 763.85 788.339 762.7 789.549 761.891C790.76 761.082 792.183 760.65 793.639 760.65C795.59 760.65 797.46 761.424 798.84 762.802C800.22 764.18 800.997 766.05 800.999 768V768Z" fill="#D1CFCB"/>
</g>
<g style="mix-blend-mode:multiply">
<path d="M631.3 768C631.3 769.454 630.869 770.875 630.061 772.083C629.253 773.292 628.105 774.234 626.762 774.79C625.419 775.347 623.941 775.492 622.516 775.209C621.09 774.925 619.78 774.225 618.752 773.197C617.724 772.169 617.024 770.86 616.741 769.434C616.457 768.008 616.603 766.53 617.159 765.187C617.715 763.844 618.658 762.696 619.866 761.889C621.075 761.081 622.496 760.65 623.95 760.65C625.899 760.65 627.768 761.424 629.147 762.803C630.525 764.181 631.3 766.051 631.3 768V768Z" fill="#D1CFCB"/>
</g>
<path d="M708.19 838C747.645 838 779.63 806.015 779.63 766.56C779.63 727.105 747.645 695.12 708.19 695.12C668.735 695.12 636.75 727.105 636.75 766.56C636.75 806.015 668.735 838 708.19 838Z" fill="#B2B2B2"/>
<g style="mix-blend-mode:multiply">
<path d="M644.94 775.36C644.941 761.524 648.959 747.987 656.507 736.391C664.055 724.795 674.807 715.641 687.459 710.04C700.11 704.439 714.115 702.632 727.774 704.838C741.432 707.045 754.156 713.17 764.4 722.47C758.294 714.699 750.641 708.279 741.926 703.618C733.211 698.956 723.623 696.153 713.77 695.387C703.916 694.62 694.01 695.906 684.679 699.164C675.348 702.422 666.795 707.581 659.56 714.314C652.325 721.048 646.565 729.209 642.646 738.282C638.727 747.355 636.733 757.143 636.79 767.026C636.848 776.91 638.955 786.673 642.979 795.7C647.004 804.727 652.857 812.821 660.17 819.47C650.28 806.897 644.915 791.357 644.94 775.36V775.36Z" fill="#DAECF2"/>
</g>
<path d="M715.54 850.25C715.542 851.706 715.112 853.131 714.304 854.343C713.496 855.555 712.347 856.499 711.001 857.058C709.656 857.616 708.176 857.763 706.747 857.479C705.318 857.195 704.006 856.494 702.976 855.464C701.946 854.434 701.245 853.122 700.961 851.693C700.678 850.265 700.824 848.784 701.382 847.439C701.941 846.093 702.886 844.944 704.098 844.136C705.309 843.328 706.734 842.898 708.19 842.9C710.14 842.9 712.009 843.674 713.388 845.053C714.766 846.431 715.54 848.301 715.54 850.25Z" fill="#878583"/>
<g style="mix-blend-mode:screen">
<path d="M708.189 854.33C707.382 854.33 706.594 854.091 705.923 853.642C705.252 853.194 704.729 852.557 704.42 851.811C704.111 851.066 704.03 850.245 704.188 849.454C704.345 848.662 704.734 847.935 705.304 847.365C705.875 846.794 706.602 846.406 707.393 846.248C708.185 846.091 709.005 846.172 709.751 846.48C710.496 846.789 711.133 847.312 711.582 847.983C712.03 848.654 712.269 849.443 712.269 850.25C712.267 851.331 711.836 852.367 711.071 853.132C710.307 853.897 709.271 854.327 708.189 854.33Z" fill="#858585"/>
</g>
<path d="M715.069 683.06C715.069 684.514 714.638 685.935 713.83 687.143C713.023 688.352 711.875 689.294 710.532 689.85C709.189 690.407 707.711 690.552 706.285 690.269C704.859 689.985 703.55 689.285 702.522 688.257C701.494 687.229 700.794 685.92 700.51 684.494C700.227 683.068 700.372 681.59 700.929 680.247C701.485 678.904 702.427 677.756 703.636 676.949C704.844 676.141 706.265 675.71 707.719 675.71C708.684 675.71 709.64 675.9 710.532 676.269C711.424 676.639 712.234 677.18 712.916 677.863C713.599 678.545 714.14 679.355 714.51 680.247C714.879 681.139 715.069 682.095 715.069 683.06V683.06Z" fill="#878583"/>
<g style="mix-blend-mode:screen">
<path d="M707.721 687.14C706.914 687.14 706.125 686.901 705.454 686.452C704.783 686.004 704.26 685.367 703.951 684.621C703.642 683.876 703.562 683.055 703.719 682.264C703.876 681.473 704.265 680.746 704.836 680.175C705.406 679.604 706.133 679.216 706.925 679.058C707.716 678.901 708.536 678.982 709.282 679.291C710.028 679.599 710.665 680.122 711.113 680.793C711.561 681.464 711.801 682.253 711.801 683.06C711.801 684.142 711.371 685.18 710.606 685.945C709.84 686.71 708.803 687.14 707.721 687.14V687.14Z" fill="#858585"/>
</g>
<path d="M777.999 711C778.001 712.456 777.571 713.88 776.764 715.092C775.956 716.303 774.807 717.248 773.463 717.807C772.118 718.365 770.638 718.513 769.21 718.23C767.781 717.947 766.469 717.247 765.439 716.218C764.408 715.189 763.706 713.877 763.421 712.449C763.137 711.021 763.282 709.541 763.839 708.196C764.395 706.85 765.339 705.7 766.549 704.891C767.76 704.082 769.183 703.65 770.639 703.65C772.589 703.653 774.458 704.427 775.837 705.805C777.217 707.182 777.994 709.05 777.999 711V711Z" fill="#878583"/>
<g style="mix-blend-mode:screen">
<path d="M770.59 715.08C769.781 715.08 768.99 714.84 768.318 714.391C767.645 713.941 767.121 713.302 766.811 712.555C766.502 711.808 766.421 710.985 766.579 710.192C766.736 709.399 767.126 708.67 767.698 708.098C768.27 707.526 768.999 707.136 769.792 706.978C770.585 706.821 771.408 706.902 772.155 707.211C772.902 707.521 773.541 708.045 773.991 708.718C774.44 709.39 774.68 710.181 774.68 710.99C774.68 711.527 774.574 712.059 774.369 712.555C774.163 713.051 773.862 713.502 773.482 713.882C773.102 714.262 772.651 714.563 772.155 714.769C771.659 714.974 771.127 715.08 770.59 715.08V715.08Z" fill="#858585"/>
</g>
<path d="M655.719 826.48C655.719 827.934 655.288 829.355 654.481 830.563C653.673 831.772 652.525 832.714 651.182 833.27C649.839 833.827 648.361 833.972 646.936 833.689C645.51 833.405 644.2 832.705 643.172 831.677C642.144 830.649 641.444 829.34 641.161 827.914C640.877 826.488 641.023 825.01 641.579 823.667C642.135 822.324 643.077 821.176 644.286 820.369C645.495 819.561 646.916 819.13 648.37 819.13C650.319 819.13 652.188 819.904 653.567 821.283C654.945 822.661 655.719 824.531 655.719 826.48Z" fill="#878583"/>
<g style="mix-blend-mode:screen">
<path d="M648.369 830.56C647.562 830.56 646.773 830.321 646.102 829.872C645.431 829.424 644.908 828.787 644.6 828.041C644.291 827.296 644.21 826.475 644.367 825.684C644.525 824.892 644.913 824.166 645.484 823.595C646.055 823.024 646.782 822.636 647.573 822.478C648.365 822.321 649.185 822.402 649.93 822.71C650.676 823.019 651.313 823.542 651.761 824.213C652.21 824.884 652.449 825.673 652.449 826.48C652.449 827.562 652.019 828.6 651.254 829.365C650.489 830.13 649.451 830.56 648.369 830.56V830.56Z" fill="#858585"/>
</g>
<path d="M777.999 823.23C778.001 824.686 777.571 826.11 776.764 827.322C775.956 828.533 774.807 829.478 773.463 830.037C772.118 830.595 770.638 830.743 769.21 830.46C767.781 830.177 766.469 829.477 765.439 828.448C764.408 827.419 763.706 826.107 763.421 824.679C763.137 823.251 763.282 821.771 763.839 820.426C764.395 819.08 765.339 817.93 766.549 817.121C767.76 816.312 769.183 815.88 770.639 815.88C772.589 815.883 774.458 816.657 775.837 818.035C777.217 819.413 777.994 821.28 777.999 823.23V823.23Z" fill="#878583"/>
<g style="mix-blend-mode:screen">
<path d="M770.59 827.31C772.843 827.31 774.67 825.483 774.67 823.23C774.67 820.977 772.843 819.15 770.59 819.15C768.336 819.15 766.51 820.977 766.51 823.23C766.51 825.483 768.336 827.31 770.59 827.31Z" fill="#858585"/>
</g>
<path d="M652.78 709.83C652.78 711.284 652.349 712.705 651.541 713.913C650.734 715.122 649.586 716.064 648.243 716.621C646.9 717.177 645.422 717.322 643.996 717.039C642.57 716.755 641.261 716.055 640.233 715.027C639.205 713.999 638.505 712.69 638.221 711.264C637.938 709.838 638.083 708.36 638.64 707.017C639.196 705.674 640.138 704.526 641.347 703.719C642.555 702.911 643.976 702.48 645.43 702.48C646.395 702.48 647.351 702.67 648.243 703.039C649.135 703.409 649.945 703.95 650.627 704.633C651.31 705.315 651.851 706.126 652.221 707.017C652.59 707.909 652.78 708.865 652.78 709.83V709.83Z" fill="#878583"/>
<g style="mix-blend-mode:screen">
<path d="M645.43 713.91C644.623 713.91 643.834 713.671 643.163 713.222C642.492 712.774 641.969 712.137 641.66 711.391C641.351 710.646 641.271 709.826 641.428 709.034C641.585 708.243 641.974 707.516 642.545 706.945C643.115 706.374 643.842 705.986 644.634 705.828C645.425 705.671 646.245 705.752 646.991 706.061C647.736 706.369 648.374 706.892 648.822 707.563C649.27 708.234 649.51 709.023 649.51 709.83C649.51 710.912 649.08 711.95 648.315 712.715C647.549 713.48 646.512 713.91 645.43 713.91V713.91Z" fill="#858585"/>
</g>
<path d="M799.679 766.87C799.681 768.327 799.251 769.751 798.443 770.963C797.635 772.175 796.485 773.12 795.14 773.678C793.795 774.236 792.314 774.383 790.886 774.099C789.457 773.815 788.145 773.114 787.115 772.084C786.085 771.054 785.384 769.742 785.1 768.313C784.816 766.885 784.963 765.404 785.521 764.059C786.079 762.714 787.024 761.564 788.236 760.756C789.448 759.948 790.872 759.518 792.329 759.52C794.278 759.52 796.148 760.294 797.526 761.673C798.905 763.051 799.679 764.921 799.679 766.87V766.87Z" fill="#878583"/>
<g style="mix-blend-mode:screen">
<path d="M792.33 771C791.523 771 790.734 770.761 790.063 770.312C789.392 769.864 788.869 769.227 788.561 768.481C788.252 767.736 788.171 766.915 788.328 766.124C788.486 765.332 788.874 764.605 789.445 764.035C790.016 763.464 790.743 763.076 791.534 762.918C792.326 762.761 793.146 762.842 793.891 763.15C794.637 763.459 795.274 763.982 795.722 764.653C796.171 765.324 796.41 766.113 796.41 766.92C796.407 768.001 795.977 769.037 795.212 769.802C794.448 770.566 793.411 770.997 792.33 771V771Z" fill="#858585"/>
</g>
<path d="M630.001 766.87C630.001 768.324 629.57 769.745 628.762 770.953C627.954 772.162 626.807 773.104 625.463 773.661C624.12 774.217 622.643 774.362 621.217 774.079C619.791 773.795 618.481 773.095 617.454 772.067C616.426 771.039 615.726 769.73 615.442 768.304C615.158 766.878 615.304 765.4 615.86 764.057C616.417 762.714 617.359 761.566 618.567 760.759C619.776 759.951 621.197 759.52 622.651 759.52C624.6 759.52 626.47 760.294 627.848 761.673C629.226 763.051 630.001 764.921 630.001 766.87V766.87Z" fill="#878583"/>
<g style="mix-blend-mode:screen">
<path d="M622.641 771C621.834 771 621.045 770.761 620.374 770.312C619.703 769.864 619.18 769.227 618.871 768.481C618.562 767.736 618.482 766.915 618.639 766.124C618.796 765.332 619.185 764.605 619.756 764.035C620.326 763.464 621.053 763.076 621.845 762.918C622.636 762.761 623.456 762.842 624.202 763.15C624.947 763.459 625.585 763.982 626.033 764.653C626.481 765.324 626.721 766.113 626.721 766.92C626.721 768.002 626.291 769.04 625.526 769.805C624.76 770.57 623.723 771 622.641 771V771Z" fill="#858585"/>
</g>
<g style="mix-blend-mode:screen">
<path d="M752.719 769C750.195 778.739 745.192 787.659 738.198 794.892C731.204 802.124 722.457 807.423 712.808 810.272C703.158 813.121 692.936 813.424 683.135 811.151C673.334 808.878 664.289 804.106 656.879 797.3C661.447 805.243 667.771 812.036 675.368 817.158C682.965 822.28 691.634 825.596 700.71 826.853C709.786 828.109 719.029 827.272 727.732 824.406C736.435 821.539 744.366 816.72 750.92 810.316C757.473 803.913 762.474 796.094 765.541 787.46C768.607 778.826 769.658 769.604 768.611 760.502C767.565 751.399 764.45 742.656 759.504 734.943C754.559 727.229 747.914 720.75 740.079 716C746.351 723.132 750.782 731.691 752.985 740.929C755.189 750.168 755.097 759.805 752.719 769Z" fill="#7A7A7A"/>
</g>
<path d="M728 1105.94C728 1200.59 718.61 1261.67 707.71 1277.32C696.44 1261.02 687.42 1200.59 687.42 1105.94C687.42 1011.29 707.71 934.55 707.71 934.55C707.71 934.55 728 1011.28 728 1105.94Z" fill="#A01E1E"/>
<g style="mix-blend-mode:screen">
<path d="M569 864.47C569 706.26 662 573.47 711 514.47L711.13 514.31C715.71 508.86 709.88 501.02 703.13 503.62C697.733 505.711 692.963 509.155 689.28 513.62C643.64 568.62 557 692.37 557 839.8C557 898.52 594.78 1043.71 616.95 1089.71C593.58 1016.78 569 914.55 569 864.47Z" fill="#592D24"/>
</g>
<path d="M0.339844 1647.68C0.339844 1650.76 4.28984 1653.25 9.14984 1653.25H2206C2210.86 1653.25 2214.81 1650.76 2214.81 1647.68C2214.81 1644.59 2210.86 1642.1 2206 1642.1H9.14984C4.28984 1642.1 0.339844 1644.59 0.339844 1647.68Z" fill="#7E7E7F"/>
</svg>
