<svg width="2594" height="1745" viewBox="0 0 2594 1745" fill="none" xmlns="http://www.w3.org/2000/svg">
<path d="M2315.34 1665.67C2233.82 1697.05 1994.13 1631.02 1911.55 1626.06L420.16 1671.37C71.0601 1575.26 -219.15 1032.24 230.62 790.37C457.29 668.53 43.6902 249.25 513 91.2201C845.18 -20.6099 1019.39 268.65 1651.81 58.7501C2245.26 -138.25 2440.66 198.75 2315.3 534.75C2175.54 909.27 2404.86 837.34 2501.51 982.96C2644.29 1198 2649.14 1537.19 2315.34 1665.67Z" fill="#C4C4C4"/>
<path d="M1346.09 1744.17C1935.27 1744.17 2412.9 1709.02 2412.9 1665.67C2412.9 1622.32 1935.27 1587.17 1346.09 1587.17C756.907 1587.17 279.28 1622.32 279.28 1665.67C279.28 1709.02 756.907 1744.17 1346.09 1744.17Z" fill="#272727"/>
<path d="M980.621 1256.79C980.621 1256.79 991.201 831.67 265.311 935.1C265.311 935.1 642.291 1589.47 980.621 1256.79Z" fill="#B2B2B2"/>
<path d="M264 934.48L972.7 1203.76C947.7 1093.49 828.76 854 264 934.48Z" fill="#7E7E7F"/>
<path d="M943.35 1193.48C943.552 1193.36 943.718 1193.19 943.827 1192.98C943.936 1192.78 943.986 1192.54 943.969 1192.31C943.952 1192.08 943.87 1191.85 943.733 1191.66C943.595 1191.47 943.407 1191.33 943.19 1191.24L264.41 933.32C264.111 933.233 263.79 933.262 263.511 933.4C263.232 933.539 263.015 933.778 262.904 934.069C262.794 934.36 262.796 934.683 262.912 934.972C263.028 935.261 263.249 935.496 263.53 935.63L942.31 1193.55C942.478 1193.61 942.658 1193.64 942.837 1193.63C943.017 1193.62 943.192 1193.57 943.35 1193.48Z" fill="black"/>
<path d="M618.92 1070.2C619.162 1070.04 619.339 1069.79 619.42 1069.51C619.5 1069.23 619.479 1068.93 619.359 1068.66C619.239 1068.4 619.029 1068.18 618.766 1068.05C618.503 1067.93 618.203 1067.9 617.92 1067.97L430 1141.26C429.696 1141.38 429.452 1141.61 429.321 1141.91C429.19 1142.21 429.182 1142.55 429.3 1142.85C429.418 1143.16 429.653 1143.4 429.953 1143.54C430.253 1143.67 430.593 1143.68 430.9 1143.56L618.82 1070.27L618.92 1070.2Z" fill="black"/>
<path d="M764.32 1125.45L764.52 1125.31C764.644 1125.21 764.746 1125.08 764.82 1124.93C764.894 1124.79 764.939 1124.63 764.952 1124.47C764.965 1124.31 764.946 1124.15 764.896 1123.99C764.846 1123.84 764.766 1123.69 764.66 1123.57L636.22 972.87C636.003 972.625 635.698 972.475 635.371 972.451C635.045 972.426 634.721 972.53 634.47 972.74C634.222 972.953 634.068 973.256 634.042 973.582C634.016 973.907 634.119 974.23 634.33 974.48L762.78 1125.17C762.964 1125.39 763.219 1125.54 763.5 1125.59C763.781 1125.64 764.071 1125.59 764.32 1125.45V1125.45Z" fill="black"/>
<path d="M1109.9 1332.91C1109.9 1332.91 930.23 897.79 241.66 1327.58C241.66 1327.58 916.38 1821.23 1109.9 1332.91Z" fill="#B2B2B2"/>
<path d="M240 1327.55L1078.08 1282.79C1003.44 1182.34 775.78 993.15 240 1327.55Z" fill="#7E7E7F"/>
<path d="M1043.82 1285.5C1043.98 1285.29 1044.07 1285.04 1044.09 1284.78C1044.11 1284.52 1044.06 1284.26 1043.93 1284.03C1043.81 1283.8 1043.62 1283.61 1043.4 1283.48C1043.17 1283.36 1042.91 1283.3 1042.65 1283.31L240 1326.18C239.637 1326.2 239.296 1326.36 239.052 1326.63C238.808 1326.9 238.681 1327.26 238.7 1327.62C238.719 1327.98 238.881 1328.32 239.151 1328.57C239.421 1328.81 239.777 1328.94 240.14 1328.92L1042.8 1286C1043 1285.99 1043.19 1285.95 1043.36 1285.86C1043.54 1285.77 1043.7 1285.65 1043.82 1285.5V1285.5Z" fill="black"/>
<path d="M660.161 1306C660.361 1305.74 660.46 1305.41 660.438 1305.08C660.416 1304.75 660.274 1304.44 660.041 1304.21C659.782 1303.95 659.434 1303.81 659.071 1303.81C658.707 1303.81 658.359 1303.95 658.101 1304.21L500.671 1462.56C500.436 1462.82 500.31 1463.16 500.32 1463.51C500.33 1463.87 500.474 1464.2 500.723 1464.45C500.972 1464.7 501.307 1464.84 501.658 1464.85C502.01 1464.85 502.351 1464.73 502.611 1464.49L660.001 1306.13C660.062 1306.1 660.116 1306.05 660.161 1306V1306Z" fill="black"/>
<path d="M832.1 1296.81C832.159 1296.74 832.21 1296.66 832.25 1296.58C832.328 1296.42 832.374 1296.24 832.384 1296.06C832.394 1295.88 832.369 1295.7 832.309 1295.53C832.25 1295.36 832.158 1295.21 832.038 1295.07C831.918 1294.94 831.772 1294.83 831.61 1294.75L634.08 1199.75C633.754 1199.59 633.379 1199.57 633.038 1199.69C632.696 1199.81 632.417 1200.06 632.26 1200.39C632.104 1200.72 632.083 1201.09 632.203 1201.43C632.323 1201.77 632.574 1202.05 632.9 1202.21L830.42 1297.21C830.704 1297.35 831.025 1297.38 831.331 1297.31C831.637 1297.24 831.909 1297.06 832.1 1296.81V1296.81Z" fill="black"/>
<path d="M1662.5 1156.5C1662.5 1156.5 1570 775.09 2245 726.66C2245 726.66 2032.65 1390.55 1662.5 1156.5Z" fill="#B2B2B2"/>
<path d="M2246 725.84L1659.29 1107.12C1660.32 1002.77 1720.85 763.52 2246 725.84Z" fill="#7E7E7F"/>
<path d="M1683.77 1092.11C1683.51 1092.04 1683.28 1091.87 1683.14 1091.64C1683.06 1091.51 1683 1091.37 1682.97 1091.23C1682.95 1091.08 1682.95 1090.93 1682.98 1090.78C1683.01 1090.63 1683.07 1090.5 1683.15 1090.37C1683.24 1090.25 1683.34 1090.14 1683.47 1090.06L2245.41 724.88C2245.66 724.714 2245.97 724.656 2246.27 724.718C2246.56 724.78 2246.82 724.957 2246.99 725.21C2247.16 725.463 2247.21 725.772 2247.15 726.069C2247.09 726.365 2246.91 726.624 2246.66 726.79L1684.72 1092C1684.58 1092.09 1684.42 1092.14 1684.26 1092.16C1684.09 1092.18 1683.93 1092.16 1683.77 1092.11Z" fill="black"/>
<path d="M1952.35 917.57C1952.07 917.492 1951.82 917.307 1951.67 917.055C1951.52 916.803 1951.48 916.502 1951.54 916.216C1951.61 915.93 1951.78 915.68 1952.03 915.518C1952.27 915.357 1952.57 915.297 1952.86 915.35L2136.68 944.77C2136.83 944.789 2136.98 944.838 2137.11 944.915C2137.24 944.992 2137.36 945.094 2137.45 945.217C2137.54 945.339 2137.61 945.479 2137.65 945.627C2137.68 945.776 2137.69 945.93 2137.66 946.081C2137.64 946.232 2137.59 946.377 2137.51 946.507C2137.42 946.636 2137.32 946.748 2137.19 946.836C2137.07 946.924 2136.92 946.985 2136.77 947.017C2136.62 947.048 2136.47 947.049 2136.32 947.02L1952.5 917.6L1952.35 917.57Z" fill="black"/>
<path d="M1832 995.8L1831.79 995.71C1831.66 995.64 1831.54 995.544 1831.44 995.427C1831.35 995.311 1831.28 995.177 1831.23 995.033C1831.19 994.889 1831.17 994.737 1831.19 994.588C1831.2 994.438 1831.25 994.292 1831.32 994.16L1917.77 833.16C1917.93 832.919 1918.17 832.746 1918.44 832.674C1918.72 832.603 1919.02 832.639 1919.27 832.776C1919.52 832.912 1919.71 833.138 1919.81 833.41C1919.9 833.681 1919.89 833.978 1919.77 834.24L1833.32 995.24C1833.2 995.47 1833 995.652 1832.76 995.753C1832.52 995.855 1832.25 995.872 1832 995.8Z" fill="black"/>
<path d="M1703.63 1246.7C1703.63 1246.7 1918.19 866.79 2502.92 1340.14C2502.92 1340.14 1826.34 1717.82 1703.63 1246.7Z" fill="#B2B2B2"/>
<path d="M2504.42 1340.3L1738.55 1204.2C1818.62 1120.25 2049.47 972 2504.42 1340.3Z" fill="#7E7E7F"/>
<path d="M1769.79 1210.58C1769.64 1210.32 1769.59 1210.02 1769.64 1209.72C1769.7 1209.39 1769.89 1209.1 1770.17 1208.92C1770.44 1208.73 1770.78 1208.66 1771.11 1208.72L2504.64 1339.07C2504.81 1339.09 2504.97 1339.15 2505.12 1339.24C2505.26 1339.33 2505.39 1339.44 2505.49 1339.58C2505.59 1339.72 2505.66 1339.88 2505.7 1340.04C2505.74 1340.21 2505.74 1340.38 2505.71 1340.55C2505.69 1340.72 2505.62 1340.88 2505.53 1341.02C2505.44 1341.16 2505.32 1341.29 2505.17 1341.38C2505.03 1341.48 2504.87 1341.54 2504.71 1341.57C2504.54 1341.61 2504.37 1341.61 2504.2 1341.57L1770.67 1211.21C1770.49 1211.18 1770.31 1211.1 1770.16 1210.99C1770.01 1210.89 1769.88 1210.74 1769.79 1210.58V1210.58Z" fill="black"/>
<path d="M2120.39 1272.88C2120.24 1272.6 2120.2 1272.28 2120.27 1271.97C2120.35 1271.66 2120.53 1271.39 2120.8 1271.22C2121.06 1271.04 2121.38 1270.97 2121.69 1271.01C2122.01 1271.06 2122.29 1271.22 2122.49 1271.47L2249.37 1435C2249.58 1435.27 2249.67 1435.6 2249.62 1435.94C2249.58 1436.27 2249.41 1436.57 2249.14 1436.78C2249.01 1436.88 2248.86 1436.96 2248.7 1437C2248.54 1437.05 2248.37 1437.06 2248.21 1437.04C2248.04 1437.02 2247.88 1436.96 2247.74 1436.88C2247.6 1436.79 2247.47 1436.68 2247.37 1436.55L2120.48 1273L2120.39 1272.88Z" fill="black"/>
<path d="M1963.26 1245C1963.22 1244.93 1963.18 1244.85 1963.16 1244.77C1963.05 1244.45 1963.07 1244.1 1963.22 1243.8C1963.37 1243.5 1963.63 1243.27 1963.95 1243.16L2156.42 1178.16C2156.74 1178.05 2157.09 1178.08 2157.39 1178.23C2157.69 1178.38 2157.92 1178.64 2158.03 1178.96C2158.14 1179.28 2158.11 1179.63 2157.96 1179.93C2157.81 1180.23 2157.55 1180.46 2157.23 1180.57L1964.76 1245.57C1964.48 1245.66 1964.18 1245.65 1963.91 1245.55C1963.64 1245.45 1963.41 1245.25 1963.26 1245V1245Z" fill="black"/>
<path d="M1425.29 1424.65H1233.7V1607.2H1425.29V1424.65Z" fill="black"/>
<path d="M1852.45 724.7H819.87C810.122 724.7 802.22 732.602 802.22 742.35V1421C802.22 1430.75 810.122 1438.65 819.87 1438.65H1852.45C1862.2 1438.65 1870.1 1430.75 1870.1 1421V742.35C1870.1 732.602 1862.2 724.7 1852.45 724.7Z" fill="black"/>
<path d="M1841.84 743.62H829.44V1384.88H1841.84V743.62Z" fill="#DFDFDF"/>
<path d="M1493.07 1589.4H1165.9V1631.28H1493.07V1589.4Z" fill="black"/>
<path d="M1676.61 1312.8C1648.95 1275.8 1631.85 1252.8 1626.05 1245.05C1618.18 1234.53 1602.99 1203.56 1585.92 1169.05C1562.8 1122.27 1536.25 1069.05 1519.92 1051.41C1513.31 1044.31 1500.53 1038.24 1485.7 1033.11C1473.48 1028.88 1442.12 1078.88 1322.44 1066.4C1322.44 1066.4 1374.17 1098.56 1376.17 1103.86C1379.91 1113.73 1382.54 1121.1 1383.3 1124.08C1383.43 1124.5 1383.5 1124.94 1383.51 1125.38C1383.38 1126.68 1383.25 1127.97 1383.12 1129.24C1382.63 1134.16 1382.12 1138.85 1381.74 1143.24C1381.74 1143.39 1381.74 1143.55 1381.74 1143.7C1381.53 1145.88 1381.33 1147.98 1381.14 1149.98C1381.14 1150.35 1381.08 1150.7 1381.04 1151.06C1380.23 1159.52 1379.63 1166.2 1379.27 1170.15C1379.27 1170.46 1379.21 1170.77 1379.19 1171.03C1379.01 1173.03 1378.91 1174.17 1378.91 1174.17C1378.91 1174.17 1367.7 1171.51 1357.99 1175.83C1354.75 1177.23 1351.9 1179.42 1349.72 1182.2C1349.08 1183.02 1348.49 1183.89 1347.96 1184.79C1347.44 1185.69 1345.7 1189.7 1343.45 1195.25C1343.45 1195.36 1343.37 1195.46 1343.32 1195.57C1336.59 1212.25 1334.98 1240.31 1338.75 1242.89C1338.75 1242.89 1343.23 1249.55 1345.16 1251.39C1351.1 1257.06 1370.48 1276.78 1420.69 1292.39C1426.26 1294.12 1431.41 1296.7 1436.59 1298.53C1477.48 1313.01 1471.59 1317.15 1498.59 1341.85C1499.76 1343.29 1500.76 1344.85 1501.59 1346.51C1505.35 1353.3 1512.13 1366.91 1521.23 1384.92H1730.91C1709.68 1356.91 1691.59 1332.81 1676.61 1312.8Z" fill="#F09684"/>
<path d="M1517.33 1223.47C1519.72 1224.12 1522.18 1224.46 1524.65 1224.47L1524.59 1222.84C1524.48 1222.84 1513.11 1223.07 1500.51 1213.14C1488.84 1203.94 1473.68 1183.89 1467.78 1140.66L1466.17 1140.88C1469.47 1165.09 1477.96 1197.52 1499.61 1214.5C1504.82 1218.7 1510.86 1221.75 1517.33 1223.47V1223.47Z" fill="#D97D6B"/>
<path d="M1440.76 921.56C1445.97 922.7 1452.88 915.25 1452.88 915.25C1449.44 905.59 1445.99 895.57 1442.42 885.87C1439.14 886.98 1434.85 889.27 1433.65 893.69C1431.63 901.12 1435.54 920.41 1440.76 921.56Z" fill="#F3B2A3"/>
<path d="M1765.15 1384.87C1723.94 1326.77 1685.83 1274.99 1681.5 1276.95C1677.53 1278.77 1673.67 1280.84 1669.96 1283.14C1664.58 1286.41 1659.5 1290.14 1654.76 1294.29V1294.29C1625.66 1319.63 1615.43 1352.46 1565.61 1359.48C1541.04 1362.96 1522.11 1370.12 1509.55 1379.48C1508.64 1380.13 1507.77 1380.84 1506.95 1381.6V1381.6C1505.72 1382.62 1504.53 1383.69 1503.41 1384.83L1765.15 1384.87Z" fill="#6F7071"/>
<path d="M1406.94 1256.45C1428 1258.85 1446.79 1245.6 1448.94 1226.86L1480.36 950.31C1482.49 931.57 1467.14 914.44 1446.08 912.05C1425.02 909.66 1406.22 922.91 1404.08 941.65L1372.67 1218.2C1370.53 1236.93 1385.88 1254.06 1406.94 1256.45Z" fill="black"/>
<path d="M1149.59 505.05L1591.76 843.9L1618.12 899.07L1568.9 945.37L1006.74 978.12L1149.59 505.05Z" fill="#EA3E2A"/>
<path d="M1273.61 798.937C1309.71 676.918 1282.52 561.302 1212.89 540.701C1143.25 520.1 1057.54 602.316 1021.44 724.335C985.341 846.354 1012.53 961.97 1082.17 982.571C1151.8 1003.17 1237.52 920.956 1273.61 798.937Z" fill="#6F7071"/>
<path d="M1591.76 843.9L1670.4 883.76C1670.4 883.76 1685.61 885.05 1674.95 927.04C1664.29 969.03 1649.83 951.62 1568.95 945.37C1568.9 945.37 1623.38 902.79 1591.76 843.9Z" fill="black"/>
<path d="M1095.64 985.27L998.74 977.76L1134.36 496.64L1227.39 546.67L1190.17 829.14L1095.64 985.27Z" fill="#6F7071"/>
<path d="M1183 772.129C1222.28 639.365 1197.67 515.038 1128.03 494.437C1058.39 473.836 970.102 564.763 930.826 697.527C891.55 830.292 916.162 954.619 985.798 975.22C1055.43 995.82 1143.73 904.894 1183 772.129Z" fill="#2B2B2B"/>
<path d="M1162.88 766.181C1197.54 649.029 1177 539.672 1117.02 521.926C1057.03 504.179 980.305 584.764 945.648 701.916C910.99 819.068 931.524 928.424 991.511 946.171C1051.5 963.917 1128.22 883.333 1162.88 766.181Z" fill="black"/>
<path d="M1107.56 671.11L992.56 686.37L977.22 757.72L1079 824.33C1089.59 832.93 1104.4 831.56 1113.53 821.21C1135.12 796.75 1165.24 747.53 1133.53 685.52C1128.44 675.42 1118.13 669.71 1107.56 671.11Z" fill="#EA3E2A"/>
<path d="M969.92 720.45C966.32 741.02 970.5 759.18 979.27 760.99C988.04 762.8 998.07 747.6 1001.68 726.99C1005.29 706.38 1001.1 688.26 992.33 686.45C983.56 684.64 973.53 699.87 969.92 720.45Z" fill="#F09684"/>
<path d="M1285.18 1127.91L1284.18 1119.91C1282.11 1104.34 1303.18 1093.44 1331.05 1091.26L1399.05 1086.02C1427.67 1083.78 1443.38 1089.28 1449.05 1104.45C1450.11 1107.57 1450.58 1110.86 1450.44 1114.15C1449.61 1130.02 1438.23 1140.93 1409.61 1143.15L1338.74 1149.02C1310.85 1151.27 1287.25 1143.47 1285.18 1127.91Z" fill="#F1A38D"/>
<path d="M1296.94 1184.42L1295.62 1176.29C1293.28 1161.76 1313.07 1150.9 1339.62 1147.8L1409.85 1139.62C1437.1 1136.45 1457.85 1141.62 1463.18 1155.96C1464.21 1158.86 1464.65 1161.94 1464.48 1165.02C1463.67 1180.02 1445.79 1190.38 1418.48 1193.55L1348.25 1201.73C1321.75 1204.83 1299.28 1199 1296.94 1184.42Z" fill="#F1A38D"/>
<path d="M1312.22 1225.16L1312.32 1218.96C1312.52 1206.88 1329.99 1198.3 1351.71 1196.65L1396.27 1194.83C1413.7 1193.94 1435.84 1195 1437.53 1210.65C1439.53 1229.56 1409.77 1237.59 1399.53 1237.81L1350.93 1241.51C1329.24 1243.16 1312 1237.24 1312.22 1225.16Z" fill="#F1A38D"/>
<path d="M1441.42 1110.41C1440.3 1098.02 1430.03 1095.24 1419.34 1096.35L1405.84 1097.74C1400.74 1098.27 1397.13 1102.15 1397.84 1106.37L1400.32 1121.42C1401.08 1126.1 1406.32 1129.42 1412 1128.87L1427.36 1127.28C1436.45 1126.34 1441.91 1116 1441.42 1110.41Z" fill="#F3B2A3"/>
<path d="M1299 1076.68C1298.81 1075.25 1298 1066.07 1298 1066.07C1297.07 1052.87 1314.74 1045.96 1336.69 1045.5L1385.8 1044.5C1408.31 1044.03 1422.25 1043.85 1427.27 1057.02C1428.6 1060.5 1428.88 1067.94 1428.27 1071.86C1425.62 1088.56 1408.8 1089.98 1386.27 1090.45L1340.14 1094.54C1318.17 1095 1300.74 1089.83 1299 1076.68Z" fill="#F1A38D"/>
<path d="M1455.45 1164.15V1163.15C1455.45 1154.22 1447.89 1147.66 1438.68 1148.57L1426.57 1149.78C1424.43 1150 1422.44 1150.98 1420.97 1152.55C1419.5 1154.12 1418.65 1156.17 1418.57 1158.32V1173.04C1418.57 1174.15 1418.81 1175.26 1419.28 1176.27C1419.74 1177.28 1420.42 1178.19 1421.26 1178.92C1422.1 1179.65 1423.09 1180.19 1424.15 1180.51C1425.22 1180.83 1426.35 1180.91 1427.45 1180.76L1441.17 1179.39C1449.05 1178.62 1455.46 1171.76 1455.45 1164.15Z" fill="#F3B2A3"/>
<path d="M1428.28 1211.59V1211.87C1428.86 1219.09 1424.17 1225.5 1417.87 1226.11L1406.94 1227.17C1403.94 1227.46 1401.25 1224.88 1400.94 1221.44L1400.04 1210.06C1399.73 1206.23 1402.21 1202.84 1405.55 1202.52L1417.55 1201.35C1423 1200.83 1427.79 1205.44 1428.28 1211.59Z" fill="#F3B2A3"/>
<path d="M1424.47 1066.73L1424.25 1064.52C1423.49 1056.89 1416.01 1050.92 1407.64 1051.24L1398.09 1051.61C1394.09 1051.77 1391.09 1054.87 1391.48 1058.51L1392.87 1072.45C1393.27 1076.45 1397.23 1079.65 1401.66 1079.45L1412.66 1079.02C1419.81 1078.77 1425.12 1073.23 1424.47 1066.73Z" fill="#F3B2A3"/>
<path d="M1329.08 1149.87C1329.13 1149.88 1329.19 1149.88 1329.24 1149.87L1430.36 1139.59C1430.48 1139.58 1430.59 1139.52 1430.67 1139.42C1430.74 1139.33 1430.78 1139.21 1430.77 1139.09C1430.77 1139.03 1430.75 1138.97 1430.72 1138.92C1430.69 1138.86 1430.65 1138.82 1430.61 1138.78C1430.56 1138.74 1430.51 1138.71 1430.45 1138.7C1430.39 1138.68 1430.33 1138.67 1430.27 1138.68L1329.14 1149C1329.03 1149.01 1328.93 1149.05 1328.85 1149.13C1328.77 1149.21 1328.73 1149.31 1328.72 1149.42C1328.71 1149.53 1328.75 1149.64 1328.81 1149.72C1328.88 1149.81 1328.97 1149.87 1329.08 1149.89V1149.87Z" fill="#D97D6B"/>
<path d="M1320.25 1093.09C1320.3 1093.1 1320.34 1093.1 1320.39 1093.09L1418.39 1086.09C1418.51 1086.08 1418.62 1086.02 1418.7 1085.93C1418.78 1085.84 1418.82 1085.72 1418.81 1085.6C1418.81 1085.54 1418.79 1085.48 1418.76 1085.43C1418.74 1085.37 1418.7 1085.33 1418.65 1085.29C1418.61 1085.25 1418.55 1085.22 1418.5 1085.2C1418.44 1085.18 1418.38 1085.17 1418.32 1085.18L1320.32 1092.18C1320.21 1092.19 1320.11 1092.24 1320.04 1092.31C1319.96 1092.39 1319.92 1092.49 1319.91 1092.6C1319.9 1092.7 1319.93 1092.81 1319.99 1092.9C1320.05 1092.99 1320.14 1093.05 1320.24 1093.08L1320.25 1093.09Z" fill="#D97D6B"/>
<path d="M1327.25 1202.67C1327.3 1202.68 1327.35 1202.68 1327.4 1202.67L1409.88 1195.16C1410 1195.15 1410.11 1195.09 1410.19 1194.99C1410.26 1194.9 1410.3 1194.78 1410.29 1194.66C1410.29 1194.6 1410.27 1194.54 1410.24 1194.49C1410.21 1194.43 1410.17 1194.39 1410.13 1194.35C1410.08 1194.31 1410.03 1194.28 1409.97 1194.27C1409.91 1194.25 1409.85 1194.24 1409.79 1194.25L1327.32 1201.75C1327.2 1201.76 1327.09 1201.82 1327.01 1201.92C1326.93 1202.01 1326.89 1202.13 1326.9 1202.25C1326.91 1202.35 1326.94 1202.44 1327.01 1202.52C1327.07 1202.59 1327.15 1202.65 1327.25 1202.67Z" fill="#D97D6B"/>
<path d="M1569.69 1136.45C1569.69 1136.45 1511.22 956.6 1417.5 983.45C1404.69 987.12 1382.27 984.28 1357.95 980.53C1347.82 978.97 1337.36 977.25 1327.14 975.79L1322.95 975.19C1305.4 972.79 1304.29 1029.56 1383.59 1033.94C1402.28 1034.94 1449.98 1044.94 1469.34 1089.94C1481.69 1118.58 1548.73 1179.37 1569.69 1136.45Z" fill="#F09684"/>
<path d="M731.331 523.26C728.556 509.58 723.923 496.344 717.561 483.92C710.996 471.1 702.687 459.251 692.871 448.71C677.91 432.658 659.796 419.869 639.664 411.143C619.531 402.417 597.813 397.943 575.871 398C572.771 398 569.701 398.08 566.661 398.26C538.453 399.769 511.16 408.784 487.602 424.372C464.045 439.961 445.077 461.557 432.661 486.93C422.531 507.811 417.282 530.722 417.311 553.93C417.311 610.5 447.941 660.03 493.761 687.37C511.335 697.867 530.771 704.872 551.001 708C559.239 709.279 567.564 709.921 575.901 709.92C643.361 709.92 700.971 668.48 723.901 610.08C725.667 605.56 727.224 600.947 728.571 596.24C731.925 584.514 733.862 572.427 734.341 560.24C734.421 558.16 734.471 556.06 734.471 553.96C734.456 543.647 733.404 533.362 731.331 523.26V523.26ZM662.001 557.36C661.626 566.646 659.706 575.805 656.321 584.46C649.912 600.545 638.808 614.328 624.455 624.013C610.102 633.698 593.165 638.837 575.851 638.76C569.824 638.759 563.813 638.146 557.911 636.93C548.091 634.905 538.701 631.182 530.161 625.93C517.809 618.416 507.594 607.855 500.495 595.26C493.397 582.665 489.652 568.458 489.621 554C489.606 541.106 492.588 528.385 498.331 516.84C504.824 503.859 514.491 492.728 526.434 484.48C538.378 476.232 552.211 471.135 566.651 469.66C583.438 467.906 600.375 471.031 615.431 478.66C631.002 486.557 643.792 499.019 652.091 514.38C658.656 526.565 662.092 540.189 662.091 554.03C662.091 555.1 662.071 556.23 662.001 557.36Z" fill="#F5F5FC"/>
<path d="M557.92 636.93L551 708C530.786 704.88 511.365 697.889 493.8 687.41C447.98 660.07 417.35 610.54 417.35 553.97C417.321 530.762 422.57 507.851 432.7 486.97L498.37 516.83C492.611 528.375 489.616 541.1 489.62 554C489.652 568.459 493.398 582.667 500.499 595.262C507.599 607.857 517.816 618.417 530.17 625.93C538.71 631.183 548.1 634.905 557.92 636.93Z" fill="#272727"/>
<path d="M728.51 596.22C727.177 600.927 725.62 605.54 723.84 610.06C700.93 668.46 643.32 709.9 575.84 709.9C546.941 709.96 518.567 702.181 493.74 687.39C504.3 669.49 517.41 647.39 530.15 625.88C540.918 632.496 552.998 636.686 565.55 638.159C578.101 639.633 590.823 638.354 602.831 634.411C614.838 630.469 625.842 623.959 635.078 615.332C644.314 606.706 651.559 596.171 656.31 584.46C657.908 580.414 659.182 576.248 660.12 572L713.12 589.95L728.51 596.22Z" fill="#7E7E7F"/>
<path d="M734.41 554C734.41 556.1 734.41 558.2 734.28 560.28C733.605 577.357 730.076 594.199 723.84 610.11L656.33 584.51C659.724 575.858 661.644 566.697 662.01 557.41C662.07 556.28 662.09 555.15 662.09 554C662.097 548.398 661.535 542.809 660.41 537.32L731.33 523.32C733.382 533.418 734.414 543.696 734.41 554V554Z" fill="black"/>
<path d="M734.41 554C734.41 556.1 734.41 558.2 734.28 560.28L662 557.36C662.06 556.23 662.08 555.1 662.08 553.95C662.092 540.108 658.656 526.481 652.08 514.3C643.781 498.939 630.991 486.477 615.42 478.58L626.49 457.52L692.86 448.71C702.676 459.251 710.985 471.1 717.55 483.92C728.663 505.607 734.443 529.632 734.41 554V554Z" fill="#AAAAAA"/>
<path d="M717.56 483.92L652.09 514.3C644.648 500.588 633.631 489.148 620.209 481.195C606.787 473.242 591.462 469.072 575.86 469.13C572.784 469.128 569.71 469.289 566.65 469.61V398.26C569.65 398.08 572.76 398 575.86 398C605.1 397.891 633.802 405.855 658.804 421.015C683.806 436.176 704.138 457.943 717.56 483.92V483.92Z" fill="#EA3E2A"/>
<path d="M644.72 471.85C644.72 469.919 645.292 468.032 646.365 466.427C647.437 464.822 648.961 463.572 650.745 462.833C652.528 462.094 654.491 461.901 656.384 462.277C658.277 462.654 660.016 463.583 661.381 464.948C662.746 466.313 663.676 468.053 664.052 469.946C664.429 471.839 664.236 473.801 663.497 475.585C662.758 477.368 661.507 478.893 659.902 479.965C658.297 481.037 656.41 481.61 654.48 481.61C651.891 481.61 649.409 480.582 647.578 478.751C645.748 476.921 644.72 474.438 644.72 471.85Z" fill="black"/>
<path d="M879.561 388.23C879.561 386.297 880.134 384.408 881.208 382.801C882.282 381.194 883.808 379.942 885.594 379.203C887.38 378.464 889.345 378.271 891.24 378.648C893.136 379.026 894.877 379.958 896.242 381.325C897.608 382.692 898.538 384.434 898.914 386.33C899.29 388.226 899.095 390.191 898.354 391.976C897.613 393.761 896.359 395.286 894.751 396.358C893.143 397.431 891.253 398.002 889.321 398C888.038 398 886.768 397.747 885.583 397.256C884.398 396.765 883.322 396.045 882.416 395.138C881.509 394.23 880.791 393.153 880.301 391.968C879.811 390.783 879.559 389.513 879.561 388.23V388.23Z" fill="black"/>
<path d="M655.3 472.35L653.65 471.35L704.61 387.27H889.32V389.19H705.69L655.3 472.35Z" fill="black"/>
<path d="M869.151 325.89H704.101V335.22H869.151V325.89Z" fill="black"/>
<path d="M802.611 347.24H704.101V356.57H802.611V347.24Z" fill="black"/>
<path d="M1508.33 377.71C1508.33 333.61 1547.04 297.86 1594.8 297.86C1642.56 297.86 1681.26 333.61 1681.26 377.71C1681.26 399.09 1672.15 418.52 1657.32 432.85C1650.66 439.253 1645.35 446.932 1641.71 455.429C1638.08 463.927 1636.2 473.069 1636.17 482.31V482.31C1636.17 489.569 1633.28 496.529 1628.15 501.661C1623.02 506.793 1616.06 509.678 1608.8 509.68H1580.8C1573.54 509.68 1566.58 506.797 1561.45 501.664C1556.31 496.531 1553.43 489.569 1553.43 482.31V482.31C1553.4 473.068 1551.52 463.926 1547.88 455.429C1544.24 446.931 1538.94 439.253 1532.27 432.85C1517.44 418.52 1508.33 399.09 1508.33 377.71Z" fill="#EA3E2A"/>
<path d="M1579.63 519.62C1579.9 519.62 1580.15 519.515 1580.34 519.327C1580.52 519.14 1580.63 518.885 1580.63 518.62C1581.1 509.72 1567.63 370.62 1567.04 364.74C1567.03 364.609 1566.99 364.481 1566.93 364.365C1566.86 364.249 1566.78 364.146 1566.68 364.062C1566.47 363.893 1566.21 363.813 1565.94 363.84C1565.67 363.866 1565.43 363.997 1565.26 364.204C1565.09 364.41 1565.01 364.675 1565.04 364.94C1565.18 366.39 1579.04 509.76 1578.62 518.51C1578.61 518.647 1578.63 518.785 1578.68 518.914C1578.72 519.044 1578.79 519.162 1578.89 519.263C1578.98 519.363 1579.09 519.443 1579.22 519.498C1579.35 519.552 1579.48 519.58 1579.62 519.58L1579.63 519.62Z" fill="black"/>
<path d="M1610.74 519.62C1610.88 519.62 1611.01 519.592 1611.14 519.538C1611.27 519.483 1611.38 519.403 1611.47 519.303C1611.57 519.202 1611.64 519.084 1611.69 518.954C1611.73 518.825 1611.75 518.687 1611.74 518.55C1611.27 509.8 1625.18 366.43 1625.32 364.98C1625.33 364.849 1625.32 364.716 1625.28 364.59C1625.24 364.463 1625.18 364.346 1625.1 364.244C1625.01 364.141 1624.91 364.057 1624.8 363.994C1624.68 363.932 1624.55 363.893 1624.42 363.88C1624.29 363.867 1624.16 363.88 1624.03 363.918C1623.9 363.956 1623.79 364.019 1623.68 364.102C1623.58 364.186 1623.5 364.289 1623.43 364.405C1623.37 364.521 1623.33 364.649 1623.32 364.78C1622.74 370.7 1609.25 509.78 1609.73 518.66C1609.74 518.92 1609.85 519.166 1610.04 519.345C1610.23 519.524 1610.48 519.623 1610.74 519.62Z" fill="black"/>
<path d="M1593.86 399.65C1592.26 398.954 1590.85 397.876 1589.76 396.51C1587.67 397.468 1585.31 397.631 1583.11 396.97C1581.95 396.607 1580.86 396.049 1579.88 395.32C1579.38 396.008 1578.75 396.585 1578.02 397.014C1577.29 397.443 1576.47 397.714 1575.63 397.81C1574.35 397.888 1573.09 397.566 1572 396.89C1570.58 396.048 1569.44 394.805 1568.73 393.317C1568.02 391.829 1567.77 390.163 1568 388.53C1568.03 388.41 1568.11 388.307 1568.22 388.24C1568.32 388.173 1568.45 388.147 1568.57 388.167C1568.69 388.186 1568.81 388.25 1568.88 388.347C1568.96 388.443 1569 388.565 1569 388.69C1568.8 390.115 1569.02 391.567 1569.63 392.869C1570.25 394.171 1571.22 395.266 1572.45 396.02C1573.35 396.568 1574.4 396.839 1575.45 396.8C1576.15 396.705 1576.83 396.468 1577.43 396.104C1578.04 395.739 1578.57 395.255 1578.98 394.68C1577.14 393.028 1575.74 390.941 1574.92 388.61C1573.46 384.61 1573.56 380.26 1573.81 376.94C1573.83 374.89 1574.36 372.877 1575.37 371.09C1576.5 369.35 1578.79 368 1580.98 368.76C1581.11 368.811 1581.22 368.912 1581.28 369.04C1584.27 376.156 1584.48 384.132 1581.89 391.4C1581.51 392.488 1581 393.528 1580.38 394.5C1581.27 395.16 1582.26 395.667 1583.31 396C1585.2 396.568 1587.22 396.459 1589.04 395.69C1588.01 394.174 1587.27 392.478 1586.87 390.69C1585.96 386.69 1586.55 382.51 1587.17 379.31C1587.35 377.911 1587.85 376.57 1588.62 375.39C1589.05 374.76 1589.67 374.275 1590.38 373.999C1591.09 373.722 1591.87 373.667 1592.62 373.84C1592.7 373.864 1592.77 373.908 1592.83 373.968C1592.89 374.027 1592.93 374.1 1592.95 374.18C1594.22 378.716 1594.73 383.428 1594.48 388.13C1594.46 389.76 1594.12 391.37 1593.48 392.87C1592.81 394.196 1591.77 395.297 1590.48 396.04C1591.44 397.201 1592.67 398.119 1594.05 398.72C1595.77 399.361 1597.63 399.547 1599.44 399.262C1601.25 398.976 1602.96 398.228 1604.4 397.09C1603.39 396.222 1602.54 395.191 1601.88 394.04C1600.03 390.8 1599.57 386.97 1599.29 383.63C1599.06 380.95 1598.95 378.12 1600.16 375.63C1601.37 373.14 1604.55 371.2 1607.26 372.32C1608.44 372.862 1609.41 373.761 1610.05 374.89C1611.76 377.62 1612.3 381.17 1611.66 385.45C1611.15 388.86 1609.77 393.64 1606.04 397.05C1607.44 398.057 1609.16 398.542 1610.88 398.42C1612.29 398.207 1613.63 397.661 1614.79 396.828C1615.95 395.995 1616.89 394.899 1617.54 393.63C1618.96 391.2 1621.36 382.44 1622.03 379.25C1622.06 379.118 1622.14 379.003 1622.26 378.928C1622.37 378.854 1622.51 378.826 1622.64 378.85C1622.71 378.864 1622.77 378.891 1622.82 378.93C1622.88 378.968 1622.93 379.017 1622.96 379.074C1623 379.131 1623.02 379.194 1623.03 379.26C1623.05 379.326 1623.04 379.394 1623.03 379.46C1622.38 382.54 1619.95 391.46 1618.42 394.14C1617.69 395.552 1616.63 396.77 1615.34 397.691C1614.04 398.613 1612.54 399.213 1610.97 399.44C1608.92 399.579 1606.88 398.972 1605.24 397.73C1603.06 399.438 1600.38 400.383 1597.61 400.42C1596.32 400.405 1595.05 400.143 1593.86 399.65V399.65ZM1601.28 376.08C1600.17 378.32 1600.28 380.99 1600.51 383.53C1600.78 386.76 1601.22 390.46 1602.97 393.53C1603.6 394.637 1604.42 395.622 1605.4 396.44L1605.55 396.31C1609.06 393.1 1610.37 388.56 1610.85 385.31C1611.45 381.31 1610.94 377.92 1609.39 375.44C1608.86 374.491 1608.05 373.731 1607.07 373.27C1606.66 373.104 1606.22 373.019 1605.77 373.02C1604.82 373.088 1603.9 373.407 1603.11 373.944C1602.32 374.482 1601.69 375.219 1601.28 376.08ZM1589.53 375.99C1588.86 377.05 1588.43 378.245 1588.27 379.49C1587.67 382.6 1587.09 386.65 1587.97 390.49C1588.35 392.204 1589.06 393.828 1590.06 395.27C1591.21 394.62 1592.13 393.642 1592.72 392.46C1593.29 391.08 1593.59 389.603 1593.6 388.11C1593.84 383.617 1593.37 379.113 1592.19 374.77C1591.68 374.731 1591.17 374.823 1590.7 375.038C1590.23 375.254 1589.83 375.585 1589.53 376V375.99ZM1576.32 371.64C1575.42 373.291 1574.94 375.14 1574.93 377.02C1574.68 380.23 1574.58 384.41 1575.93 388.26C1576.68 390.4 1577.95 392.321 1579.63 393.85C1580.18 392.97 1580.63 392.035 1580.99 391.06C1583.47 384.108 1583.28 376.486 1580.48 369.66C1579.67 369.541 1578.84 369.665 1578.1 370.018C1577.36 370.371 1576.74 370.935 1576.32 371.64V371.64Z" fill="black"/>
<path d="M1622.28 553.53H1567.28C1565.35 553.53 1563.5 552.764 1562.14 551.401C1560.78 550.037 1560.01 548.188 1560.01 546.26V533.67H1629.59V546.26C1629.59 547.218 1629.4 548.167 1629.03 549.052C1628.66 549.936 1628.13 550.739 1627.45 551.415C1626.77 552.091 1625.96 552.625 1625.07 552.988C1624.19 553.351 1623.24 553.535 1622.28 553.53Z" fill="#4050D8"/>
<path d="M1590.52 543.28C1604.03 543.106 1617.44 541.016 1630.36 537.07C1632.03 536.525 1633.41 535.339 1634.21 533.773C1635 532.207 1635.15 530.39 1634.6 528.72C1634.06 527.051 1632.87 525.666 1631.3 524.871C1629.74 524.076 1627.92 523.935 1626.25 524.48C1625.64 524.68 1587.86 536.66 1564.25 524.85C1562.68 524.065 1560.86 523.936 1559.19 524.492C1557.53 525.049 1556.15 526.244 1555.37 527.815C1554.58 529.387 1554.45 531.205 1555.01 532.872C1555.56 534.538 1556.76 535.915 1558.33 536.7C1568.22 541.64 1579.69 543.28 1590.52 543.28Z" fill="black"/>
<path d="M1590.52 532.52C1604.03 532.352 1617.44 530.261 1630.36 526.31C1631.21 526.06 1632 525.642 1632.69 525.08C1633.37 524.519 1633.94 523.826 1634.35 523.042C1634.76 522.258 1635.01 521.4 1635.09 520.517C1635.16 519.635 1635.06 518.746 1634.78 517.904C1634.51 517.063 1634.07 516.285 1633.48 515.616C1632.9 514.948 1632.19 514.403 1631.4 514.014C1630.6 513.625 1629.74 513.399 1628.85 513.35C1627.97 513.302 1627.08 513.431 1626.25 513.73C1625.64 513.92 1587.86 525.91 1564.25 514.1C1562.68 513.355 1560.89 513.254 1559.25 513.818C1557.61 514.382 1556.26 515.566 1555.48 517.117C1554.71 518.668 1554.57 520.46 1555.1 522.11C1555.64 523.76 1556.79 525.135 1558.33 525.94C1568.22 530.88 1579.69 532.52 1590.52 532.52Z" fill="#4050D8"/>
<path d="M1590.52 521.77C1604.03 521.601 1617.44 519.507 1630.36 515.55C1631.21 515.3 1632 514.881 1632.69 514.32C1633.37 513.759 1633.94 513.065 1634.35 512.282C1634.76 511.498 1635.01 510.639 1635.09 509.757C1635.16 508.874 1635.06 507.986 1634.78 507.144C1634.51 506.302 1634.07 505.524 1633.48 504.856C1632.9 504.188 1632.19 503.643 1631.4 503.254C1630.6 502.864 1629.74 502.639 1628.85 502.59C1627.97 502.541 1627.08 502.671 1626.25 502.97C1625.64 503.17 1587.86 515.15 1564.25 503.34C1562.68 502.595 1560.89 502.493 1559.25 503.058C1557.61 503.622 1556.26 504.806 1555.48 506.357C1554.71 507.907 1554.57 509.7 1555.1 511.35C1555.64 513 1556.79 514.375 1558.33 515.18C1568.22 520.13 1579.69 521.77 1590.52 521.77Z" fill="black"/>
<path d="M2072.14 264.52C2055.87 264.52 2039.97 269.344 2026.44 278.383C2012.91 287.422 2002.37 300.269 1996.14 315.301C1989.92 330.332 1988.29 346.871 1991.46 362.828C1994.64 378.785 2002.47 393.442 2013.97 404.947C2025.48 416.451 2040.14 424.285 2056.09 427.459C2072.05 430.633 2088.59 429.004 2103.62 422.778C2118.65 416.552 2131.5 406.009 2140.54 392.481C2149.58 378.954 2154.4 363.05 2154.4 346.78C2154.4 324.963 2145.73 304.04 2130.31 288.613C2114.88 273.187 2093.96 264.52 2072.14 264.52ZM2074 407.67C2061.96 407.668 2050.19 404.095 2040.17 397.403C2030.16 390.711 2022.36 381.201 2017.75 370.075C2013.15 358.948 2011.94 346.706 2014.29 334.895C2016.64 323.084 2022.44 312.235 2030.96 303.721C2039.47 295.206 2050.32 289.408 2062.13 287.059C2073.95 284.711 2086.19 285.917 2097.31 290.526C2108.44 295.135 2117.95 302.939 2124.64 312.952C2131.33 322.965 2134.9 334.738 2134.9 346.78C2134.9 354.777 2133.33 362.696 2130.26 370.084C2127.2 377.472 2122.72 384.185 2117.06 389.839C2111.41 395.494 2104.69 399.979 2097.31 403.038C2089.92 406.097 2082 407.671 2074 407.67V407.67Z" fill="#B2B2B2"/>
<path d="M2083.36 239.95H2060.93V272H2083.36V239.95Z" fill="#B2B2B2"/>
<path d="M2125.75 251.428L2105.43 241.942L2091.87 270.984L2112.2 280.471L2125.75 251.428Z" fill="#B2B2B2"/>
<path d="M2158.16 279.294L2143.25 262.534L2119.3 283.834L2134.21 300.594L2158.16 279.294Z" fill="#B2B2B2"/>
<path d="M2176.16 314.274L2167.17 293.721L2137.81 306.558L2146.79 327.11L2176.16 314.274Z" fill="#B2B2B2"/>
<path d="M1998.16 358.53V336.1H1966.11V358.53H1998.16Z" fill="#B2B2B2"/>
<path d="M2177.64 358.53V336.1H2145.59V358.53H2177.64Z" fill="#B2B2B2"/>
<path d="M2031.6 280.45L2051.93 270.963L2038.37 241.921L2018.05 251.407L2031.6 280.45Z" fill="#B2B2B2"/>
<path d="M2009.57 300.564L2024.47 283.804L2000.53 262.504L1985.62 279.264L2009.57 300.564Z" fill="#B2B2B2"/>
<path d="M1997.29 327.258L2006.27 306.704L1976.9 293.873L1967.92 314.427L1997.29 327.258Z" fill="#B2B2B2"/>
<path d="M2083.62 422.63H2061.19V454.68H2083.62V422.63Z" fill="#B2B2B2"/>
<path d="M2112.42 414.221L2092.09 423.708L2105.65 452.75L2125.97 443.264L2112.42 414.221Z" fill="#B2B2B2"/>
<path d="M2134.49 394.117L2119.58 410.877L2143.53 432.177L2158.43 415.417L2134.49 394.117Z" fill="#B2B2B2"/>
<path d="M2147.01 367.564L2138.03 388.116L2167.39 400.953L2176.38 380.4L2147.01 367.564Z" fill="#B2B2B2"/>
<path d="M2018.24 443.217L2038.56 452.704L2052.12 423.661L2031.79 414.175L2018.24 443.217Z" fill="#B2B2B2"/>
<path d="M1985.89 415.312L2000.79 432.072L2024.74 410.773L2009.83 394.012L1985.89 415.312Z" fill="#B2B2B2"/>
<path d="M1967.88 380.335L1976.86 400.888L2006.23 388.051L1997.24 367.499L1967.88 380.335Z" fill="#B2B2B2"/>
<path d="M1947.06 475.44L1960.06 445.44L1934.47 434.44C1934.75 429.97 1934.53 425.483 1933.82 421.06L1959.59 407.95L1944.76 378.81L1920.29 391.26C1917.69 388.144 1914.79 385.296 1911.62 382.76L1922.11 358.48L1892.11 345.48L1881.63 369.75C1877.61 369.187 1873.55 369.026 1869.5 369.27L1861.79 342.92L1830.41 352.1L1838.52 379.85C1834.82 382.37 1831.41 385.287 1828.34 388.55L1802.75 377.55L1789.75 407.55L1813.05 417.62C1811.57 424.309 1811.24 431.199 1812.05 438L1788 450.2L1802.83 479.34L1824.58 468.27C1827.5 472.06 1830.86 475.494 1834.58 478.5L1825.44 499.67L1855.44 512.67L1864.58 491.5C1869.33 492.162 1874.14 492.266 1878.91 491.81L1885.76 515.23L1917.14 506.05L1909.55 480.05C1915.07 475.992 1919.86 471.033 1923.73 465.38L1947.06 475.44ZM1860.35 460.09C1854.51 457.571 1849.55 453.377 1846.1 448.039C1842.65 442.702 1840.86 436.46 1840.95 430.103C1841.04 423.747 1843.02 417.561 1846.63 412.329C1850.24 407.096 1855.32 403.052 1861.23 400.707C1867.14 398.362 1873.61 397.823 1879.83 399.157C1886.05 400.49 1891.73 403.637 1896.15 408.2C1900.58 412.762 1903.55 418.535 1904.7 424.789C1905.85 431.042 1905.11 437.494 1902.59 443.33C1900.92 447.204 1898.5 450.711 1895.47 453.65C1892.44 456.589 1888.86 458.903 1884.94 460.459C1881.02 462.016 1876.83 462.784 1872.61 462.721C1868.39 462.657 1864.22 461.763 1860.35 460.09V460.09Z" fill="black"/>
<path d="M2072.28 545.84V523.27H2053C2051.98 520.374 2050.64 517.6 2049 515L2061.75 499.63L2044.37 485.22L2032.27 499.81C2029.77 498.559 2027.15 497.555 2024.45 496.81V478.51H2001.87V496.76C1999.17 497.505 1996.55 498.509 1994.05 499.76L1981.95 485.17L1964.57 499.58L1977.28 515C1975.62 517.607 1974.25 520.391 1973.21 523.3H1954V545.87H1971.53C1972.44 550.514 1974.13 554.97 1976.53 559.05L1964.6 573.43L1981.98 587.84L1992.74 574.84C1995.64 576.438 1998.71 577.69 2001.9 578.57V594.49H2024.48V578.57C2027.67 577.69 2030.74 576.438 2033.64 574.84L2044.4 587.84L2061.78 573.43L2049.78 559C2052.18 554.92 2053.87 550.464 2054.78 545.82L2072.28 545.84ZM2013.12 559.84C2008.73 559.842 2004.44 558.542 2000.79 556.105C1997.14 553.667 1994.29 550.202 1992.61 546.147C1990.93 542.092 1990.49 537.629 1991.35 533.324C1992.2 529.018 1994.32 525.063 1997.42 521.96C2000.52 518.856 2004.48 516.742 2008.78 515.886C2013.09 515.03 2017.55 515.47 2021.61 517.151C2025.66 518.832 2029.13 521.678 2031.56 525.328C2034 528.979 2035.3 533.271 2035.3 537.66C2035.3 543.544 2032.96 549.186 2028.8 553.347C2024.64 557.509 2019 559.848 2013.12 559.85V559.84Z" fill="black"/>
<path d="M1045.92 1325.79C1103.59 1324.98 1149.66 1276.23 1148.82 1216.91C1147.99 1157.59 1100.56 1110.16 1042.89 1110.98C985.217 1111.79 939.147 1160.54 939.985 1219.86C940.824 1279.18 988.254 1326.61 1045.92 1325.79Z" fill="#EA3E2A"/>
<path d="M1050.46 1208.83C1041.46 1205.1 1035.27 1201.98 1031.34 1198.36C1030.96 1198.08 1030.62 1197.74 1030.34 1197.36C1027.46 1194.4 1025.87 1190.43 1025.91 1186.3C1025.81 1178.3 1031.34 1168.89 1046.33 1168.69C1055.04 1168.44 1063.64 1170.71 1071.09 1175.23L1075.71 1161.85C1070.08 1158.53 1062.03 1155.41 1050.26 1155.21L1050.06 1135.69H1047.44L1037.88 1135.89L1038.08 1146.05L1038.18 1156.21C1020.27 1159.43 1008.9 1172.21 1009.18 1188.91C1009.15 1192.42 1009.8 1195.91 1011.09 1199.18C1011.21 1199.66 1011.38 1200.14 1011.59 1200.59C1016.12 1210.85 1026.89 1217.39 1041.88 1223.22C1056.37 1229.06 1064.11 1235.7 1064.21 1246.77C1064.42 1258.24 1055.21 1266.59 1041.27 1266.77C1031.27 1266.88 1021.46 1264 1013.1 1258.52L1008.77 1271.6L1008.57 1272.1C1015.57 1277.03 1027.29 1280.45 1038.57 1280.45L1038.87 1300.78L1051.14 1300.58L1050.84 1279.65C1056.14 1278.77 1061.21 1276.82 1065.73 1273.91C1070.58 1270.87 1074.56 1266.62 1077.28 1261.57C1080 1256.53 1081.36 1250.87 1081.23 1245.14C1081 1227.24 1070.68 1217 1050.46 1208.83Z" fill="white"/>
<path d="M843.668 1501.26C886.433 1500.65 920.59 1464.49 919.96 1420.5C919.331 1376.51 884.153 1341.35 841.388 1341.96C798.624 1342.57 764.466 1378.73 765.096 1422.72C765.726 1466.71 800.904 1501.87 843.668 1501.26Z" fill="#EA3E2A"/>
<path d="M846.81 1414.69C840.17 1411.92 835.54 1409.61 832.63 1406.93C832.347 1406.72 832.098 1406.47 831.89 1406.18C829.754 1403.98 828.572 1401.03 828.6 1397.97C828.53 1391.97 832.6 1385.06 843.75 1384.91C850.206 1384.73 856.578 1386.41 862.1 1389.76L865.54 1379.84C861.36 1377.38 855.39 1375.07 846.66 1374.92L846.51 1360.44H844.57L837.48 1360.59L837.63 1368.12L837.71 1375.66C824.43 1378.05 815.99 1387.53 816.22 1399.91C816.199 1402.51 816.681 1405.1 817.64 1407.52C817.732 1407.86 817.856 1408.2 818.01 1408.52C821.37 1416.13 829.35 1420.98 840.47 1425.3C851.21 1429.63 856.96 1434.56 857.03 1442.76C857.18 1451.27 850.32 1457.46 840.03 1457.61C832.614 1457.69 825.341 1455.56 819.14 1451.49L815.93 1461.19L815.78 1461.57C820.93 1465.22 829.66 1467.76 838.01 1467.76L838.24 1482.83L847.34 1482.68L847.12 1467.16C851.038 1466.51 854.781 1465.06 858.12 1462.91C861.72 1460.65 864.671 1457.5 866.685 1453.76C868.699 1450.02 869.707 1445.82 869.61 1441.57C869.42 1428.34 861.81 1420.73 846.81 1414.69Z" fill="white"/>
<path d="M1202.69 261.08H1183.69V227.08H1118.57V261.08H1099.62V225.08C1099.62 215.71 1106.57 208.08 1115.1 208.08H1187.16C1195.7 208.08 1202.64 215.71 1202.64 225.08L1202.69 261.08Z" fill="black"/>
<path d="M1294.52 257.72H1017.93C1016.83 257.72 1015.94 258.611 1015.94 259.71V440.13C1015.94 441.229 1016.83 442.12 1017.93 442.12H1294.52C1295.62 442.12 1296.51 441.229 1296.51 440.13V259.71C1296.51 258.611 1295.62 257.72 1294.52 257.72Z" fill="black"/>
<path d="M1164.19 357.7C1164.03 357.698 1163.87 357.671 1163.71 357.62L1016.19 311C1015.99 310.934 1015.81 310.83 1015.65 310.694C1015.5 310.558 1015.37 310.393 1015.28 310.207C1015.18 310.021 1015.13 309.819 1015.11 309.612C1015.1 309.405 1015.12 309.197 1015.19 309C1015.26 308.803 1015.36 308.621 1015.5 308.464C1015.63 308.307 1015.8 308.179 1015.98 308.086C1016.17 307.993 1016.37 307.938 1016.58 307.923C1016.79 307.908 1016.99 307.934 1017.19 308L1164.19 354.42L1294.95 307.65C1295.15 307.58 1295.36 307.55 1295.56 307.561C1295.77 307.572 1295.98 307.624 1296.17 307.715C1296.35 307.805 1296.52 307.931 1296.66 308.086C1296.8 308.242 1296.91 308.423 1296.98 308.62C1297.05 308.817 1297.08 309.026 1297.07 309.234C1297.06 309.443 1297.01 309.647 1296.92 309.836C1296.83 310.024 1296.7 310.193 1296.54 310.333C1296.39 310.473 1296.21 310.58 1296.01 310.65L1164.75 357.65C1164.57 357.699 1164.38 357.716 1164.19 357.7V357.7Z" fill="black"/>
<path d="M1172.85 340.12H1156.06V370.54H1172.85V340.12Z" fill="white"/>
<path d="M2145.75 1548.41C2131.07 1551.35 2083.21 1537.65 2082.37 1533.41C2081.53 1529.17 2120.42 1498.14 2135.1 1495.2C2142.11 1493.88 2149.36 1495.38 2155.28 1499.37C2161.19 1503.36 2165.3 1509.52 2166.7 1516.52C2168.1 1523.51 2166.69 1530.78 2162.76 1536.74C2158.84 1542.7 2152.73 1546.88 2145.75 1548.36V1548.41Z" fill="#D1D1D1"/>
<path d="M2018.47 1548.37C2023.74 1562.37 2017.95 1611.83 2013.95 1613.37C2009.95 1614.91 1973 1581.51 1967.72 1567.5C1966.47 1564.17 1965.88 1560.62 1966 1557.06C1966.11 1553.5 1966.93 1550 1968.4 1546.76C1971.37 1540.21 1976.82 1535.11 1983.55 1532.57C1986.88 1531.32 1990.42 1530.74 1993.98 1530.85C1997.54 1530.97 2001.04 1531.78 2004.29 1533.25C2010.83 1536.22 2015.94 1541.67 2018.47 1548.4V1548.37Z" fill="#D1D1D1"/>
<path d="M2066 1656.3C2051.14 1658.11 2004.46 1640.81 2003.94 1636.57C2003.42 1632.33 2044.57 1604.3 2059.43 1602.48C2062.97 1602.03 2066.57 1602.29 2070.01 1603.24C2073.45 1604.18 2076.67 1605.8 2079.49 1607.99C2082.3 1610.18 2084.66 1612.91 2086.42 1616.02C2088.18 1619.13 2089.31 1622.55 2089.74 1626.09C2090.17 1629.63 2089.9 1633.23 2088.94 1636.67C2087.98 1640.11 2086.35 1643.32 2084.14 1646.13C2081.94 1648.93 2079.2 1651.28 2076.09 1653.02C2072.97 1654.77 2069.55 1655.88 2066 1656.3Z" fill="#D1D1D1"/>
<path d="M1986 1683.19C1986.62 1683.32 1987.24 1683.46 1987.87 1683.58C1988.18 1682.45 1988.55 1681.2 1988.96 1679.82C1993.27 1665.39 1998.46 1651.23 2004.48 1637.42C2005.09 1636.02 2005.71 1634.62 2006.35 1633.2C2021.65 1599.3 2046.35 1558.36 2083.25 1534.5C2083.48 1534.32 2083.74 1534.17 2083.97 1534.01L2082.97 1532.39C2082.83 1532.49 2082.68 1532.59 2082.54 1532.67C2053.04 1551.67 2031.22 1581.47 2015.75 1610.01C2015.13 1611.12 2014.55 1612.23 2013.96 1613.34C2002.92 1634.46 1993.92 1656.59 1987.1 1679.43C1986.67 1680.81 1986.3 1682.06 1986 1683.19Z" fill="#D1D1D1"/>
<path d="M1970.65 1680.23C1970.57 1678.9 1970.52 1677.56 1970.48 1676.23C1969.2 1643.79 1970.81 1611.3 1975.29 1579.15C1977.53 1562.77 1980.36 1547.15 1983.53 1532.55C1990.88 1498.53 2001.06 1465.19 2013.98 1432.88C2018.83 1420.88 2022.69 1412.58 2024.56 1408.72C2024.99 1407.82 2025.3 1407.18 2025.56 1406.72L2025.75 1406.31L2025.81 1406.22L2026.1 1406.37L2026.45 1406.55L2027.15 1406.92L2027.37 1407.03L2027.5 1407.09C2027.5 1407.09 2027.45 1407.19 2027.37 1407.33L2027 1408.07C2026.84 1408.38 2026.67 1408.77 2026.45 1409.21C2024.6 1413.01 2020.55 1421.68 2015.45 1434.41C2002.88 1466 1992.93 1498.56 1985.69 1531.78C1982.32 1547.19 1979.33 1563.69 1977 1581.05C1972.71 1612.66 1971.2 1644.59 1972.48 1676.47C1972.53 1677.8 1972.59 1679.12 1972.65 1680.47L1970.65 1680.23Z" fill="#D1D1D1"/>
<path d="M2048.44 1398.68C2044.44 1402.61 2026.73 1408.15 2025.6 1407.01C2024.47 1405.87 2030.24 1388.21 2034.22 1384.28C2036.14 1382.44 2038.7 1381.43 2041.36 1381.47C2044.02 1381.5 2046.56 1382.58 2048.42 1384.47C2050.29 1386.37 2051.34 1388.92 2051.34 1391.57C2051.35 1394.23 2050.3 1396.78 2048.44 1398.68V1398.68Z" fill="white"/>
<path d="M2023 1382.29C2026 1386.99 2027.8 1405.49 2026.46 1406.36C2025.12 1407.23 2009.01 1397.95 2005.98 1393.25C2005.26 1392.13 2004.76 1390.89 2004.52 1389.58C2004.28 1388.27 2004.3 1386.93 2004.58 1385.63C2004.86 1384.33 2005.39 1383.1 2006.15 1382C2006.9 1380.91 2007.86 1379.97 2008.98 1379.25C2010.1 1378.53 2011.34 1378.03 2012.65 1377.79C2013.96 1377.55 2015.3 1377.57 2016.6 1377.85C2017.9 1378.13 2019.13 1378.66 2020.23 1379.42C2021.32 1380.17 2022.26 1381.13 2022.98 1382.25L2023 1382.29Z" fill="white"/>
<path d="M2001.75 1400.38C2007.23 1399.28 2025.1 1404.38 2025.41 1405.96C2025.72 1407.54 2011.21 1419.13 2005.73 1420.23C2004.43 1420.49 2003.08 1420.5 2001.78 1420.24C2000.47 1419.98 1999.23 1419.47 1998.13 1418.74C1997.02 1418 1996.07 1417.05 1995.33 1415.95C1994.58 1414.85 1994.07 1413.61 1993.8 1412.31C1993.54 1411 1993.54 1409.66 1993.8 1408.35C1994.05 1407.05 1994.56 1405.81 1995.3 1404.7C1996.03 1403.59 1996.98 1402.64 1998.08 1401.9C1999.19 1401.16 2000.43 1400.64 2001.73 1400.38H2001.75Z" fill="white"/>
<path d="M2012.34 1425.47C2013.26 1419.96 2024.34 1405.07 2025.95 1405.33C2027.56 1405.59 2033.22 1423.33 2032.31 1428.79C2031.87 1431.44 2030.39 1433.81 2028.21 1435.37C2026.02 1436.94 2023.3 1437.57 2020.65 1437.13C2018 1436.69 2015.63 1435.21 2014.07 1433.03C2012.5 1430.84 2011.87 1428.12 2012.31 1425.47H2012.34Z" fill="white"/>
<path d="M2039.93 1426.16C2035.17 1423.23 2025.57 1407.32 2026.41 1405.96C2027.25 1404.6 2045.78 1405.96 2050.54 1408.96C2051.7 1409.64 2052.72 1410.55 2053.53 1411.63C2054.34 1412.7 2054.92 1413.93 2055.25 1415.24C2055.58 1416.55 2055.64 1417.91 2055.43 1419.24C2055.23 1420.58 2054.76 1421.85 2054.05 1423C2053.34 1424.15 2052.41 1425.15 2051.32 1425.93C2050.22 1426.71 2048.98 1427.27 2047.66 1427.57C2046.35 1427.86 2044.98 1427.9 2043.66 1427.66C2042.33 1427.42 2041.06 1426.92 2039.93 1426.19V1426.16Z" fill="white"/>
<path d="M2029.73 1405.66C2029.67 1405 2029.42 1404.38 2029 1403.87C2028.59 1403.36 2028.03 1402.98 2027.4 1402.78C2026.77 1402.59 2026.1 1402.59 2025.46 1402.77C2024.83 1402.96 2024.27 1403.33 2023.85 1403.84C2023.43 1404.35 2023.17 1404.97 2023.1 1405.62C2023.03 1406.28 2023.16 1406.94 2023.47 1407.52C2023.78 1408.11 2024.25 1408.58 2024.83 1408.9C2025.41 1409.21 2026.07 1409.34 2026.73 1409.28C2027.61 1409.19 2028.41 1408.77 2028.97 1408.09C2029.54 1407.41 2029.81 1406.54 2029.73 1405.66V1405.66Z" fill="#D1D1D1"/>
<path d="M1811.88 1576.85C1822.08 1578.85 1855.34 1569.37 1855.88 1566.46C1856.42 1563.55 1829.44 1541.95 1819.24 1539.91C1816.8 1539.37 1814.27 1539.33 1811.81 1539.78C1809.35 1540.23 1807 1541.17 1804.9 1542.54C1802.81 1543.91 1801.01 1545.68 1799.6 1547.76C1798.2 1549.83 1797.23 1552.16 1796.74 1554.61C1796.24 1557.07 1796.25 1559.59 1796.74 1562.05C1797.24 1564.5 1798.22 1566.83 1799.62 1568.9C1801.03 1570.97 1802.83 1572.74 1804.93 1574.1C1807.03 1575.47 1809.38 1576.4 1811.84 1576.85H1811.88Z" fill="#D1D1D1"/>
<path d="M1900.33 1576.82C1896.66 1586.56 1900.69 1620.92 1903.47 1621.96C1906.25 1623 1931.92 1599.83 1935.59 1590.09C1937.25 1585.44 1937.02 1580.32 1934.94 1575.84C1932.86 1571.35 1929.11 1567.87 1924.48 1566.13C1919.86 1564.39 1914.74 1564.53 1910.22 1566.53C1905.7 1568.53 1902.15 1572.23 1900.33 1576.82V1576.82Z" fill="#D1D1D1"/>
<path d="M1867.28 1651.82C1877.61 1653.08 1910.05 1641.05 1910.41 1638.11C1910.77 1635.17 1882.18 1615.68 1871.85 1614.42C1866.92 1613.87 1861.96 1615.28 1858.07 1618.36C1854.17 1621.44 1851.65 1625.93 1851.05 1630.86C1850.45 1635.79 1851.81 1640.75 1854.85 1644.68C1857.89 1648.6 1862.36 1651.17 1867.28 1651.82V1651.82Z" fill="#D1D1D1"/>
<path d="M1922.9 1670.5L1921.6 1670.77C1921.38 1669.99 1921.12 1669.12 1920.84 1668.16C1917.84 1658.13 1914.23 1648.3 1910.05 1638.7C1909.63 1637.7 1909.19 1636.7 1908.75 1635.76C1898.12 1612.21 1880.93 1583.76 1855.32 1567.18L1854.81 1566.84L1855.52 1565.72C1855.61 1565.79 1855.71 1565.86 1855.82 1565.91C1876.31 1579.12 1891.47 1599.82 1902.22 1619.65C1902.66 1620.43 1903.06 1621.2 1903.47 1621.97C1911.14 1636.65 1917.39 1652.02 1922.14 1667.89C1922.42 1668.85 1922.68 1669.72 1922.9 1670.5Z" fill="#D1D1D1"/>
<path d="M1933.55 1668.44C1933.55 1667.52 1933.64 1666.59 1933.67 1665.67C1934.56 1643.13 1933.44 1620.55 1930.33 1598.21C1928.77 1586.83 1926.81 1576 1924.6 1565.83C1919.49 1542.19 1912.42 1519.02 1903.44 1496.57C1900.07 1488.22 1897.44 1482.46 1896.09 1479.78C1895.79 1479.16 1895.58 1478.71 1895.43 1478.43L1895.29 1478.14V1478.08L1895.09 1478.19L1894.84 1478.31L1894.36 1478.56L1894.21 1478.65H1894.11C1894.11 1478.65 1894.11 1478.71 1894.21 1478.81C1894.29 1478.99 1894.37 1479.16 1894.47 1479.33V1479.33L1894.84 1480.13C1896.13 1482.77 1898.95 1488.79 1902.51 1497.63C1911.24 1519.58 1918.16 1542.22 1923.19 1565.3C1925.53 1576 1927.61 1587.47 1929.19 1599.53C1932.17 1621.5 1933.22 1643.69 1932.33 1665.84L1932.21 1668.61L1933.55 1668.44Z" fill="#D1D1D1"/>
<path d="M1879.5 1472.81C1882.26 1475.53 1894.59 1479.39 1895.37 1478.6C1896.15 1477.81 1892.14 1465.53 1889.37 1462.8C1888.04 1461.49 1886.25 1460.76 1884.39 1460.77C1882.52 1460.78 1880.74 1461.53 1879.43 1462.86C1878.12 1464.19 1877.39 1465.98 1877.4 1467.84C1877.41 1469.71 1878.16 1471.49 1879.49 1472.8L1879.5 1472.81Z" fill="white"/>
<path d="M1897.2 1461.42C1895.1 1464.68 1893.87 1477.54 1894.8 1478.14C1895.73 1478.74 1906.92 1472.3 1909.03 1469.03C1910.04 1467.46 1910.38 1465.56 1909.99 1463.73C1909.59 1461.91 1908.49 1460.32 1906.92 1459.31C1905.35 1458.3 1903.45 1457.96 1901.62 1458.35C1899.8 1458.75 1898.21 1459.85 1897.2 1461.42V1461.42Z" fill="white"/>
<path d="M1911.94 1474C1908.13 1473.24 1895.72 1476.79 1895.5 1477.88C1895.28 1478.97 1905.37 1487.03 1909.18 1487.79C1911.01 1488.16 1912.91 1487.78 1914.46 1486.75C1916.01 1485.71 1917.09 1484.1 1917.46 1482.28C1917.82 1480.45 1917.45 1478.55 1916.41 1477C1915.38 1475.44 1913.77 1474.37 1911.94 1474V1474Z" fill="white"/>
<path d="M1904.58 1491.42C1903.94 1487.59 1896.22 1477.24 1895.13 1477.42C1894.04 1477.6 1890.07 1489.89 1890.71 1493.72C1891.02 1495.56 1892.04 1497.2 1893.56 1498.29C1895.08 1499.37 1896.96 1499.81 1898.8 1499.5C1900.64 1499.19 1902.28 1498.17 1903.37 1496.65C1904.45 1495.14 1904.89 1493.25 1904.58 1491.41V1491.42Z" fill="white"/>
<path d="M1885.41 1491.9C1888.72 1489.9 1895.41 1478.81 1894.81 1477.9C1894.21 1476.99 1881.35 1477.9 1878.04 1479.97C1876.45 1480.95 1875.31 1482.52 1874.88 1484.33C1874.44 1486.15 1874.75 1488.06 1875.72 1489.66C1876.7 1491.25 1878.27 1492.38 1880.09 1492.82C1881.9 1493.25 1883.82 1492.95 1885.41 1491.97V1491.9Z" fill="white"/>
<path d="M1892.5 1477.66C1892.54 1477.21 1892.72 1476.77 1893 1476.42C1893.29 1476.06 1893.68 1475.8 1894.11 1475.66C1894.55 1475.53 1895.01 1475.52 1895.45 1475.65C1895.89 1475.78 1896.28 1476.04 1896.57 1476.39C1896.87 1476.74 1897.05 1477.17 1897.1 1477.62C1897.15 1478.07 1897.06 1478.53 1896.85 1478.94C1896.64 1479.34 1896.31 1479.67 1895.91 1479.89C1895.51 1480.11 1895.05 1480.21 1894.6 1480.17C1894.3 1480.14 1894 1480.06 1893.73 1479.92C1893.46 1479.78 1893.22 1479.59 1893.03 1479.35C1892.83 1479.12 1892.68 1478.85 1892.59 1478.56C1892.5 1478.27 1892.47 1477.96 1892.5 1477.66V1477.66Z" fill="#D1D1D1"/>
</svg>
