<svg width="40" height="46" viewBox="0 0 40 46" fill="none" xmlns="http://www.w3.org/2000/svg">
<path d="M20.0057 1.83392C20.3426 1.35093 20.7754 0.942542 21.2771 0.634249C21.7789 0.325956 22.3387 0.124369 22.9218 0.0420652C23.5049 -0.0402385 24.0987 -0.0014925 24.6662 0.155886C25.2337 0.313264 25.7626 0.585898 26.22 0.956776L35.5629 8.54249C36.3977 9.21991 36.9474 10.1863 37.103 11.2501C37.2585 12.3138 37.0087 13.3972 36.4029 14.2853H32.9171L34.0314 12.6882C34.2388 12.3924 34.3265 12.0289 34.2766 11.6711C34.2268 11.3132 34.0432 10.9875 33.7629 10.7596L28.9514 6.85678L23.82 14.2853H20.3429L26.7257 5.05106L24.4171 3.17678C24.2647 3.0531 24.0885 2.96216 23.8994 2.90963C23.7102 2.85709 23.5123 2.84409 23.318 2.87144C23.1236 2.89878 22.937 2.96589 22.7697 3.06856C22.6024 3.17123 22.4581 3.30728 22.3457 3.4682L14.8 14.2825H11.3143L20.0057 1.83392ZM30 31.4282C29.6211 31.4282 29.2578 31.5787 28.9898 31.8466C28.7219 32.1145 28.5714 32.4779 28.5714 32.8568C28.5714 33.2357 28.7219 33.599 28.9898 33.8669C29.2578 34.1348 29.6211 34.2853 30 34.2853H32.8571C33.236 34.2853 33.5994 34.1348 33.8673 33.8669C34.1352 33.599 34.2857 33.2357 34.2857 32.8568C34.2857 32.4779 34.1352 32.1145 33.8673 31.8466C33.5994 31.5787 33.236 31.4282 32.8571 31.4282H30ZM4.28571 11.4282H10.4829L8.48286 14.2853H4.28571C3.90683 14.2853 3.54347 14.4359 3.27556 14.7038C3.00765 14.9717 2.85714 15.335 2.85714 15.7139C2.85714 16.0928 3.00765 16.4562 3.27556 16.7241C3.54347 16.992 3.90683 17.1425 4.28571 17.1425H34.2857C35.8012 17.1425 37.2547 17.7445 38.3263 18.8162C39.398 19.8878 40 21.3413 40 22.8568V39.9996C40 41.5152 39.398 42.9686 38.3263 44.0402C37.2547 45.1119 35.8012 45.7139 34.2857 45.7139H7.14286C5.24845 45.7139 3.43164 44.9614 2.09209 43.6218C0.752549 42.2823 0 40.4655 0 38.5711V15.7139C0 14.5773 0.451529 13.4872 1.25526 12.6835C2.05898 11.8797 3.14907 11.4282 4.28571 11.4282ZM2.85714 38.5711C2.85714 39.7077 3.30867 40.7978 4.1124 41.6015C4.91613 42.4052 6.00622 42.8568 7.14286 42.8568H34.2857C35.0435 42.8568 35.7702 42.5558 36.306 42.0199C36.8418 41.4841 37.1429 40.7574 37.1429 39.9996V22.8568C37.1429 22.099 36.8418 21.3723 36.306 20.8365C35.7702 20.3007 35.0435 19.9996 34.2857 19.9996H4.28571C3.78571 19.9996 3.30286 19.9139 2.85714 19.7568V38.5711Z" fill="#EA3E2A"/>
</svg>
