<svg width="40" height="40" viewBox="0 0 40 40" fill="none" xmlns="http://www.w3.org/2000/svg">
<path d="M16.3333 27.125C16 26.7917 15.84 26.3889 15.8533 25.9167C15.8678 25.4444 16.0417 25.0417 16.375 24.7083L19.4167 21.6667H6.66667C6.19444 21.6667 5.79889 21.5067 5.48 21.1867C5.16 20.8678 5 20.4722 5 20C5 19.5278 5.16 19.1317 5.48 18.8117C5.79889 18.4928 6.19444 18.3333 6.66667 18.3333H19.4167L16.3333 15.25C16 14.9167 15.8333 14.5211 15.8333 14.0633C15.8333 13.6044 16 13.2083 16.3333 12.875C16.6667 12.5417 17.0628 12.375 17.5217 12.375C17.9794 12.375 18.375 12.5417 18.7083 12.875L24.6667 18.8333C24.8333 19 24.9517 19.1806 25.0217 19.375C25.0906 19.5694 25.125 19.7778 25.125 20C25.125 20.2222 25.0906 20.4306 25.0217 20.625C24.9517 20.8194 24.8333 21 24.6667 21.1667L18.6667 27.1667C18.3611 27.4722 17.9794 27.625 17.5217 27.625C17.0628 27.625 16.6667 27.4583 16.3333 27.125ZM8.33333 35C7.41667 35 6.63167 34.6739 5.97833 34.0217C5.32611 33.3683 5 32.5833 5 31.6667V26.6667C5 26.1944 5.16 25.7983 5.48 25.4783C5.79889 25.1594 6.19444 25 6.66667 25C7.13889 25 7.535 25.1594 7.855 25.4783C8.17389 25.7983 8.33333 26.1944 8.33333 26.6667V31.6667H31.6667V8.33333H8.33333V13.3333C8.33333 13.8056 8.17389 14.2011 7.855 14.52C7.535 14.84 7.13889 15 6.66667 15C6.19444 15 5.79889 14.84 5.48 14.52C5.16 14.2011 5 13.8056 5 13.3333V8.33333C5 7.41667 5.32611 6.63167 5.97833 5.97833C6.63167 5.32611 7.41667 5 8.33333 5H31.6667C32.5833 5 33.3683 5.32611 34.0217 5.97833C34.6739 6.63167 35 7.41667 35 8.33333V31.6667C35 32.5833 34.6739 33.3683 34.0217 34.0217C33.3683 34.6739 32.5833 35 31.6667 35H8.33333Z" fill="#EA3E2A"/>
</svg>
