<svg width="50" height="50" viewBox="0 0 50 50" fill="none" xmlns="http://www.w3.org/2000/svg">
<path d="M40.625 46.875H9.375C8.5462 46.875 7.75134 46.5458 7.16529 45.9597C6.57924 45.3737 6.25 44.5788 6.25 43.75V25C6.25 24.1712 6.57924 23.3763 7.16529 22.7903C7.75134 22.2042 8.5462 21.875 9.375 21.875H14.0625V25H9.375V43.75H40.625V25H35.9375V21.875H40.625C41.4538 21.875 42.2487 22.2042 42.8347 22.7903C43.4208 23.3763 43.75 24.1712 43.75 25V43.75C43.75 44.5788 43.4208 45.3737 42.8347 45.9597C42.2487 46.5458 41.4538 46.875 40.625 46.875Z" fill="#EA3E2A"/>
<path d="M20.3125 31.25H29.6875V34.375H20.3125V31.25ZM32.1719 13.4219L26.5625 19.0156V3.125H23.4375V19.0156L17.8281 13.4219L15.625 15.625L25 25L34.375 15.625L32.1719 13.4219Z" fill="#EA3E2A"/>
</svg>
