<svg width="50" height="50" viewBox="0 0 50 50" fill="none" xmlns="http://www.w3.org/2000/svg">
<path d="M42.188 26.1876V23.797L45.188 21.172C45.741 20.6845 46.1039 20.0173 46.2125 19.2882C46.3212 18.5591 46.1686 17.8151 45.7817 17.1876L42.0942 10.9376C41.8202 10.463 41.4262 10.0688 40.9518 9.79456C40.4773 9.52031 39.9391 9.37565 39.3911 9.37509C39.0515 9.37248 38.7137 9.42526 38.3911 9.53134L34.5942 10.8126C33.9387 10.377 33.2549 9.98548 32.5473 9.64071L31.7505 5.70321C31.6076 4.98384 31.2162 4.33765 30.6449 3.87775C30.0736 3.41784 29.3587 3.17353 28.6255 3.18759H21.313C20.5797 3.17353 19.8648 3.41784 19.2935 3.87775C18.7222 4.33765 18.3308 4.98384 18.188 5.70321L17.3911 9.64071C16.6785 9.9854 15.9895 10.3769 15.3286 10.8126L11.6098 9.46884C11.2837 9.38387 10.946 9.35221 10.6098 9.37509C10.0618 9.37565 9.5236 9.52031 9.04915 9.79456C8.5747 10.0688 8.18071 10.463 7.9067 10.9376L4.21921 17.1876C3.8545 17.8141 3.71897 18.548 3.83585 19.2635C3.95272 19.9789 4.31471 20.6315 4.85983 21.1095L7.81296 23.8126V26.2032L4.85983 28.8282C4.29931 29.3095 3.92742 29.9737 3.81014 30.7031C3.69286 31.4325 3.83779 32.1799 4.21921 32.8126L7.9067 39.0626C8.18071 39.5372 8.5747 39.9314 9.04915 40.2056C9.5236 40.4799 10.0618 40.6245 10.6098 40.6251C10.9494 40.6277 11.2872 40.5749 11.6098 40.4688L15.4067 39.1876C16.0622 39.6232 16.746 40.0147 17.4536 40.3595L18.2505 44.297C18.3933 45.0163 18.7847 45.6625 19.356 46.1224C19.9273 46.5823 20.6422 46.8266 21.3755 46.8126H28.7505C29.4837 46.8266 30.1986 46.5823 30.7699 46.1224C31.3412 45.6625 31.7326 45.0163 31.8755 44.297L32.6723 40.3595C33.3849 40.0148 34.0739 39.6233 34.7348 39.1876L38.5161 40.4688C38.8387 40.5749 39.1765 40.6277 39.5161 40.6251C40.0641 40.6245 40.6023 40.4799 41.0768 40.2056C41.5512 39.9314 41.9452 39.5372 42.2192 39.0626L45.7817 32.8126C46.1464 32.186 46.2819 31.4522 46.1651 30.7367C46.0482 30.0212 45.6862 29.3686 45.1411 28.8907L42.188 26.1876ZM39.3911 37.5001L34.0317 35.6876C32.7771 36.7503 31.3433 37.5809 29.7973 38.1407L28.688 43.7501H21.313L20.2036 38.2032C18.6699 37.6275 17.2438 36.7983 15.9848 35.7501L10.6098 37.5001L6.92233 31.2501L11.1723 27.5001C10.8834 25.8827 10.8834 24.2269 11.1723 22.6095L6.92233 18.7501L10.6098 12.5001L15.9692 14.3126C17.2238 13.2499 18.6576 12.4192 20.2036 11.8595L21.313 6.25009H28.688L29.7973 11.797C31.331 12.3726 32.7571 13.2019 34.0161 14.2501L39.3911 12.5001L43.0786 18.7501L38.8286 22.5001C39.1175 24.1175 39.1175 25.7733 38.8286 27.3907L43.0786 31.2501L39.3911 37.5001Z" fill="#EA3E2A"/>
<path d="M25 34.375C23.1458 34.375 21.3332 33.8252 19.7915 32.795C18.2498 31.7649 17.0482 30.3007 16.3386 28.5877C15.6291 26.8746 15.4434 24.9896 15.8051 23.171C16.1669 21.3525 17.0598 19.682 18.3709 18.3709C19.682 17.0598 21.3525 16.1669 23.171 15.8051C24.9896 15.4434 26.8746 15.6291 28.5877 16.3386C30.3007 17.0482 31.7649 18.2498 32.795 19.7915C33.8252 21.3332 34.375 23.1458 34.375 25C34.3875 26.2346 34.1536 27.4593 33.6869 28.6024C33.2202 29.7455 32.5301 30.784 31.6571 31.6571C30.784 32.5301 29.7455 33.2202 28.6024 33.6869C27.4593 34.1536 26.2346 34.3875 25 34.375ZM25 18.75C24.174 18.7308 23.3526 18.8793 22.5857 19.1866C21.8187 19.4938 21.122 19.9535 20.5377 20.5377C19.9535 21.122 19.4938 21.8187 19.1866 22.5857C18.8793 23.3526 18.7308 24.174 18.75 25C18.7308 25.826 18.8793 26.6474 19.1866 27.4144C19.4938 28.1813 19.9535 28.878 20.5377 29.4623C21.122 30.0465 21.8187 30.5062 22.5857 30.8135C23.3526 31.1207 24.174 31.2692 25 31.25C25.826 31.2692 26.6474 31.1207 27.4144 30.8135C28.1813 30.5062 28.878 30.0465 29.4623 29.4623C30.0465 28.878 30.5062 28.1813 30.8135 27.4144C31.1207 26.6474 31.2692 25.826 31.25 25C31.2692 24.174 31.1207 23.3526 30.8135 22.5857C30.5062 21.8187 30.0465 21.122 29.4623 20.5377C28.878 19.9535 28.1813 19.4938 27.4144 19.1866C26.6474 18.8793 25.826 18.7308 25 18.75Z" fill="#EA3E2A"/>
</svg>
