<svg width="60" height="60" viewBox="0 0 60 60" fill="none" xmlns="http://www.w3.org/2000/svg">
<path d="M46.7973 29.1012C46.6826 25.4207 45.1399 21.9292 42.4959 19.3663C39.8518 16.8033 36.314 15.3701 32.6317 15.3701C28.9493 15.3701 25.4116 16.8033 22.7675 19.3663C20.1235 21.9292 18.5807 25.4207 18.4661 29.1012C16.4271 29.1529 14.4906 30.0056 13.0757 31.4745C11.6607 32.9435 10.8812 34.9106 10.9058 36.95C10.9305 38.9894 11.7573 40.9371 13.2074 42.3714C14.6574 43.8057 16.614 44.6113 18.6536 44.6137H46.6098C48.6494 44.6113 50.606 43.8057 52.056 42.3714C53.506 40.9371 54.3329 38.9894 54.3575 36.95C54.3822 34.9106 53.6027 32.9435 52.1877 31.4745C50.7728 30.0056 48.8362 29.1529 46.7973 29.1012V29.1012Z" stroke="#EA3E2A" stroke-width="2" stroke-linecap="round" stroke-linejoin="round"/>
<path d="M28.4424 41.2251L33.7136 35.9539L28.4424 30.6826" stroke="#EA3E2A" stroke-width="2" stroke-linecap="round" stroke-linejoin="round"/>
<path d="M15.124 37.2126C15.8192 37.2126 16.3827 36.649 16.3827 35.9538C16.3827 35.2586 15.8192 34.6951 15.124 34.6951C14.4288 34.6951 13.8652 35.2586 13.8652 35.9538C13.8652 36.649 14.4288 37.2126 15.124 37.2126Z" stroke="#EA3E2A" stroke-width="2" stroke-linecap="round" stroke-linejoin="round"/>
<path d="M6.88375 37.2126C7.57894 37.2126 8.1425 36.649 8.1425 35.9538C8.1425 35.2586 7.57894 34.6951 6.88375 34.6951C6.18856 34.6951 5.625 35.2586 5.625 35.9538C5.625 36.649 6.18856 37.2126 6.88375 37.2126Z" stroke="#EA3E2A" stroke-width="2" stroke-linecap="round" stroke-linejoin="round"/>
<path d="M22.4121 37.2126C23.1073 37.2126 23.6708 36.649 23.6708 35.9538C23.6708 35.2586 23.1073 34.6951 22.4121 34.6951C21.7169 34.6951 21.1533 35.2586 21.1533 35.9538C21.1533 36.649 21.7169 37.2126 22.4121 37.2126Z" stroke="#EA3E2A" stroke-width="2" stroke-linecap="round" stroke-linejoin="round"/>
</svg>
